<?xml version="1.0" encoding="utf-8"?>
<!-- Generator: Adobe Illustrator 22.0.0, SVG Export Plug-In . SVG Version: 6.00 Build 0)  -->
<svg version="1.1" id="Layer_1" xmlns="http://www.w3.org/2000/svg" xmlns:xlink="http://www.w3.org/1999/xlink" x="0px" y="0px"
	 width="14px" height="14px" viewBox="0 0 14 14" enable-background="new 0 0 14 14" xml:space="preserve">
<g>
	<defs>
		<path id="SVGID_1_" d="M12.6,12c0,0.7-0.5,1.2-1.2,1.2H2c-0.7,0-1.2-0.6-1.2-1.2V2.5c0-0.7,0.5-1.2,1.2-1.2h5.5V0.6H2
			c-1.1,0-2,0.9-2,2V12c0,1.1,0.9,2,2,2h9.5c1.1,0,2-0.9,2-2V6.5h-0.8L12.6,12L12.6,12z"/>
	</defs>
	<clipPath id="SVGID_2_">
		<use xlink:href="#SVGID_1_"  overflow="visible"/>
	</clipPath>
	<rect x="-3.7" y="-3.1" clip-path="url(#SVGID_2_)" fill="#B2B2B2" width="20.9" height="20.9"/>
</g>
<g>
	<defs>
		<path id="SVGID_3_" d="M13,2.1l-0.3,0.3l-1.1-1.1L11.9,1c0.3-0.3,0.8-0.3,1.1,0c0.1,0.1,0.2,0.3,0.2,0.6S13.1,2,13,2.1z M7.8,7.4
			L6.3,7.7l0.4-1.5L11,1.8L12.1,3L7.8,7.4z M13.5,0.5c-0.6-0.6-1.6-0.6-2.2,0L6,5.8C6,5.8,5.9,5.9,5.9,5.9L5.3,8.2
			c0,0.1,0,0.3,0.1,0.4c0.1,0.1,0.2,0.1,0.3,0.1c0,0,0.1,0,0.1,0l2.2-0.6C8.1,8.1,8.2,8,8.2,8l5.3-5.3C13.8,2.4,14,2,14,1.6
			C14,1.1,13.8,0.7,13.5,0.5z"/>
	</defs>
	<clipPath id="SVGID_4_">
		<use xlink:href="#SVGID_3_"  overflow="visible"/>
	</clipPath>
	<rect x="1.6" y="-3.7" clip-path="url(#SVGID_4_)" fill="#B2B2B2" width="16.1" height="16.1"/>
</g>
</svg>
