<?xml version="1.0" encoding="utf-8"?>
<!-- Generator: Adobe Illustrator 20.1.0, SVG Export Plug-In . SVG Version: 6.00 Build 0)  -->
<svg version="1.1" id="Layer_1" xmlns="http://www.w3.org/2000/svg" xmlns:xlink="http://www.w3.org/1999/xlink" x="0px" y="0px"
	 width="16px" height="15.1px" viewBox="0 0 16 15.1" enable-background="new 0 0 16 15.1" xml:space="preserve">
<g>
	<defs>
		<path id="SVGID_1_" d="M2.3,2.6l0.5,1.8c0.1,0.5-0.2,1-0.7,1.1C1.6,5.7,1.1,5.4,1,4.9L0,1.2c-0.1-0.4,0-0.7,0.3-1
			C0.6,0,1-0.1,1.3,0.1l14.1,6.6C15.8,6.8,16,7.2,16,7.5c0,0.4-0.2,0.7-0.5,0.9L1.3,15c-0.3,0.2-0.7,0.1-1-0.1
			c-0.3-0.2-0.4-0.6-0.3-1l1.9-6.6C2,6.9,2.4,6.6,2.8,6.6h3.8c0.5,0,0.9,0.4,0.9,0.9c0,0.5-0.4,0.9-0.9,0.9H3.5l-1.1,3.9l10.4-4.9
			L2.3,2.6z"/>
	</defs>
	<clipPath id="SVGID_2_">
		<use xlink:href="#SVGID_1_"  overflow="visible"/>
	</clipPath>
	<rect x="-4.7" y="-4.7" clip-path="url(#SVGID_2_)" fill="#FFFFFF" width="25.4" height="24.5"/>
</g>
</svg>
