<?xml version="1.0" encoding="utf-8"?>
<!-- Generator: Adobe Illustrator 20.1.0, SVG Export Plug-In . SVG Version: 6.00 Build 0)  -->
<svg version="1.1" id="Layer_1" xmlns="http://www.w3.org/2000/svg" xmlns:xlink="http://www.w3.org/1999/xlink" x="0px" y="0px"
	 width="24.4px" height="24px" viewBox="0 0 24.4 24" enable-background="new 0 0 24.4 24" xml:space="preserve">
<g>
	<defs>
		<path id="SVGID_331_" d="M10.9,10.2c0-0.7,0.6-1.3,1.3-1.3s1.3,0.6,1.3,1.3c0,0.7-0.6,1.3-1.3,1.3S10.9,10.9,10.9,10.2z M14.1,11.9
			c0.4-0.5,0.7-1.1,0.7-1.7c0-1.4-1.1-2.5-2.6-2.5s-2.6,1.1-2.6,2.5c0,0.7,0.3,1.3,0.7,1.7c-1.4,0.7-2.4,2.1-2.4,3.8h1.2
			c0-1.7,1.4-3,3.1-3s3.1,1.4,3.1,3h1.2C16.5,14.1,15.5,12.6,14.1,11.9z"/>
	</defs>
	<clipPath id="SVGID_332_">
		<use xlink:href="#SVGID_331_"  overflow="visible"/>
	</clipPath>
	<rect x="7.1" y="6.9" clip-path="url(#SVGID_332_)" fill="#F5635B" width="10.2" height="9.7"/>
</g>
<g>
	<defs>
		<path id="SVGID_333_" d="M22.6,12.6c-0.4,0-0.6-0.3-0.6-0.6s0.3-0.6,0.6-0.6c0.3,0,0.6,0.3,0.6,0.6S22.9,12.6,22.6,12.6z M12.2,18.5
			c-3.7,0-6.6-2.9-6.6-6.5s3-6.5,6.6-6.5s6.6,2.9,6.6,6.5S15.9,18.5,12.2,18.5z M19.4,18.5c0.4,0,0.6,0.3,0.6,0.6
			c0,0.3-0.3,0.6-0.6,0.6c-0.4,0-0.6-0.3-0.6-0.6C18.8,18.8,19.1,18.5,19.4,18.5z M12.2,22.8c-0.3,0-0.6-0.3-0.6-0.6
			c0-0.3,0.3-0.6,0.6-0.6c0.4,0,0.6,0.3,0.6,0.6C12.8,22.5,12.6,22.8,12.2,22.8z M4.9,19.8c-0.4,0-0.6-0.3-0.6-0.6s0.3-0.6,0.6-0.6
			c0.3,0,0.6,0.3,0.6,0.6S5.2,19.8,4.9,19.8z M1.9,12.6c-0.4,0-0.6-0.3-0.6-0.6s0.3-0.6,0.6-0.6s0.6,0.3,0.6,0.6S2.2,12.6,1.9,12.6z
			 M4.9,5.4c-0.4,0-0.6-0.3-0.6-0.6c0-0.3,0.3-0.6,0.6-0.6c0.3,0,0.6,0.3,0.6,0.6C5.5,5.1,5.2,5.4,4.9,5.4z M12.2,1.2
			c0.4,0,0.6,0.3,0.6,0.6c0,0.3-0.3,0.6-0.6,0.6s-0.6-0.3-0.6-0.6C11.6,1.5,11.8,1.2,12.2,1.2z M19.4,4.2c0.4,0,0.6,0.3,0.6,0.6
			c0,0.3-0.3,0.6-0.6,0.6c-0.4,0-0.6-0.3-0.6-0.6C18.8,4.5,19.1,4.2,19.4,4.2z M22.6,10.2c-0.8,0-1.5,0.5-1.7,1.2H20
			c-0.1-1.7-0.8-3.2-1.9-4.4l0.5-0.5c0.2,0.1,0.5,0.2,0.8,0.2c1,0,1.9-0.8,1.9-1.8c0-1-0.8-1.8-1.9-1.8c-1,0-1.9,0.8-1.9,1.8
			c0,0.3,0.1,0.6,0.2,0.8l-0.5,0.5c-1.2-1-2.8-1.7-4.5-1.8V3.6c0.7-0.2,1.3-0.9,1.3-1.7c0-1-0.8-1.8-1.9-1.8s-1.9,0.8-1.9,1.8
			c0,0.8,0.5,1.5,1.3,1.7v0.7C9.9,4.4,8.4,5.1,7.1,6.1L6.6,5.6c0.1-0.2,0.2-0.5,0.2-0.8C6.8,3.8,6,3,4.9,3S3.1,3.8,3.1,4.8
			s0.8,1.8,1.8,1.8c0.3,0,0.6-0.1,0.8-0.2L6.2,7c-1,1.2-1.7,2.7-1.9,4.4H3.6c-0.3-0.7-0.9-1.2-1.7-1.2C0.8,10.2,0,11,0,12
			s0.8,1.8,1.9,1.8c0.8,0,1.5-0.5,1.7-1.2h0.8c0.1,1.7,0.8,3.2,1.9,4.4l-0.5,0.5c-0.2-0.1-0.5-0.2-0.8-0.2c-1,0-1.9,0.8-1.9,1.8
			S3.9,21,4.9,21s1.9-0.8,1.9-1.8c0-0.3-0.1-0.6-0.2-0.8l0.5-0.5c1.2,1,2.8,1.7,4.5,1.8v0.7c-0.7,0.2-1.3,0.9-1.3,1.7
			c0,1,0.8,1.8,1.9,1.8c1,0,1.9-0.8,1.9-1.8c0-0.8-0.5-1.5-1.3-1.7v-0.7c1.7-0.1,3.3-0.8,4.5-1.8l0.5,0.5c-0.1,0.2-0.2,0.5-0.2,0.8
			c0,1,0.8,1.8,1.9,1.8c1,0,1.9-0.8,1.9-1.8s-0.8-1.8-1.9-1.8c-0.3,0-0.6,0.1-0.8,0.2L18.1,17c1-1.2,1.7-2.7,1.9-4.4h0.8
			c0.3,0.7,0.9,1.2,1.7,1.2c1,0,1.9-0.8,1.9-1.8C24.4,11,23.6,10.2,22.6,10.2z"/>
	</defs>
	<clipPath id="SVGID_334_">
		<use xlink:href="#SVGID_333_"  overflow="visible"/>
	</clipPath>
	<rect x="-0.8" y="-0.8" clip-path="url(#SVGID_334_)" fill="#F5635B" width="26" height="25.6"/>
</g>
</svg>
