<?xml version="1.0" encoding="utf-8"?>
<!-- Generator: Adobe Illustrator 20.1.0, SVG Export Plug-In . SVG Version: 6.00 Build 0)  -->
<svg version="1.1" id="Layer_1" xmlns="http://www.w3.org/2000/svg" xmlns:xlink="http://www.w3.org/1999/xlink" x="0px" y="0px"
	 width="18px" height="19.6px" viewBox="0 0 18 19.6" enable-background="new 0 0 18 19.6" xml:space="preserve">
<g>
	<defs>
		<path id="SVGID_1_" d="M7.4,1.6c1.4,0,2.5,1.1,2.5,2.5S8.7,6.5,7.4,6.5C6,6.5,4.9,5.4,4.9,4.1S6,1.6,7.4,1.6z M7.4,8.2
			c2.3,0,4.1-1.8,4.1-4.1S9.6,0,7.4,0C5.1,0,3.3,1.8,3.3,4.1C3.3,6.3,5.1,8.2,7.4,8.2z"/>
	</defs>
	<clipPath id="SVGID_2_">
		<use xlink:href="#SVGID_1_"  overflow="visible"/>
	</clipPath>
	<rect x="-0.8" y="-4.1" clip-path="url(#SVGID_2_)" width="16.4" height="16.4" fill="#FFFFFF"/>
</g>
<g>
	<defs>
		<path id="SVGID_3_" d="M13.1,18H1.6v-1.8c0-3.1,2.5-5.5,5.5-5.5h0.4c3.1,0,5.5,2.5,5.5,5.5V18z M7.5,9H7.2C3.2,9,0,12.2,0,16.2
			v2.6c0,0.5,0.4,0.8,0.8,0.8h13.1c0.5,0,0.8-0.4,0.8-0.8v-2.6C14.7,12.2,11.5,9,7.5,9z"/>
	</defs>
	<clipPath id="SVGID_4_">
		<use xlink:href="#SVGID_3_"  overflow="visible"/>
	</clipPath>
	<rect x="-4.1" y="4.9" clip-path="url(#SVGID_4_)" width="22.9" height="18.8" fill="#FFFFFF"/>
</g>
<g>
	<defs>
		<path id="SVGID_5_" d="M17.2,7.4h-1.6V5.7c0-0.5-0.4-0.8-0.8-0.8c-0.5,0-0.8,0.4-0.8,0.8v1.6h-1.6c-0.5,0-0.8,0.4-0.8,0.8
			c0,0.5,0.4,0.8,0.8,0.8h1.6v1.6c0,0.5,0.4,0.8,0.8,0.8c0.5,0,0.8-0.4,0.8-0.8V9h1.6C17.6,9,18,8.6,18,8.2
			C18,7.7,17.6,7.4,17.2,7.4z"/>
	</defs>
	<clipPath id="SVGID_6_">
		<use xlink:href="#SVGID_5_"  overflow="visible"/>
	</clipPath>
	<rect x="7.4" y="0.8" clip-path="url(#SVGID_6_)" width="14.7" height="14.7" fill="#FFFFFF"/>
</g>
</svg>
