<?xml version="1.0" encoding="utf-8"?>
<!-- Generator: Adobe Illustrator 20.1.0, SVG Export Plug-In . SVG Version: 6.00 Build 0)  -->
<svg version="1.1" id="Layer_1" xmlns="http://www.w3.org/2000/svg" xmlns:xlink="http://www.w3.org/1999/xlink" x="0px" y="0px"
	 width="27.9px" height="25.9px" viewBox="0 0 27.9 25.9" enable-background="new 0 0 27.9 25.9" xml:space="preserve">
<g>
	<defs>
		<path id="SVGID_1_" d="M4,22.2c2.3,2.3,5.5,3.6,9,3.6c1.5,0,2.9-0.2,4.3-0.7c0.3-0.1,0.6-0.5,0.4-0.9c-0.1-0.3-0.5-0.6-0.9-0.4
			c-1.2,0.4-2.5,0.6-3.8,0.6c-3,0-5.6-1.1-7.7-2.9c0.8-1.3,1.9-2.4,3.2-3.3c0.8,0.4,2.7,1.3,4.2,1.3c0.6,0,1.3-0.1,2.1-0.4
			c0.3-0.1,0.6-0.5,0.5-0.9s-0.5-0.6-0.9-0.5c-0.7,0.2-1.2,0.3-1.6,0.3c-1.3,0-3.2-0.9-3.9-1.3c-0.2-0.1-0.5-0.1-0.7,0
			c-1.6,0.9-2.9,2.2-3.8,3.7c-1.8-2-2.9-4.7-2.9-7.6C1.4,6.6,6.6,1.4,13,1.4s11.5,5.2,11.5,11.5c0,0.4,0.3,0.7,0.7,0.7
			c0.4,0,0.7-0.3,0.7-0.7C25.9,5.8,20.1,0,13,0S0,5.8,0,12.9c0,3.6,1.5,6.8,3.8,9.2C3.9,22.2,3.9,22.2,4,22.2z"/>
	</defs>
	<clipPath id="SVGID_2_">
		<use xlink:href="#SVGID_1_"  overflow="visible"/>
	</clipPath>
	<rect x="-1.7" y="-1.7" clip-path="url(#SVGID_2_)" width="29.4" height="29.3"/>
</g>
<g>
	<defs>
		<path id="SVGID_3_" d="M12.9,16c-2,0-3.7-2.9-3.7-5.2c0-1.9,0.6-4.2,3.7-4.2s3.7,2.3,3.7,4.2C16.6,13.4,14.8,16,12.9,16z
			 M12.9,5.3c-3.2,0-5.1,2-5.1,5.6c0,3.3,2.5,6.6,5.1,6.6c2.6,0,5.1-3.1,5.1-6.6C18,7.3,16.2,5.3,12.9,5.3z"/>
	</defs>
	<clipPath id="SVGID_4_">
		<use xlink:href="#SVGID_3_"  overflow="visible"/>
	</clipPath>
	<rect x="6.1" y="3.5" clip-path="url(#SVGID_4_)" width="13.7" height="15.6"/>
</g>
<g>
	<defs>
		<path id="SVGID_5_" d="M26.5,19.4v1.3h-3.2c-0.4,0-0.7,0.3-0.7,0.7v3.2h-1.3v-3.2c0-0.4-0.3-0.7-0.7-0.7h-3.2v-1.3h3.2
			c0.4,0,0.7-0.3,0.7-0.7v-3.2h1.3v3.2c0,0.4,0.3,0.7,0.7,0.7H26.5z M24,14.8c0-0.4-0.3-0.7-0.7-0.7h-2.7c-0.4,0-0.7,0.3-0.7,0.7V18
			h-3.2c-0.4,0-0.7,0.3-0.7,0.7v2.7c0,0.4,0.3,0.7,0.7,0.7h3.2v3.2c0,0.4,0.3,0.7,0.7,0.7h2.7c0.4,0,0.7-0.3,0.7-0.7v-3.2h3.2
			c0.4,0,0.7-0.3,0.7-0.7v-2.7c0-0.4-0.3-0.7-0.7-0.7H24V14.8z"/>
	</defs>
	<clipPath id="SVGID_6_">
		<use xlink:href="#SVGID_5_"  overflow="visible"/>
	</clipPath>
	<rect x="14.3" y="12.4" clip-path="url(#SVGID_6_)" width="15.3" height="15.3"/>
</g>
</svg>
