<?xml version="1.0" encoding="utf-8"?>
<!-- Generator: Adobe Illustrator 20.1.0, SVG Export Plug-In . SVG Version: 6.00 Build 0)  -->
<svg version="1.1" id="Layer_1" xmlns="http://www.w3.org/2000/svg" xmlns:xlink="http://www.w3.org/1999/xlink" x="0px" y="0px"
	 width="38px" height="38px" viewBox="0 0 38 38" enable-background="new 0 0 38 38" xml:space="preserve">
<g>
	<defs>
		<path id="SVGID_1_" d="M19,2.9l11.5,5.3H7.5L19,2.9z M1.4,10.9h35.3c0.6,0,1.2-0.4,1.3-1.1c0.1-0.6-0.2-1.3-0.8-1.5L19.6,0.1
			c-0.4-0.2-0.8-0.2-1.1,0L0.8,8.3C0.2,8.5-0.1,9.2,0,9.8C0.2,10.4,0.7,10.9,1.4,10.9z"/>
	</defs>
	<clipPath id="SVGID_2_">
		<use xlink:href="#SVGID_1_"  overflow="visible"/>
	</clipPath>
	<rect x="-6.8" y="-6.8" clip-path="url(#SVGID_2_)" fill="#AC850D" width="51.6" height="24.4"/>
</g>
<g>
	<defs>
		<path id="SVGID_3_" d="M1.4,38h35.3c0.7,0,1.4-0.6,1.4-1.4c0-0.7-0.6-1.4-1.4-1.4H1.4c-0.7,0-1.4,0.6-1.4,1.4
			C0,37.4,0.6,38,1.4,38z"/>
	</defs>
	<clipPath id="SVGID_4_">
		<use xlink:href="#SVGID_3_"  overflow="visible"/>
	</clipPath>
	<rect x="-6.8" y="28.5" clip-path="url(#SVGID_4_)" fill="#AC850D" width="51.6" height="16.3"/>
</g>
<g>
	<defs>
		<path id="SVGID_5_" d="M2.7,32.6c0,0.7,0.6,1.4,1.4,1.4h29.9c0.7,0,1.4-0.6,1.4-1.4c0-0.7-0.6-1.4-1.4-1.4H4.1
			C3.3,31.2,2.7,31.8,2.7,32.6z"/>
	</defs>
	<clipPath id="SVGID_6_">
		<use xlink:href="#SVGID_5_"  overflow="visible"/>
	</clipPath>
	<rect x="-4.1" y="24.4" clip-path="url(#SVGID_6_)" fill="#AC850D" width="46.1" height="16.3"/>
</g>
<g>
	<defs>
		<path id="SVGID_7_" d="M33.9,12.2H4.1c-0.7,0-1.4,0.6-1.4,1.4c0,0.7,0.6,1.4,1.4,1.4h29.9c0.7,0,1.4-0.6,1.4-1.4
			C35.3,12.8,34.7,12.2,33.9,12.2z"/>
	</defs>
	<clipPath id="SVGID_8_">
		<use xlink:href="#SVGID_7_"  overflow="visible"/>
	</clipPath>
	<rect x="-4.1" y="5.4" clip-path="url(#SVGID_8_)" fill="#AC850D" width="46.1" height="16.3"/>
</g>
<g>
	<defs>
		<path id="SVGID_9_" d="M8.1,28.5V17.6c0-0.7-0.6-1.4-1.4-1.4s-1.4,0.6-1.4,1.4v10.9c0,0.7,0.6,1.4,1.4,1.4S8.1,29.3,8.1,28.5z"/>
	</defs>
	<clipPath id="SVGID_10_">
		<use xlink:href="#SVGID_9_"  overflow="visible"/>
	</clipPath>
	<rect x="-1.3" y="9.5" clip-path="url(#SVGID_10_)" fill="#AC850D" width="16.3" height="27.1"/>
</g>
<g>
	<defs>
		<path id="SVGID_11_" d="M16.3,28.5V17.6c0-0.7-0.6-1.4-1.4-1.4c-0.7,0-1.4,0.6-1.4,1.4v10.9c0,0.7,0.6,1.4,1.4,1.4
			C15.7,29.9,16.3,29.3,16.3,28.5z"/>
	</defs>
	<clipPath id="SVGID_12_">
		<use xlink:href="#SVGID_11_"  overflow="visible"/>
	</clipPath>
	<rect x="6.8" y="9.5" clip-path="url(#SVGID_12_)" fill="#AC850D" width="16.3" height="27.1"/>
</g>
<g>
	<defs>
		<path id="SVGID_13_" d="M24.4,28.5V17.6c0-0.7-0.6-1.4-1.4-1.4c-0.7,0-1.4,0.6-1.4,1.4v10.9c0,0.7,0.6,1.4,1.4,1.4
			C23.8,29.9,24.4,29.3,24.4,28.5z"/>
	</defs>
	<clipPath id="SVGID_14_">
		<use xlink:href="#SVGID_13_"  overflow="visible"/>
	</clipPath>
	<rect x="14.9" y="9.5" clip-path="url(#SVGID_14_)" fill="#AC850D" width="16.3" height="27.1"/>
</g>
<g>
	<defs>
		<path id="SVGID_15_" d="M32.6,28.5V17.6c0-0.7-0.6-1.4-1.4-1.4s-1.4,0.6-1.4,1.4v10.9c0,0.7,0.6,1.4,1.4,1.4S32.6,29.3,32.6,28.5z
			"/>
	</defs>
	<clipPath id="SVGID_16_">
		<use xlink:href="#SVGID_15_"  overflow="visible"/>
	</clipPath>
	<rect x="23.1" y="9.5" clip-path="url(#SVGID_16_)" fill="#AC850D" width="16.3" height="27.1"/>
</g>
</svg>
