<?xml version="1.0" encoding="utf-8"?>
<!-- Generator: Adobe Illustrator 20.1.0, SVG Export Plug-In . SVG Version: 6.00 Build 0)  -->
<svg version="1.1" id="Layer_1" xmlns="http://www.w3.org/2000/svg" xmlns:xlink="http://www.w3.org/1999/xlink" x="0px" y="0px"
	 width="22px" height="22px" viewBox="0 0 22 22" enable-background="new 0 0 22 22" xml:space="preserve">
<g>
	<defs>
		<path id="SVGID_221_" d="M21,11c0-5-3.6-9.2-8.5-9.9c-4.9-0.7-9.6,2.3-11,7C0,12.9,2.3,18,6.8,20.1L7,16.4c0.1-1.6,1.4-2.9,3.1-2.9
			h1.8c1.6,0,3,1.3,3.1,2.9l0.2,3.6C18.7,18.4,21,14.9,21,11z M22,11c0,6.1-4.9,11-11,11S0,17.1,0,11S4.9,0,11,0
			C17.1,0,22,4.9,22,11z M14.2,9.5c0,1.7-1.4,3.2-3.2,3.2s-3.2-1.4-3.2-3.2S9.3,6.3,11,6.3S14.2,7.8,14.2,9.5z"/>
	</defs>
	<clipPath id="SVGID_222_">
		<use xlink:href="#SVGID_221_"  overflow="visible"/>
	</clipPath>
	<rect x="-2.6" y="-2.6" clip-path="url(#SVGID_222_)" fill="#F5635B" width="27.1" height="27.1"/>
</g>
</svg>
