<?xml version="1.0" encoding="utf-8"?>
<!-- Generator: Adobe Illustrator 22.0.0, SVG Export Plug-In . SVG Version: 6.00 Build 0)  -->
<svg version="1.1" id="Layer_1" xmlns="http://www.w3.org/2000/svg" xmlns:xlink="http://www.w3.org/1999/xlink" x="0px" y="0px"
	 width="18px" height="17.9px" viewBox="0 0 18 17.9" enable-background="new 0 0 18 17.9" xml:space="preserve">
<g>
	<defs>
		<path id="SVGID_1_" d="M14.8,1.2h-1.3V0.8c0-0.5-0.4-0.8-0.8-0.8s-0.8,0.4-0.8,0.8v2.5c0,0.5,0.4,0.8,0.8,0.8s0.8-0.4,0.8-0.8V2.9
			h1.3c0.8,0,1.5,0.7,1.5,1.5v10.4c0,0.8-0.7,1.5-1.5,1.5H3.1c-0.8,0-1.5-0.7-1.5-1.5V4.4c0-0.8,0.7-1.5,1.5-1.5h0.5V1.2H3.1
			C1.4,1.2,0,2.6,0,4.4v10.4c0,1.7,1.4,3.1,3.1,3.1h11.7c1.7,0,3.1-1.4,3.1-3.1V4.4C18,2.6,16.6,1.2,14.8,1.2z"/>
	</defs>
	<clipPath id="SVGID_2_">
		<use xlink:href="#SVGID_1_"  overflow="visible"/>
	</clipPath>
	<rect x="-0.9" y="-0.9" clip-path="url(#SVGID_2_)" fill="#F5655D" width="19.9" height="19.8"/>
</g>
<g>
	<defs>
		<path id="SVGID_3_" d="M3.3,6.3v1.1c0,0.3,0.2,0.5,0.5,0.5h1.9c0.3,0,0.5-0.2,0.5-0.5V6.3C6.2,6,6,5.8,5.7,5.8H3.8
			C3.5,5.8,3.3,6,3.3,6.3z"/>
	</defs>
	<clipPath id="SVGID_4_">
		<use xlink:href="#SVGID_3_"  overflow="visible"/>
	</clipPath>
	<rect x="2.4" y="4.9" clip-path="url(#SVGID_4_)" fill="#F5655D" width="4.8" height="4"/>
</g>
<g>
	<defs>
		<path id="SVGID_5_" d="M10.4,6.3c0-0.3-0.2-0.5-0.5-0.5H8c-0.3,0-0.5,0.2-0.5,0.5v1.1c0,0.3,0.2,0.5,0.5,0.5h1.9
			c0.3,0,0.5-0.2,0.5-0.5L10.4,6.3L10.4,6.3z"/>
	</defs>
	<clipPath id="SVGID_6_">
		<use xlink:href="#SVGID_5_"  overflow="visible"/>
	</clipPath>
	<rect x="6.6" y="4.9" clip-path="url(#SVGID_6_)" fill="#F5655D" width="4.8" height="4"/>
</g>
<g>
	<defs>
		<path id="SVGID_7_" d="M12.3,7.9h1.9c0.3,0,0.5-0.2,0.5-0.5V6.3c0-0.3-0.2-0.5-0.5-0.5h-1.9c-0.3,0-0.5,0.2-0.5,0.5v1.1
			C11.8,7.7,12,7.9,12.3,7.9z"/>
	</defs>
	<clipPath id="SVGID_8_">
		<use xlink:href="#SVGID_7_"  overflow="visible"/>
	</clipPath>
	<rect x="10.8" y="4.9" clip-path="url(#SVGID_8_)" fill="#F5655D" width="4.8" height="4"/>
</g>
<g>
	<defs>
		<path id="SVGID_9_" d="M6.2,9.7c0-0.3-0.2-0.5-0.5-0.5H3.8c-0.3,0-0.5,0.2-0.5,0.5v1.1c0,0.3,0.2,0.5,0.5,0.5h1.9
			c0.3,0,0.5-0.2,0.5-0.5L6.2,9.7L6.2,9.7z"/>
	</defs>
	<clipPath id="SVGID_10_">
		<use xlink:href="#SVGID_9_"  overflow="visible"/>
	</clipPath>
	<rect x="2.4" y="8.3" clip-path="url(#SVGID_10_)" fill="#F5655D" width="4.8" height="4"/>
</g>
<g>
	<defs>
		<path id="SVGID_11_" d="M10.4,9.7c0-0.3-0.2-0.5-0.5-0.5H8c-0.3,0-0.5,0.2-0.5,0.5v1.1c0,0.3,0.2,0.5,0.5,0.5h1.9
			c0.3,0,0.5-0.2,0.5-0.5L10.4,9.7L10.4,9.7z"/>
	</defs>
	<clipPath id="SVGID_12_">
		<use xlink:href="#SVGID_11_"  overflow="visible"/>
	</clipPath>
	<rect x="6.6" y="8.3" clip-path="url(#SVGID_12_)" fill="#F5655D" width="4.8" height="4"/>
</g>
<g>
	<defs>
		<path id="SVGID_13_" d="M12.3,11.3h1.9c0.3,0,0.5-0.2,0.5-0.5V9.7c0-0.3-0.2-0.5-0.5-0.5h-1.9c-0.3,0-0.5,0.2-0.5,0.5v1.1
			C11.8,11.1,12,11.3,12.3,11.3z"/>
	</defs>
	<clipPath id="SVGID_14_">
		<use xlink:href="#SVGID_13_"  overflow="visible"/>
	</clipPath>
	<rect x="10.8" y="8.3" clip-path="url(#SVGID_14_)" fill="#F5655D" width="4.8" height="4"/>
</g>
<g>
	<defs>
		<path id="SVGID_15_" d="M5.7,12.6H3.8c-0.3,0-0.5,0.2-0.5,0.5v1.1c0,0.3,0.2,0.5,0.5,0.5h1.9c0.3,0,0.5-0.2,0.5-0.5v-1.1
			C6.2,12.8,6,12.6,5.7,12.6z"/>
	</defs>
	<clipPath id="SVGID_16_">
		<use xlink:href="#SVGID_15_"  overflow="visible"/>
	</clipPath>
	<rect x="2.4" y="11.6" clip-path="url(#SVGID_16_)" fill="#F5655D" width="4.8" height="4"/>
</g>
<g>
	<defs>
		<path id="SVGID_17_" d="M10,12.6H8c-0.3,0-0.5,0.2-0.5,0.5v1.1c0,0.3,0.2,0.5,0.5,0.5h1.9c0.3,0,0.5-0.2,0.5-0.5v-1.1
			C10.4,12.8,10.2,12.6,10,12.6z"/>
	</defs>
	<clipPath id="SVGID_18_">
		<use xlink:href="#SVGID_17_"  overflow="visible"/>
	</clipPath>
	<rect x="6.6" y="11.6" clip-path="url(#SVGID_18_)" fill="#F5655D" width="4.8" height="4"/>
</g>
<g>
	<defs>
		<path id="SVGID_19_" d="M12.3,14.6h1.9c0.3,0,0.5-0.2,0.5-0.5v-1.1c0-0.3-0.2-0.5-0.5-0.5h-1.9c-0.3,0-0.5,0.2-0.5,0.5v1.1
			C11.8,14.4,12,14.6,12.3,14.6z"/>
	</defs>
	<clipPath id="SVGID_20_">
		<use xlink:href="#SVGID_19_"  overflow="visible"/>
	</clipPath>
	<rect x="10.8" y="11.6" clip-path="url(#SVGID_20_)" fill="#F5655D" width="4.8" height="4"/>
</g>
<g>
	<defs>
		<path id="SVGID_21_" d="M5.3,4.1c0.5,0,0.8-0.4,0.8-0.8V2.9H11V1.2H6.1V0.8C6.1,0.4,5.8,0,5.3,0C4.8,0,4.5,0.4,4.5,0.8v2.5
			C4.5,3.8,4.8,4.1,5.3,4.1z"/>
	</defs>
	<clipPath id="SVGID_22_">
		<use xlink:href="#SVGID_21_"  overflow="visible"/>
	</clipPath>
	<rect x="3.5" y="-0.9" clip-path="url(#SVGID_22_)" fill="#F5655D" width="8.4" height="6"/>
</g>
</svg>
