<?xml version="1.0" encoding="utf-8"?>
<!-- Generator: Adobe Illustrator 20.1.0, SVG Export Plug-In . SVG Version: 6.00 Build 0)  -->
<svg version="1.1" id="Layer_1" xmlns="http://www.w3.org/2000/svg" xmlns:xlink="http://www.w3.org/1999/xlink" x="0px" y="0px"
	 width="16.5px" height="18px" viewBox="0 0 16.5 18" enable-background="new 0 0 16.5 18" xml:space="preserve">
<g>
	<defs>
		<path id="SVGID_1_" d="M1.5,4.5H15V6H1.5V4.5z M6,1.5h4.5V3H6V1.5z M13.5,15c0,0.8-0.7,1.5-1.5,1.5H4.5C3.7,16.5,3,15.8,3,15V7.5
			h10.5V15z M0,6c0,0.8,0.7,1.5,1.5,1.5V15c0,1.7,1.3,3,3,3H12c1.7,0,3-1.3,3-3V7.5c0.8,0,1.5-0.7,1.5-1.5V4.5C16.5,3.7,15.8,3,15,3
			h-3V1.5C12,0.7,11.3,0,10.5,0H6C5.2,0,4.5,0.7,4.5,1.5V3h-3C0.7,3,0,3.7,0,4.5V6z"/>
	</defs>
	<clipPath id="SVGID_2_">
		<use xlink:href="#SVGID_1_"  overflow="visible"/>
	</clipPath>
	<rect x="-0.9" y="-0.9" clip-path="url(#SVGID_2_)" fill="#ff0000" width="18.4" height="19.9"/>
</g>
<g>
	<defs>
		<path id="SVGID_3_" d="M5.3,15C5.7,15,6,14.7,6,14.3V9.8C6,9.3,5.7,9,5.3,9S4.5,9.3,4.5,9.8v4.5C4.5,14.7,4.8,15,5.3,15z"/>
	</defs>
	<clipPath id="SVGID_4_">
		<use xlink:href="#SVGID_3_"  overflow="visible"/>
	</clipPath>
	<rect x="3.6" y="8.1" clip-path="url(#SVGID_4_)" fill="#ff0000" width="3.4" height="7.9"/>
</g>
<g>
	<defs>
		<path id="SVGID_5_" d="M8.3,15C8.7,15,9,14.7,9,14.3V9.8C9,9.3,8.7,9,8.3,9S7.5,9.3,7.5,9.8v4.5C7.5,14.7,7.8,15,8.3,15z"/>
	</defs>
	<clipPath id="SVGID_6_">
		<use xlink:href="#SVGID_5_"  overflow="visible"/>
	</clipPath>
	<rect x="6.6" y="8.1" clip-path="url(#SVGID_6_)" fill="#ff0000" width="3.4" height="7.9"/>
</g>
<g>
	<defs>
		<path id="SVGID_7_" d="M11.3,15c0.4,0,0.8-0.3,0.8-0.8V9.8C12,9.3,11.7,9,11.3,9s-0.8,0.3-0.8,0.8v4.5C10.5,14.7,10.8,15,11.3,15z
			"/>
	</defs>
	<clipPath id="SVGID_8_">
		<use xlink:href="#SVGID_7_"  overflow="visible"/>
	</clipPath>
	<rect x="9.6" y="8.1" clip-path="url(#SVGID_8_)" fill="#ff0000" width="3.4" height="7.9"/>
</g>
</svg>
