<?xml version="1.0" encoding="utf-8"?>
<!-- Generator: Adobe Illustrator 22.0.0, SVG Export Plug-In . SVG Version: 6.00 Build 0)  -->
<svg version="1.1" id="Layer_1" xmlns="http://www.w3.org/2000/svg" xmlns:xlink="http://www.w3.org/1999/xlink" x="0px" y="0px"
	 width="50px" height="50px" viewBox="0 0 50 50" enable-background="new 0 0 50 50" xml:space="preserve">
<g>
	<defs>
		<path id="SVGID_1_" d="M29.2,33.2c-1,0.7-2.2,1.1-3.5,1v-8c1.2,0.3,2.3,0.7,3.4,1.3c1,0.6,1.6,1.6,1.5,2.8
			C30.7,31.5,30.2,32.5,29.2,33.2z M21.1,21.4c-0.7-0.5-1.1-1.4-1-2.3c-0.1-1,0.5-2,1.3-2.6c0.8-0.5,1.8-0.8,2.8-0.9v6.9
			C23.1,22.4,22.1,22,21.1,21.4L21.1,21.4z M33.3,30.1c0.1-1.4-0.3-2.7-1.2-3.8c-0.7-0.9-1.7-1.6-2.8-2.1c-1.2-0.4-2.4-0.8-3.6-1.1
			v-7.3c1,0.1,2,0.4,2.8,1.1c0.9,0.9,1.4,2.1,1.4,3.3l2.7-0.2c-0.1-2.2-0.8-4-2.3-5.2c-1.3-1.1-3-1.7-4.7-1.8V8.5h-1.5V13
			c-1.8,0-3.4,0.7-4.8,1.8c-1.3,1.2-2,2.9-2,4.6c-0.1,1.5,0.5,2.9,1.6,4c1,1,2.7,1.8,5.1,2.4h0.1v8.4c-1.1-0.1-2.1-0.6-3-1.2
			c-1.2-0.9-1.8-2.2-1.9-4.1l-2.6,0.3c0,2.1,0.8,4.2,2.3,5.7c1.2,1.2,3,1.9,5.2,2.1v4.5h1.6V37c2,0,3.9-0.7,5.4-2
			C32.6,33.8,33.4,32,33.3,30.1L33.3,30.1z M25,2.3C12.5,2.3,2.3,12.5,2.3,25S12.5,47.7,25,47.7S47.7,37.5,47.7,25
			C47.7,12.5,37.5,2.3,25,2.3z M25,50C11.2,50,0,38.8,0,25S11.2,0,25,0s25,11.2,25,25C50,38.8,38.8,50,25,50z"/>
	</defs>
	<clipPath id="SVGID_2_">
		<use xlink:href="#SVGID_1_"  overflow="visible"/>
	</clipPath>
	<rect x="-2.8" y="-2.8" clip-path="url(#SVGID_2_)" fill="#C1CAD4" width="55.6" height="55.6"/>
</g>
</svg>
