<?xml version="1.0" encoding="utf-8"?>
<!-- Generator: Adobe Illustrator 22.0.0, SVG Export Plug-In . SVG Version: 6.00 Build 0)  -->
<svg version="1.1" id="Layer_1" xmlns="http://www.w3.org/2000/svg" xmlns:xlink="http://www.w3.org/1999/xlink" x="0px" y="0px"
	 width="20px" height="20px" viewBox="0 0 20 20" enable-background="new 0 0 20 20" xml:space="preserve">
<g>
	<defs>
		<path id="SVGID_1_" d="M16.2,16.4C16.2,16.4,16.2,16.3,16.2,16.4c-1-0.8-2.1-1.3-3.3-1.6v-1.2c0.5-0.7,0.8-1.4,0.9-2.3
			c0.6-0.5,0.9-1.2,0.9-2c0-0.4-0.1-0.7-0.4-1c-0.1-0.1-0.3-0.2-0.4-0.3V7.1c0-0.5-0.2-1.1-0.5-1.5c-0.5-0.7-1.2-1.3-2.1-1.5V3.5
			c0-0.3-0.2-0.5-0.5-0.5H10C8.3,3,7,4.3,6.5,5.6C6.3,6,6.2,6.5,6.2,6.9l0,1.1C6.1,8.1,5.9,8.2,5.8,8.3c-0.3,0.3-0.4,0.6-0.4,1
			c0,0.8,0.4,1.5,1,2c0.1,0.8,0.4,1.5,0.9,2.2v1.2c-1.2,0.3-2.3,0.9-3.3,1.6c0,0,0,0-0.1,0c-2.6-2.5-3.4-6.4-2-9.8S6.4,1.1,10,1.1
			s6.9,2.2,8.3,5.6C19.6,10,18.8,13.9,16.2,16.4L16.2,16.4z M4.6,17.1c0.9-0.7,2-1.1,3.1-1.4C8,15.6,8.2,15.3,8.2,15v-1.6
			c0-0.2-0.1-0.4-0.2-0.5c-0.4-0.6-0.6-1.3-0.7-2c0-0.2-0.1-0.3-0.2-0.4c-0.4-0.3-0.7-0.8-0.7-1.3c0-0.1,0-0.2,0.1-0.2
			C6.6,9,6.7,9,6.8,9c0.1,0,0.3,0,0.4-0.1c0.1-0.1,0.2-0.2,0.2-0.4l0-1.5c0-0.3,0.1-0.7,0.2-1C7.9,5.1,8.8,4.1,10,4.1h0.3v0.5
			c0,0.3,0.2,0.5,0.5,0.5c0.7,0.1,1.4,0.5,1.8,1.2c0.2,0.3,0.3,0.6,0.3,0.9v1.3c0,0.3,0.2,0.5,0.5,0.5c0.1,0,0.2,0,0.2,0.1
			c0.1,0.1,0.1,0.1,0.1,0.2c0,0.5-0.3,1-0.7,1.3c-0.1,0.1-0.2,0.2-0.2,0.4c-0.1,0.7-0.3,1.4-0.8,2c-0.1,0.1-0.2,0.3-0.2,0.5V15
			c0,0.3,0.2,0.6,0.5,0.7c1.1,0.3,2.1,0.8,3,1.4C12.2,19.5,7.8,19.5,4.6,17.1z M10,0C4.5,0,0,4.5,0,10s4.5,10,10,10s10-4.5,10-10
			C20,4.5,15.5,0,10,0z"/>
	</defs>
	<clipPath id="SVGID_2_">
		<use xlink:href="#SVGID_1_"  overflow="visible"/>
	</clipPath>
	<rect x="-1.1" y="-1.1" clip-path="url(#SVGID_2_)" fill="#F5655D" width="22.2" height="22.2"/>
</g>
</svg>
