<?xml version="1.0" encoding="utf-8"?>
<!-- Generator: Adobe Illustrator 22.0.0, SVG Export Plug-In . SVG Version: 6.00 Build 0)  -->
<svg version="1.1" id="Layer_1" xmlns="http://www.w3.org/2000/svg" xmlns:xlink="http://www.w3.org/1999/xlink" x="0px" y="0px"
	 width="50.3px" height="47.9px" viewBox="0 0 50.3 47.9" enable-background="new 0 0 50.3 47.9" xml:space="preserve">
<g>
	<defs>
		<path id="SVGID_1_" d="M22.8,28c3.1,6.3,8,13.4,15.7,13.2l0.9-0.2L22.8,28z M37.3,43.4l-14.2,4.3c-0.9,0.3-1.4-1.2-0.5-1.5
			L34,42.8c-7.4-2.5-11.9-10.6-14.8-17.3c-0.5-1.4,1.5-2.2,2-0.9l0.2,0.3l19.9,15.6l6.3-2c0.2-0.2,0.5-0.3,0.8-0.5
			c1.2-0.8,2.3,1.1,1.1,1.8c-1.4,0.8-2.6,1.5-4,2c-0.5,0.3-1.1,0.5-1.5,0.6l4.6,3.7c0.8,0.6-0.2,1.8-0.9,1.2l-5.5-4.3
			C40.4,43.4,38.8,43.6,37.3,43.4z"/>
	</defs>
	<clipPath id="SVGID_2_">
		<use xlink:href="#SVGID_1_"  overflow="visible"/>
	</clipPath>
	<rect x="18.4" y="23.2" clip-path="url(#SVGID_2_)" fill="#ABABAB" width="32.4" height="25.3"/>
</g>
<g>
	<defs>
		<path id="SVGID_3_" d="M25.4,22c-1.2-4.8-8.5-7.4-12.5-4.3C15.1,11.2,19.1,6.3,25.1,3C27.9,9.1,27.3,15.8,25.4,22z M26.2,2.6
			c9.9,4,14.9,14.6,12,24.5c-0.8-5.2-7.9-7.9-11.7-4.6C28.3,16,29.1,8.9,26.2,2.6z M24.8,17.7c0.8-4,0.9-8.3-0.5-12.2
			c-3.7,2.3-6.5,5.4-8.3,9.2C19.1,14.4,22.5,15.5,24.8,17.7z M29.1,6.1c1.1,4.3,0.8,8.9-0.2,13.4c2.9-0.6,6.2,0.5,8.3,2.6
			C37.6,15.7,34.5,9.7,29.1,6.1z M11.7,13.4c2-4.2,4.8-7.7,8.5-10.5C13.9,2.4,7.5,5.1,3.7,10.1C6.6,10,9.7,11.2,11.7,13.4z M0,13.5
			C3.9,4,14.6-1,24.7,2.1C18.3,5.4,14.3,10.6,12,17.2C10.8,12.3,3.7,10,0,13.5z"/>
	</defs>
	<clipPath id="SVGID_4_">
		<use xlink:href="#SVGID_3_"  overflow="visible"/>
	</clipPath>
	<rect x="-0.8" y="0.4" clip-path="url(#SVGID_4_)" fill="#ABABAB" width="40.6" height="27.4"/>
</g>
<g>
	<defs>
		<path id="SVGID_5_" d="M21.1,18l-9.2,25.7c-0.5,1.4-2.6,0.6-2.2-0.8L19,17.2C19.7,17.4,20.5,17.7,21.1,18z M27.1,1.5l-0.3,0.6
			C26,2,25.4,1.7,24.7,1.4L25,0.7C25.4-0.6,27.6,0.1,27.1,1.5z"/>
	</defs>
	<clipPath id="SVGID_6_">
		<use xlink:href="#SVGID_5_"  overflow="visible"/>
	</clipPath>
	<rect x="8.9" y="-0.8" clip-path="url(#SVGID_6_)" fill="#ABABAB" width="19.1" height="46"/>
</g>
</svg>
