<?xml version="1.0" encoding="utf-8"?>
<!-- Generator: Adobe Illustrator 22.0.0, SVG Export Plug-In . SVG Version: 6.00 Build 0)  -->
<svg version="1.1" id="Layer_1" xmlns="http://www.w3.org/2000/svg" xmlns:xlink="http://www.w3.org/1999/xlink" x="0px" y="0px"
	 width="36px" height="41.8px" viewBox="0 0 36 41.8" enable-background="new 0 0 36 41.8" xml:space="preserve">
<g>
	<defs>
		<path id="SVGID_1_" d="M27.4,2.5l6.2,6.2h-6.2V2.5z M35.8,8.9l-8.6-8.6C27.1,0.1,26.9,0,26.7,0h-21C4.2,0,2.9,1.2,2.9,2.8v13.8
			c0,0.4,0.3,0.7,0.7,0.7c0.4,0,0.7-0.3,0.7-0.7V2.8C4.4,2,5,1.4,5.7,1.4H26v7.9c0,0.4,0.3,0.7,0.7,0.7h7.9V39
			c0,0.7-0.6,1.3-1.3,1.3H5.7c-0.7,0-1.3-0.6-1.3-1.3v-3.7c0-0.4-0.3-0.7-0.7-0.7c-0.4,0-0.7,0.3-0.7,0.7V39c0,1.5,1.2,2.8,2.8,2.8
			h27.6c1.5,0,2.8-1.2,2.8-2.8V9.4C36,9.2,36,9,35.8,8.9z"/>
	</defs>
	<clipPath id="SVGID_2_">
		<use xlink:href="#SVGID_1_"  overflow="visible"/>
	</clipPath>
	<rect x="-4.3" y="-7.2" clip-path="url(#SVGID_2_)" fill="#2357EB" width="47.5" height="56.2"/>
</g>
<g>
	<defs>
		<path id="SVGID_3_" d="M5.8,23.4H4.5v5.1h1.4c0.7,0,1.5-0.2,2-0.6c0.5-0.5,0.8-1.2,0.7-1.9C8.7,24.2,7.7,23.4,5.8,23.4z"/>
	</defs>
	<clipPath id="SVGID_4_">
		<use xlink:href="#SVGID_3_"  overflow="visible"/>
	</clipPath>
	<rect x="-2.7" y="16.2" clip-path="url(#SVGID_4_)" fill="#2357EB" width="18.6" height="19.5"/>
</g>
<g>
	<defs>
		<path id="SVGID_5_" d="M15.2,23.2c-0.7,0-1.4,0.3-1.9,0.8c-1,1.1-1,2.8,0,3.9c0.5,0.5,1.2,0.8,1.9,0.8c0.7,0,1.4-0.3,1.9-0.8
			c1-1.1,1-2.8,0-3.9C16.6,23.5,15.9,23.2,15.2,23.2z"/>
	</defs>
	<clipPath id="SVGID_6_">
		<use xlink:href="#SVGID_5_"  overflow="visible"/>
	</clipPath>
	<rect x="5.3" y="16" clip-path="url(#SVGID_6_)" fill="#2357EB" width="19.7" height="19.8"/>
</g>
<g>
	<defs>
		<path id="SVGID_7_" d="M22.2,27.8c0.5,0.5,1.1,0.8,1.8,0.8c0.4,0,0.8-0.1,1.1-0.2c0.4-0.2,0.7-0.4,1-0.7l0.8,0.8
			c-0.7,0.8-1.8,1.3-2.9,1.3c-1.1,0.1-2.1-0.3-2.9-1.1c-1.5-1.5-1.5-4,0-5.6C22,22.4,23,22,24.1,22c1.1,0,2.2,0.5,2.9,1.3l-0.8,0.9
			c-0.3-0.3-0.6-0.5-1-0.7c-1-0.4-2.2-0.2-3,0.5c-0.5,0.5-0.8,1.2-0.8,1.9C21.4,26.6,21.7,27.3,22.2,27.8L22.2,27.8z M17.9,28.7
			c-0.8,0.8-1.8,1.2-2.9,1.1c-1.1,0-2.1-0.4-2.9-1.1c-1.5-1.5-1.5-4,0-5.5c1.6-1.5,4-1.5,5.6,0c1.5,1.5,1.5,4,0,5.5H17.9z M8.9,28.7
			c-0.9,0.7-2,1.1-3.2,1H3.2v-7.5h2.6c1.1-0.1,2.2,0.3,3.1,1c0.7,0.7,1.1,1.7,1.1,2.7C10,27,9.6,28,8.9,28.7z M30.3,30.8v-9.7
			c0-0.6-0.2-1.2-0.7-1.7c-0.4-0.4-1-0.7-1.7-0.7H2.4c-0.6,0-1.2,0.2-1.7,0.7c-0.4,0.4-0.7,1-0.7,1.7v9.7c0,0.6,0.2,1.2,0.7,1.7
			c0.4,0.4,1,0.7,1.7,0.7h25.6c0.6,0,1.2-0.2,1.7-0.7C30,32,30.3,31.4,30.3,30.8z"/>
	</defs>
	<clipPath id="SVGID_8_">
		<use xlink:href="#SVGID_7_"  overflow="visible"/>
	</clipPath>
	<rect x="-7.2" y="11.5" clip-path="url(#SVGID_8_)" fill="#2357EB" width="44.6" height="28.8"/>
</g>
</svg>
