<?xml version="1.0" encoding="utf-8"?>
<!-- Generator: Adobe Illustrator 22.0.0, SVG Export Plug-In . SVG Version: 6.00 Build 0)  -->
<svg version="1.1" id="Layer_1" xmlns="http://www.w3.org/2000/svg" xmlns:xlink="http://www.w3.org/1999/xlink" x="0px" y="0px"
	 width="28px" height="19.7px" viewBox="0 0 28 19.7" enable-background="new 0 0 28 19.7" xml:space="preserve">
<g>
	<defs>
		<path id="SVGID_1_" d="M20.6,18.5h-4.2v-5.4h2.9c0.2,0,0.5-0.1,0.6-0.4c0.1-0.2,0-0.5-0.1-0.7l-5.3-5.3c-0.1-0.1-0.3-0.2-0.4-0.2
			c-0.2,0-0.3,0.1-0.4,0.2l-5.3,5.3c-0.2,0.2-0.2,0.4-0.1,0.7c0.1,0.2,0.3,0.4,0.6,0.4h2.9v5.4H7.4c-3.3,0-6-2.7-6-6s2.7-6,6-6
			c0.2,0.1,0.3,0.1,0.5,0C8,6.4,8.1,6.3,8.2,6.1c0.6-2.8,3-4.8,5.9-4.8c2.9,0,5.3,2,5.9,4.8c0,0.2,0.1,0.3,0.3,0.4
			c0.1,0.1,0.3,0.1,0.5,0c3.3,0,6,2.7,6,6S24,18.5,20.6,18.5L20.6,18.5z M21,5.3C20.1,2.2,17.3,0,14,0c-3.2,0-6.1,2.2-7,5.3
			c-4,0.1-7.2,3.4-7.1,7.4s3.4,7.2,7.4,7.1h4.8c0.3,0,0.6-0.3,0.6-0.6v-6.6c0-0.3-0.3-0.6-0.6-0.6h-2L14,8.1l3.8,3.8h-2.1
			c-0.3,0-0.6,0.3-0.6,0.6v6.6c0,0.3,0.3,0.6,0.6,0.6h4.8c4,0.1,7.3-3.1,7.4-7.1S24.9,5.4,21,5.3L21,5.3z"/>
	</defs>
	<clipPath id="SVGID_2_">
		<use xlink:href="#SVGID_1_"  overflow="visible"/>
	</clipPath>
	<rect x="-6" y="-6" clip-path="url(#SVGID_2_)" fill="#F5655D" width="40" height="31.8"/>
</g>
</svg>
