<?xml version="1.0" encoding="utf-8"?>
<!-- Generator: Adobe Illustrator 22.0.0, SVG Export Plug-In . SVG Version: 6.00 Build 0)  -->
<svg version="1.1" id="Layer_1" xmlns="http://www.w3.org/2000/svg" xmlns:xlink="http://www.w3.org/1999/xlink" x="0px" y="0px"
	 width="50px" height="50px" viewBox="0 0 50 50" enable-background="new 0 0 50 50" xml:space="preserve">
<g>
	<defs>
		<path id="SVGID_1_" d="M40.6,40.9c0,0-0.1-0.1-0.1-0.1c-2.4-1.8-5.2-3.1-8.1-4v-3c1.2-1.7,1.9-3.6,2.2-5.6c1.5-1.3,2.3-3.1,2.3-5
			c0-0.9-0.4-1.8-1-2.5c-0.3-0.3-0.7-0.6-1.1-0.8v-2.2c0-1.4-0.4-2.7-1.2-3.8c-1.3-1.8-3.1-3.1-5.3-3.8V8.9c0-0.7-0.6-1.3-1.3-1.3
			h-2c-4.2,0-7.4,3.3-8.7,6.4c-0.4,1.1-0.7,2.2-0.7,3.4l0,2.7c-0.4,0.2-0.8,0.4-1.2,0.7c-0.7,0.7-1.1,1.6-1.1,2.5
			c0,2,0.9,3.8,2.4,5.1c0.3,2,1,3.8,2.2,5.5v3.1c-3,0.8-5.8,2.2-8.3,4c0,0-0.1,0.1-0.1,0.1c-6.5-6.3-8.5-16-5.1-24.4
			S15.9,2.7,25,2.7s17.3,5.5,20.7,13.9C49.1,25,47.1,34.7,40.6,40.9L40.6,40.9z M11.5,42.7c2.3-1.6,4.9-2.8,7.7-3.5
			c0.8-0.2,1.3-0.9,1.3-1.7v-3.9c0-0.5-0.1-0.9-0.4-1.3c-1-1.5-1.6-3.1-1.8-4.9c0-0.4-0.2-0.7-0.5-0.9c-1.1-0.7-1.7-2-1.7-3.3
			c0-0.2,0.1-0.4,0.2-0.6c0.2-0.2,0.4-0.2,0.6-0.2c0.4,0,0.7-0.1,1-0.4c0.3-0.3,0.4-0.6,0.4-1l0-3.8c0-0.8,0.1-1.7,0.5-2.4
			c0.9-2.3,3.3-4.7,6.2-4.7h0.7v1.2c0,0.7,0.5,1.3,1.2,1.3c1.9,0.3,3.5,1.3,4.6,2.9c0.4,0.6,0.7,1.4,0.7,2.2V21
			c0,0.7,0.6,1.3,1.3,1.3c0.2,0,0.4,0.1,0.6,0.2c0.1,0.1,0.2,0.3,0.2,0.5c0,1.3-0.6,2.5-1.7,3.2c-0.3,0.2-0.5,0.6-0.5,0.9
			c-0.2,1.8-0.8,3.5-1.9,5c-0.3,0.4-0.4,0.8-0.4,1.3v3.9c0,0.8,0.5,1.5,1.3,1.7c2.7,0.7,5.2,1.9,7.5,3.5
			C30.5,48.8,19.5,48.8,11.5,42.7z M25,0C11.2,0,0,11.2,0,25s11.2,25,25,25s25-11.2,25-25C50,11.2,38.8,0,25,0z"/>
	</defs>
	<clipPath id="SVGID_2_">
		<use xlink:href="#SVGID_1_"  overflow="visible"/>
	</clipPath>
	<rect x="-2.7" y="-2.7" clip-path="url(#SVGID_2_)" fill="#C1CAD4" width="55.4" height="55.4"/>
</g>
</svg>
