<?xml version="1.0" encoding="utf-8"?>
<!-- Generator: Adobe Illustrator 20.1.0, SVG Export Plug-In . SVG Version: 6.00 Build 0)  -->
<svg version="1.1" id="Layer_1" xmlns="http://www.w3.org/2000/svg" xmlns:xlink="http://www.w3.org/1999/xlink" x="0px" y="0px"
	 width="17.8px" height="16px" viewBox="0 0 17.8 16" enable-background="new 0 0 17.8 16" xml:space="preserve">
<g>
	<defs>
		<path id="SVGID_1_" d="M6.5,0c1,0,2,0.2,3,0.6c0.9,0.4,1.8,1.1,2.4,1.9c0.5,0.6,0.9,1.3,1.2,2.1h0.3c1,0,2,0.3,2.8,1
			C16.8,6.1,17.4,7,17.6,8c0.2,1,0.2,2-0.2,3c-0.4,0.9-1.1,1.7-2,2.2c-0.4,0.2-1,0.1-1.2-0.3c-0.2-0.4-0.1-1,0.3-1.2
			c0.5-0.3,1-0.8,1.2-1.4c0.2-0.6,0.3-1.2,0.1-1.9c-0.2-0.6-0.5-1.2-1-1.6c-0.5-0.4-1.1-0.6-1.7-0.6h-0.9c-0.4,0-0.8-0.3-0.9-0.7
			c-0.2-0.8-0.5-1.4-1-2C10,3,9.4,2.5,8.7,2.2C8,1.9,7.3,1.8,6.5,1.8C5.8,1.8,5.1,2,4.4,2.4C3.7,2.7,3.2,3.2,2.7,3.9
			C2.3,4.5,2,5.2,1.9,6C1.7,6.7,1.8,7.5,2,8.3C2.2,9,2.5,9.7,3,10.3c0.3,0.4,0.3,0.9-0.1,1.3c-0.4,0.3-0.9,0.3-1.3-0.1
			C1,10.7,0.5,9.7,0.2,8.7C0,7.7-0.1,6.7,0.1,5.7c0.2-1,0.6-2,1.2-2.8c0.6-0.8,1.4-1.5,2.3-2C4.4,0.3,5.4,0,6.5,0z"/>
	</defs>
	<clipPath id="SVGID_2_">
		<use xlink:href="#SVGID_1_"  overflow="visible"/>
	</clipPath>
	<rect x="-4.4" y="-4.4" clip-path="url(#SVGID_2_)" fill="#AEAEAE" width="26.7" height="22.2"/>
</g>
<g>
	<defs>
		<path id="SVGID_3_" d="M9.5,8.3c-0.3-0.3-0.9-0.3-1.3,0L5,11.6l1.3,1.3L8,11v5h1.8v-5l1.8,1.8l1.3-1.3L9.5,8.3z"/>
	</defs>
	<clipPath id="SVGID_4_">
		<use xlink:href="#SVGID_3_"  overflow="visible"/>
	</clipPath>
	<rect x="0.5" y="3.6" clip-path="url(#SVGID_4_)" fill="#AEAEAE" width="16.7" height="16.9"/>
</g>
</svg>
