<?xml version="1.0" encoding="utf-8"?>
<!-- Generator: Adobe Illustrator 20.1.0, SVG Export Plug-In . SVG Version: 6.00 Build 0)  -->
<svg version="1.1" id="Layer_1" xmlns="http://www.w3.org/2000/svg" xmlns:xlink="http://www.w3.org/1999/xlink" x="0px" y="0px"
	 width="15px" height="15.9px" viewBox="0 0 15 15.9" enable-background="new 0 0 15 15.9" xml:space="preserve">
<g>
	<defs>
		<path id="SVGID_1_" d="M13.3,1.3L8.3,7.8C8.2,7.9,8.2,8.1,8.2,8.2V14l-1.4-0.9V8.3c0-0.2,0-0.3-0.1-0.4l-5-6.5H13.3z M0.2,1.5
			l5.3,7v5.1c0,0.2,0.1,0.4,0.3,0.6l2.7,1.7c0.1,0.1,0.2,0.1,0.4,0.1c0.1,0,0.2,0,0.3-0.1c0.2-0.1,0.3-0.3,0.3-0.6V8.5l5.3-7
			c0,0,0,0,0,0c0.2-0.3,0.2-0.6,0-0.9C14.7,0.2,14.4,0,14.1,0H0.9C0.6,0,0.3,0.2,0.1,0.5C0,0.8,0,1.1,0.2,1.5
			C0.2,1.4,0.2,1.5,0.2,1.5z"/>
	</defs>
	<use xlink:href="#SVGID_1_"  overflow="visible" fill="#ff443c"/>
	<clipPath id="SVGID_2_">
		<use xlink:href="#SVGID_1_"  overflow="visible"/>
	</clipPath>
	<rect x="-1.1" y="-1.1" clip-path="url(#SVGID_2_)" fill="#ff443c" width="17.2" height="18.1"/>
</g>
</svg>
