<?xml version="1.0" encoding="utf-8"?>
<!-- Generator: Adobe Illustrator 20.1.0, SVG Export Plug-In . SVG Version: 6.00 Build 0)  -->
<svg version="1.1" id="Layer_1" xmlns="http://www.w3.org/2000/svg" xmlns:xlink="http://www.w3.org/1999/xlink" x="0px" y="0px"
	 width="11.2px" height="16px" viewBox="0 0 11.2 16" enable-background="new 0 0 11.2 16" xml:space="preserve">
<g>
	<defs>
		<path id="SVGID_1_" d="M5.6,8C4.1,8,2.9,6.8,2.9,5.3s1.2-2.7,2.7-2.7s2.7,1.2,2.7,2.7C8.3,6,8,6.7,7.5,7.2C7,7.7,6.3,8,5.6,8z
			 M5.6,0C2.5,0,0,2.5,0,5.6C0,10.8,5.6,16,5.6,16s5.6-5.2,5.6-10.4C11.2,2.5,8.7,0,5.6,0z"/>
	</defs>
	<clipPath id="SVGID_2_">
		<use xlink:href="#SVGID_1_"  overflow="visible"/>
	</clipPath>
	<rect x="-3.3" y="-3.3" clip-path="url(#SVGID_2_)" fill="#F5635B" width="17.9" height="22.7"/>
</g>
</svg>
