<?xml version="1.0" encoding="utf-8"?>
<!-- Generator: Adobe Illustrator 22.0.0, SVG Export Plug-In . SVG Version: 6.00 Build 0)  -->
<svg version="1.1" id="Layer_1" xmlns="http://www.w3.org/2000/svg" xmlns:xlink="http://www.w3.org/1999/xlink" x="0px" y="0px"
	 width="20px" height="20px" viewBox="0 0 20 20" enable-background="new 0 0 20 20" xml:space="preserve">
<g>
	<defs>
		<path id="SVGID_1_" d="M11.7,13.3c-0.4,0.3-0.9,0.4-1.4,0.4v-3.2c0.5,0.1,0.9,0.3,1.4,0.5c0.4,0.2,0.6,0.7,0.6,1.1
			C12.3,12.6,12.1,13,11.7,13.3z M8.4,8.6C8.2,8.4,8,8,8,7.7c0-0.4,0.2-0.8,0.5-1c0.3-0.2,0.7-0.3,1.1-0.3v2.8
			C9.2,9,8.8,8.8,8.4,8.6L8.4,8.6z M13.3,12c0-0.5-0.1-1.1-0.5-1.5c-0.3-0.4-0.7-0.7-1.1-0.8c-0.5-0.2-0.9-0.3-1.4-0.4V6.3
			c0.4,0,0.8,0.2,1.1,0.4C11.8,7.1,12,7.6,12,8.1L13.1,8c0-0.9-0.3-1.6-0.9-2.1c-0.5-0.4-1.2-0.7-1.9-0.7V3.4H9.7v1.8
			C9,5.2,8.3,5.4,7.8,5.9C7.3,6.4,7,7.1,7,7.8c0,0.6,0.2,1.2,0.6,1.6c0.4,0.4,1.1,0.7,2,1h0v3.4c-0.4-0.1-0.8-0.2-1.2-0.5
			c-0.5-0.3-0.7-0.9-0.8-1.6l-1,0.1c0,0.9,0.3,1.7,0.9,2.3c0.5,0.5,1.2,0.8,2.1,0.9v1.8h0.6v-1.8c0.8,0,1.6-0.3,2.2-0.8
			C13,13.5,13.4,12.8,13.3,12L13.3,12z M10,0.9C5,0.9,0.9,5,0.9,10S5,19.1,10,19.1s9.1-4.1,9.1-9.1C19.1,5,15,0.9,10,0.9z M10,20
			C4.5,20,0,15.5,0,10S4.5,0,10,0s10,4.5,10,10C20,15.5,15.5,20,10,20z"/>
	</defs>
	<clipPath id="SVGID_2_">
		<use xlink:href="#SVGID_1_"  overflow="visible"/>
	</clipPath>
	<rect x="-1.1" y="-1.1" clip-path="url(#SVGID_2_)" fill="#F5655D" width="22.2" height="22.2"/>
</g>
</svg>
