<?xml version="1.0" encoding="utf-8"?>
<!-- Generator: Adobe Illustrator 20.1.0, SVG Export Plug-In . SVG Version: 6.00 Build 0)  -->
<svg version="1.1" id="Layer_1" xmlns="http://www.w3.org/2000/svg" xmlns:xlink="http://www.w3.org/1999/xlink" x="0px" y="0px"
	 width="22px" height="22.5px" viewBox="0 0 22 22.5" enable-background="new 0 0 22 22.5" xml:space="preserve">
<g>
	<defs>
		<path id="SVGID_1_" d="M2.6,19.8L2.6,19.8c1,1,2.4,1.5,3.7,1.5h0c1.4,0,2.7-0.6,3.7-1.6l9.3-9.7c2-2.1,1.9-5.3-0.1-7.3l-1-0.9
			c-0.5-0.5-1.3-0.5-1.8,0l-2.7,2.8c-0.5,0.5-0.5,1.3,0,1.8l0.5,0.5c0.2,0.2,0.3,0.4,0.4,0.6c0.1,0.5,0,0.9-0.3,1.3l-5.7,5.9
			c-0.3,0.3-0.8,0.5-1.3,0.4c-0.2,0-0.5-0.2-0.6-0.3l-0.5-0.5c-0.2-0.2-0.6-0.4-0.9-0.4c-0.3,0-0.7,0.1-0.9,0.4l-2.7,2.9
			c-0.2,0.2-0.4,0.6-0.4,0.9c0,0.3,0.1,0.7,0.4,0.9L2.6,19.8z M6.2,22.5c-1.6,0-3.2-0.6-4.4-1.7l-0.1-0.1l-0.9-0.9
			C0.3,19.3,0,18.7,0,18c0-0.7,0.2-1.3,0.7-1.8l2.7-2.8c0.5-0.5,1.1-0.8,1.8-0.8c0.7,0,1.3,0.2,1.8,0.7l0.5,0.5c0.1,0,0.1,0,0.1,0
			l5.6-5.9c0,0,0,0,0-0.1l-0.5-0.5C12.3,6.8,12,6.1,12,5.5c0-0.7,0.2-1.3,0.7-1.8l2.7-2.8C15.9,0.3,16.6,0,17.2,0
			c0.7,0,1.3,0.2,1.8,0.7l1,1c2.5,2.5,2.6,6.5,0.1,9.1l-9.3,9.7c-1.2,1.2-2.8,2-4.5,2L6.2,22.5L6.2,22.5z"/>
	</defs>
	<clipPath id="SVGID_2_">
		<use xlink:href="#SVGID_1_"  overflow="visible"/>
	</clipPath>
	<rect x="-1.8" y="-1.8" clip-path="url(#SVGID_2_)" fill="#F5635B" width="25.6" height="26.1"/>
</g>
</svg>
