<?xml version="1.0" encoding="utf-8"?>
<!-- Generator: Adobe Illustrator 22.0.0, SVG Export Plug-In . SVG Version: 6.00 Build 0)  -->
<svg version="1.1" id="Layer_1" xmlns="http://www.w3.org/2000/svg" xmlns:xlink="http://www.w3.org/1999/xlink" x="0px" y="0px"
	 width="17.8px" height="18px" viewBox="0 0 17.8 18" enable-background="new 0 0 17.8 18" xml:space="preserve">
<g>
	<defs>
		<path id="SVGID_1_" d="M15,10.2c-0.5,0-0.9-0.3-1.1-0.7c-0.2-0.4-0.1-1,0.3-1.3c0.3-0.3,0.9-0.4,1.3-0.3c0.4,0.2,0.7,0.6,0.7,1.1
			C16.2,9.6,15.7,10.2,15,10.2z M11.4,13.6c-0.5-0.9-1.4-1.4-2.4-1.4s-1.9,0.5-2.4,1.4c-0.9-0.5-1.7-1.3-2.2-2.2
			C5.3,10.9,5.8,10,5.8,9S5.3,7.1,4.4,6.6c0.5-0.9,1.3-1.7,2.2-2.2C7.1,5.3,8,5.8,9,5.8s1.9-0.5,2.4-1.4c0.9,0.5,1.7,1.3,2.2,2.2
			C12.8,7.1,12.2,8,12.2,9s0.5,1.9,1.4,2.4C13.1,12.3,12.3,13.1,11.4,13.6z M9,16.2c-0.5,0-0.9-0.3-1.1-0.7c-0.2-0.4-0.1-1,0.3-1.3
			c0.3-0.3,0.9-0.4,1.3-0.3c0.4,0.2,0.7,0.6,0.7,1.1C10.2,15.6,9.7,16.2,9,16.2z M1.8,9c0-0.7,0.5-1.2,1.2-1.2S4.2,8.3,4.2,9
			S3.7,10.2,3,10.2S1.8,9.6,1.8,9z M9,1.8c0.7,0,1.2,0.5,1.2,1.2c0,0.1,0,0.1,0,0.2c-0.1,0.6-0.7,1.1-1.3,1C8.3,4.1,7.8,3.6,7.8,2.9
			C7.9,2.3,8.4,1.8,9,1.8z M17.8,9c0-1.5-1.1-2.7-2.6-2.8c-0.7-1.5-1.9-2.7-3.4-3.4C11.8,1.3,10.5,0,9,0C7.5,0,6.2,1.3,6.2,2.8
			C4.7,3.5,3.5,4.7,2.8,6.2C1.3,6.2,0,7.5,0,9c0,1.5,1.3,2.8,2.8,2.8c0.7,1.5,1.9,2.7,3.4,3.4C6.2,16.7,7.5,18,9,18
			c1.5,0,2.8-1.3,2.8-2.8c1.5-0.7,2.7-1.9,3.4-3.4C16.7,11.7,17.8,10.5,17.8,9z"/>
	</defs>
	<clipPath id="SVGID_2_">
		<use xlink:href="#SVGID_1_"  overflow="visible"/>
	</clipPath>
	<rect x="-4" y="-4" clip-path="url(#SVGID_2_)" fill="#07286F" width="25.8" height="26"/>
</g>
</svg>
