<?xml version="1.0" encoding="utf-8"?>
<!-- Generator: Adobe Illustrator 20.1.0, SVG Export Plug-In . SVG Version: 6.00 Build 0)  -->
<svg version="1.1" id="Layer_1" xmlns="http://www.w3.org/2000/svg" xmlns:xlink="http://www.w3.org/1999/xlink" x="0px" y="0px"
	 width="22px" height="15.7px" viewBox="0 0 22 15.7" enable-background="new 0 0 22 15.7" xml:space="preserve">
<g>
	<defs>
		<path id="SVGID_1_" d="M1.6,2.9l7.8,7.2c0.9,0.8,2.3,0.8,3.2,0l7.8-7.2v10.5c0,0.4-0.3,0.8-0.8,0.8H2.4c-0.4,0-0.8-0.3-0.8-0.8
			V2.9z M2.5,1.6h17l-8,7.4c-0.4,0.3-0.7,0.3-1.1,0L2.5,1.6z M2.4,0C1.1,0,0,1.1,0,2.4v11c0,1.3,1.1,2.4,2.4,2.4h17.3
			c1.3,0,2.4-1.1,2.4-2.4v-11C22,1.1,20.9,0,19.6,0H2.4z"/>
	</defs>
	<clipPath id="SVGID_2_">
		<use xlink:href="#SVGID_1_"  overflow="visible"/>
	</clipPath>
	<rect x="-1.3" y="-1.3" clip-path="url(#SVGID_2_)" fill="#F5635B" width="24.6" height="18.3"/>
</g>
</svg>
