<?xml version="1.0" encoding="utf-8"?>
<!-- Generator: Adobe Illustrator 20.1.0, SVG Export Plug-In . SVG Version: 6.00 Build 0)  -->
<svg version="1.1" id="Layer_1" xmlns="http://www.w3.org/2000/svg" xmlns:xlink="http://www.w3.org/1999/xlink" x="0px" y="0px"
	 width="20px" height="14.8px" viewBox="0 0 20 14.8" enable-background="new 0 0 20 14.8" xml:space="preserve">
<g>
	<defs>
		<path id="SVGID_1_" d="M3.1,10.8c-0.2,0-0.4,0.1-0.6,0.3c-0.1,0.2-0.1,0.4,0,0.6C2.7,11.9,2.9,12,3.1,12H5c0.2,0,0.4-0.1,0.6-0.3
			c0.1-0.2,0.1-0.4,0-0.6c-0.1-0.2-0.3-0.3-0.6-0.3H3.1z M3,8.9c-0.3,0-0.6,0.3-0.6,0.7c0,0.3,0.3,0.6,0.6,0.6h4.4
			c0.2,0,0.4-0.1,0.6-0.3c0.1-0.2,0.1-0.4,0-0.6C7.9,9,7.7,8.9,7.5,8.9H3C3.1,8.9,3.1,8.9,3,8.9z M1.3,7.2h17.5v5.4c0,0.6-0.4,1-1,1
			H2.2c-0.6,0-1-0.4-1-1V7.2z M1.3,4.7h17.5v1.2H1.3V4.7z M2.2,1.3h15.5c0.6,0,1,0.4,1,1v1.2H1.3V2.2C1.3,1.7,1.7,1.3,2.2,1.3z
			 M2.2,0C1,0,0,1,0,2.2v1.9v2.4v6c0,1.2,1,2.2,2.2,2.2h15.5c1.2,0,2.2-1,2.2-2.2v-6V4.1V2.2C20,1,19,0,17.8,0H2.2z"/>
	</defs>
	<clipPath id="SVGID_2_">
		<use xlink:href="#SVGID_1_"  overflow="visible"/>
	</clipPath>
	<rect x="-11.8" y="-11.8" clip-path="url(#SVGID_2_)" fill="#F5635B" width="43.6" height="38.4"/>
</g>
</svg>
