<?xml version="1.0" encoding="utf-8"?>
<!-- Generator: Adobe Illustrator 20.1.0, SVG Export Plug-In . SVG Version: 6.00 Build 0)  -->
<svg version="1.1" id="Layer_1" xmlns="http://www.w3.org/2000/svg" xmlns:xlink="http://www.w3.org/1999/xlink" x="0px" y="0px"
	 width="44px" height="35.2px" viewBox="0 0 44 35.2" enable-background="new 0 0 44 35.2" xml:space="preserve">
<g>
	<defs>
		<path id="SVGID_1_" d="M32,19c0.4,0,0.8,0.3,1,0.7c0.2,0.4,0.1,0.9-0.2,1.2c-0.3,0.3-0.8,0.4-1.2,0.2c-0.4-0.2-0.7-0.6-0.7-1
			C30.9,19.5,31.4,19,32,19z M36.2,32.6H6.5c-2.2,0-3.9-1.7-3.9-3.9V6.5c0-2.2,1.7-3.9,3.9-3.9h29.7c2.1,0,3.8,1.7,3.9,3.8
			c-1.1-0.8-2.5-1.3-3.9-1.3H7.5c-0.7,0-1.3,0.6-1.3,1.3s0.6,1.3,1.3,1.3h28.7c2.1,0,3.9,1.7,3.9,3.9v3.7h-8.5
			c-2.7,0-4.8,2.2-4.8,4.9S29,25,31.7,25h8.5v3.7c0,1-0.4,2-1.1,2.8C38.2,32.2,37.3,32.6,36.2,32.6z M41.4,17.9v4.5h-9.7
			c-1.2,0-2.2-1-2.2-2.3c0-1.2,1-2.2,2.2-2.3L41.4,17.9z M42.7,15.3v-2.4c0,0,0,0,0,0v-1.3c0,0,0-0.1,0-0.1v-5
			c0-3.6-2.9-6.5-6.5-6.5H6.5C2.9,0,0,2.9,0,6.5v22.2c0,3.6,2.9,6.5,6.5,6.5h29.7c3.6,0,6.5-2.9,6.5-6.5V25c0.7,0,1.3-0.6,1.3-1.3
			v-7.1C44,15.8,43.4,15.3,42.7,15.3z"/>
	</defs>
	<clipPath id="SVGID_2_">
		<use xlink:href="#SVGID_1_"  overflow="visible"/>
	</clipPath>
	<rect x="-4.3" y="-4.3" clip-path="url(#SVGID_2_)" fill="#F5635B" width="52.7" height="43.8"/>
</g>
</svg>
