<?xml version="1.0" encoding="utf-8"?>
<!-- Generator: Adobe Illustrator 22.0.0, SVG Export Plug-In . SVG Version: 6.00 Build 0)  -->
<svg version="1.1" id="Layer_1" xmlns="http://www.w3.org/2000/svg" xmlns:xlink="http://www.w3.org/1999/xlink" x="0px" y="0px"
	 width="23px" height="23.1px" viewBox="0 0 23 23.1" enable-background="new 0 0 23 23.1" xml:space="preserve">
<g>
	<defs>
		<path id="SVGID_1_" d="M14.7,21.5c0.9-0.9,1.6-2.1,2.2-3.5h2.9C18.5,19.6,16.7,20.9,14.7,21.5z M12,22v-4h3.8
			C14.8,20.2,13.5,21.7,12,22z M11,5H7.2c0.9-2.2,2.3-3.7,3.8-4V5z M11,11H6c0-1.8,0.3-3.5,0.8-5H11V11z M11,17H6.8
			C6.3,15.5,6,13.8,6,12h5V17z M11,22c-1.5-0.3-2.9-1.8-3.8-4H11V22z M3.2,18h2.9c0.6,1.5,1.3,2.7,2.2,3.5C6.2,20.9,4.5,19.6,3.2,18
			z M1,12h4c0,1.8,0.3,3.5,0.8,5H2.5C1.6,15.5,1,13.8,1,12z M2.5,6h3.2C5.3,7.5,5,9.2,5,11H1C1,9.2,1.6,7.5,2.5,6z M8.3,1.5
			C7.4,2.3,6.6,3.5,6.1,5H3.2C4.5,3.4,6.2,2.1,8.3,1.5z M22.1,7c-0.2,0.4-0.4,0.8-0.6,1.2C21.8,9.1,21.9,10,22,11h-2.2
			c-0.3,0.4-0.5,0.7-0.6,1H22c-0.1,1.8-0.6,3.5-1.5,5h-3.2c0.3-1,0.5-2.2,0.7-3.4l-0.7-1c0,0-0.1-0.1-0.2-0.3
			c-0.1,1.7-0.4,3.3-0.8,4.7H12v-5h4.8c-0.2-0.3-0.4-0.6-0.6-1H12V6h1.5c-0.1-0.3-0.2-0.7-0.3-1H12v-4c0.5,0.1,1.1,0.4,1.5,0.7
			c0.3-0.5,0.6-1,1-1.4c-1-0.3-2-0.4-3-0.4C5.1,0,0,5.2,0,11.5C0,17.9,5.1,23,11.5,23C17.8,23,23,17.9,23,11.5
			C23,9.9,22.7,8.4,22.1,7z"/>
	</defs>
	<clipPath id="SVGID_2_">
		<use xlink:href="#SVGID_1_"  overflow="visible"/>
	</clipPath>
	<rect x="-5" y="-5" clip-path="url(#SVGID_2_)" fill="#F5655D" width="33" height="33"/>
</g>
<g>
	<defs>
		<path id="SVGID_3_" d="M18,2c1.1,0,2,0.9,2,2s-0.9,2-2,2s-2-0.9-2-2S16.9,2,18,2z M14,4.5c0.1,0.5,0.2,1,0.5,1.5
			C15.6,8.5,18,12,18,12s2.4-3.5,3.5-6.1c0.2-0.4,0.4-0.9,0.5-1.5c0-0.2,0-0.3,0-0.5c0-2.2-1.8-4-4-4s-4,1.8-4,4
			C14,4.1,14,4.3,14,4.5z"/>
	</defs>
	<clipPath id="SVGID_4_">
		<use xlink:href="#SVGID_3_"  overflow="visible"/>
	</clipPath>
	<rect x="9" y="-5" clip-path="url(#SVGID_4_)" fill="#F5655D" width="18" height="22"/>
</g>
</svg>
