<?xml version="1.0" encoding="utf-8"?>
<!-- Generator: Adobe Illustrator 20.1.0, SVG Export Plug-In . SVG Version: 6.00 Build 0)  -->
<svg version="1.1" id="Layer_1" xmlns="http://www.w3.org/2000/svg" xmlns:xlink="http://www.w3.org/1999/xlink" x="0px" y="0px"
	 width="19px" height="21px" viewBox="0 0 19 21" enable-background="new 0 0 19 21" xml:space="preserve">
<g>
	<defs>
		<path id="SVGID_551_" d="M5,4.6H2.2L5,2L5,4.6z M16.8,3.7V0H5.6L0,5.1V21h16.8v-8.6L16,13.5c-0.1,0.2-0.3,0.3-0.4,0.4v5.9H1.2V5.7
			h4.9l0.1-4.6h9.4v3.2C15.9,4,16.3,3.8,16.8,3.7z"/>
	</defs>
	<clipPath id="SVGID_552_">
		<use xlink:href="#SVGID_551_"  overflow="visible"/>
	</clipPath>
	<rect x="-1.7" y="-1.7" clip-path="url(#SVGID_552_)" fill="#F5635B" width="20.2" height="24.4"/>
</g>
<g>
	<defs>
		<path id="SVGID_553_" d="M13.2,7.6L12.9,8H2.4C2.2,8,2.1,7.9,2.1,7.8s0.1-0.2,0.2-0.2L13.2,7.6L13.2,7.6z"/>
	</defs>
	<clipPath id="SVGID_554_">
		<use xlink:href="#SVGID_553_"  overflow="visible"/>
	</clipPath>
	<rect x="0.4" y="5.8" clip-path="url(#SVGID_554_)" fill="#F5635B" width="14.5" height="3.9"/>
</g>
<g>
	<defs>
		<path id="SVGID_555_" d="M11.2,10.5l-0.3,0.4H2.4c-0.1,0-0.2-0.1-0.2-0.2c0-0.1,0.1-0.2,0.2-0.2H11.2z"/>
	</defs>
	<clipPath id="SVGID_556_">
		<use xlink:href="#SVGID_555_"  overflow="visible"/>
	</clipPath>
	<rect x="0.4" y="8.8" clip-path="url(#SVGID_556_)" fill="#F5635B" width="12.4" height="3.8"/>
</g>
<g>
	<defs>
		<path id="SVGID_557_" d="M9.1,13.4l-0.3,0.4H2.4c-0.1,0-0.2-0.1-0.2-0.2s0.1-0.2,0.2-0.2L9.1,13.4L9.1,13.4z"/>
	</defs>
	<clipPath id="SVGID_558_">
		<use xlink:href="#SVGID_557_"  overflow="visible"/>
	</clipPath>
	<rect x="0.4" y="11.7" clip-path="url(#SVGID_558_)" fill="#F5635B" width="10.4" height="3.9"/>
</g>
<g>
	<defs>
		<path id="SVGID_559_" d="M8.1,18.3C8.1,18.3,8.1,18.3,8.1,18.3C8.1,18.3,8.1,18.3,8.1,18.3L8.1,18.3C8.1,18.3,8.1,18.3,8.1,18.3z"/>
	</defs>
	<clipPath id="SVGID_5510_">
		<use xlink:href="#SVGID_559_"  overflow="visible"/>
	</clipPath>
	<rect x="6.4" y="16.6" clip-path="url(#SVGID_5510_)" width="3.4" height="3.5"/>
</g>
<g>
	<defs>
		<path id="SVGID_5511_" d="M7.2,18.8c0,0.1,0,0.1-0.1,0.2c0,0-0.1,0-0.1,0H5c-0.1,0-0.2-0.1-0.2-0.2c0-0.4-0.1-0.6-0.1-0.7
			c-0.1,0.1-0.2,0.3-0.3,0.5c0,0.1-0.1,0.1-0.2,0.1c-0.1,0-0.1-0.1-0.1-0.1C4.1,18.3,4,18.3,4,18.3c-0.1,0-0.2,0.2-0.3,0.4
			c0,0.1,0,0.1-0.1,0.2C3.6,19,3.6,19,3.5,19c0,0,0,0-0.1,0c-0.1,0-0.1-0.1-0.1-0.2c0,0,0-0.1,0.1-0.2c0,0,0-0.1,0-0.1
			c0,0,0-0.1,0-0.1c-0.1,0.1-0.2,0.3-0.2,0.5C3.1,19,3.1,19,3,19c-0.1,0-0.1-0.1-0.1-0.2c-0.1-1.3-0.3-1.9-0.4-2.1v2.1
			c0,0.1-0.1,0.2-0.2,0.2c-0.1,0-0.2-0.1-0.2-0.2v-2.3c0,0,0-0.1,0-0.1c0.1-0.1,0.2-0.2,0.3-0.1c0.2,0.1,0.4,0.3,0.6,2
			c0.1-0.2,0.2-0.3,0.3-0.2c0,0,0.1,0,0.1,0c0,0,0.1,0.1,0.2,0.2C3.7,18,3.9,17.9,4,17.9c0.1,0,0.2,0.1,0.3,0.3
			c0.1-0.2,0.3-0.4,0.4-0.4c0.2,0,0.3,0.3,0.4,0.9H7h0C7.2,18.6,7.2,18.7,7.2,18.8z"/>
	</defs>
	<clipPath id="SVGID_5512_">
		<use xlink:href="#SVGID_5511_"  overflow="visible"/>
	</clipPath>
	<rect x="0.4" y="14.5" clip-path="url(#SVGID_5512_)" fill="#F5635B" width="8.5" height="6.2"/>
</g>
<g>
	<defs>
		<path id="SVGID_5513_" d="M18.9,7.8c0.2-0.2,0.1-0.4,0-0.5c-0.2-0.1-0.4-0.1-0.5,0.1c-0.2,0.2-0.4,0.1-0.5,0c0,0,0.5-0.7,0.5-0.7
			c0.3-0.5,0.3-1.1,0-1.6l0.4-0.6C19,4.2,19,3.9,18.7,3.7c-0.3-0.2-0.6-0.1-0.8,0.1l-0.4,0.6C17,4.3,16.4,4.6,16,5L8.9,15
			c0,0.1-0.1,0.2-0.1,0.3c0.1,0.3-0.1,0.6-0.2,0.9c-0.2,0.5-0.3,1-0.5,1.5c0,0.1,0,0.3,0,0.5c0,0.1,0,0.1,0,0.1L8,18.5
			c-0.1,0.1-0.1,0.3,0.1,0.4c0.1,0.1,0.3,0.1,0.4-0.1l0.2-0.2c0,0,0.1-0.1,0.1-0.1c0.2-0.1,0.3-0.1,0.5-0.2c0.4-0.3,0.8-0.6,1.2-1
			c0.2-0.2,0.4-0.4,0.8-0.5c0.1,0,0.1-0.1,0.2-0.2c1.9-2.8,3.9-5.6,5.9-8.4c0.1,0.1,0.2,0.2,0.3,0.2l-2.9,4.1
			c-0.1,0.1-0.2,0.3,0,0.4c0.1,0.2,0.4,0.3,0.6,0L18.9,7.8z"/>
	</defs>
	<clipPath id="SVGID_5514_">
		<use xlink:href="#SVGID_5513_"  overflow="visible"/>
	</clipPath>
	<rect x="6.2" y="1.9" clip-path="url(#SVGID_5514_)" fill="#F5635B" width="14.5" height="18.7"/>
</g>
<g>
	<defs>
		<path id="SVGID_5515_" d="M7.2,19c0,0,0.1-0.1,0.1-0.2c0-0.1-0.1-0.2-0.1-0.2"/>
	</defs>
	<clipPath id="SVGID_5516_">
		<use xlink:href="#SVGID_5515_"  overflow="visible"/>
	</clipPath>
	<rect x="5.4" y="16.9" clip-path="url(#SVGID_5516_)" fill="#F5635B" width="3.5" height="3.7"/>
</g>
</svg>
