<?xml version="1.0" encoding="utf-8"?>
<!-- Generator: Adobe Illustrator 22.0.0, SVG Export Plug-In . SVG Version: 6.00 Build 0)  -->
<svg version="1.1" id="Layer_1" xmlns="http://www.w3.org/2000/svg" xmlns:xlink="http://www.w3.org/1999/xlink" x="0px" y="0px"
	 width="18px" height="18px" viewBox="0 0 18 18" enable-background="new 0 0 18 18" xml:space="preserve">
<g>
	<defs>
		<path id="SVGID_1_" d="M15.4,2.6C12-0.8,6.5-0.9,3,2.3L2,1.4C1.7,1.1,1.2,1.2,1.1,1.6L0,6.1c-0.1,0.4,0.3,0.8,0.7,0.7l4.4-1.1
			c0.4-0.1,0.6-0.6,0.3-0.9l-1-1c2.8-2.4,7-2.4,9.7,0.3c2.7,2.7,2.7,7.3,0,10l-0.3,0.2c-0.4,0.4-0.4,1-0.1,1.4
			c0.2,0.2,0.5,0.3,0.7,0.3c0.2,0,0.5-0.1,0.6-0.2c0.1-0.1,0.2-0.2,0.3-0.3C18.9,11.9,18.9,6.2,15.4,2.6z"/>
	</defs>
	<clipPath id="SVGID_2_">
		<use xlink:href="#SVGID_1_"  overflow="visible"/>
	</clipPath>
	<rect x="-0.9" y="-0.9" clip-path="url(#SVGID_2_)" fill="#F5635B" width="19.9" height="17.9"/>
</g>
<g>
	<defs>
		<path id="SVGID_3_" d="M11.2,15.7l-0.4,0.1c-0.5,0.1-0.8,0.7-0.7,1.2c0.1,0.4,0.5,0.7,0.9,0.7c0.1,0,0.2,0,0.2,0
			c0.2,0,0.3-0.1,0.5-0.1c0.5-0.2,0.8-0.7,0.6-1.2C12.3,15.9,11.7,15.6,11.2,15.7z"/>
	</defs>
	<clipPath id="SVGID_4_">
		<use xlink:href="#SVGID_3_"  overflow="visible"/>
	</clipPath>
	<rect x="9.2" y="14.7" clip-path="url(#SVGID_4_)" fill="#F5635B" width="4.2" height="4"/>
</g>
<g>
	<defs>
		<path id="SVGID_5_" d="M7.9,16L7.6,16c-0.5-0.1-1,0.2-1.1,0.8c-0.1,0.5,0.2,1,0.8,1.1c0.2,0,0.3,0.1,0.5,0.1c0,0,0.1,0,0.2,0
			c0.5,0,0.9-0.3,0.9-0.8C8.8,16.6,8.5,16.1,7.9,16z"/>
	</defs>
	<clipPath id="SVGID_6_">
		<use xlink:href="#SVGID_5_"  overflow="visible"/>
	</clipPath>
	<rect x="5.5" y="15" clip-path="url(#SVGID_6_)" fill="#F5635B" width="4.3" height="3.9"/>
</g>
<g>
	<defs>
		<path id="SVGID_7_" d="M4.6,14.6c-0.4-0.3-1-0.3-1.4,0.2c-0.3,0.4-0.3,1,0.2,1.4c0.1,0.1,0.2,0.2,0.4,0.3c0.2,0.1,0.4,0.2,0.5,0.2
			c0.3,0,0.6-0.1,0.8-0.4c0.3-0.4,0.2-1-0.2-1.3L4.6,14.6z"/>
	</defs>
	<clipPath id="SVGID_8_">
		<use xlink:href="#SVGID_7_"  overflow="visible"/>
	</clipPath>
	<rect x="2.1" y="13.4" clip-path="url(#SVGID_8_)" fill="#F5635B" width="4.2" height="4.1"/>
</g>
<g>
	<defs>
		<path id="SVGID_9_" d="M2.6,12c-0.2-0.5-0.8-0.7-1.3-0.5c-0.5,0.2-0.7,0.8-0.5,1.3C0.9,13,0.9,13.1,1,13.3
			c0.2,0.3,0.5,0.5,0.9,0.5c0.2,0,0.3,0,0.5-0.1c0.5-0.2,0.6-0.8,0.4-1.3L2.6,12z"/>
	</defs>
	<clipPath id="SVGID_10_">
		<use xlink:href="#SVGID_9_"  overflow="visible"/>
	</clipPath>
	<rect x="-0.2" y="10.5" clip-path="url(#SVGID_10_)" fill="#F5635B" width="4" height="4.2"/>
</g>
<g>
	<defs>
		<path id="SVGID_11_" d="M12.2,9.9L9.9,8.5V4.9c0-0.5-0.4-1-1-1s-1,0.4-1,1V9c0,0.3,0.2,0.6,0.5,0.8l2.7,1.7
			c0.2,0.1,0.3,0.2,0.5,0.2c0.3,0,0.6-0.2,0.8-0.5C12.7,10.8,12.6,10.2,12.2,9.9z"/>
	</defs>
	<clipPath id="SVGID_12_">
		<use xlink:href="#SVGID_11_"  overflow="visible"/>
	</clipPath>
	<rect x="7.1" y="3" clip-path="url(#SVGID_12_)" fill="#F5635B" width="6.5" height="9.6"/>
</g>
</svg>
