<?xml version="1.0" encoding="utf-8"?>
<!-- Generator: Adobe Illustrator 20.1.0, SVG Export Plug-In . SVG Version: 6.00 Build 0)  -->
<svg version="1.1" id="Layer_1" xmlns="http://www.w3.org/2000/svg" xmlns:xlink="http://www.w3.org/1999/xlink" x="0px" y="0px"
	 width="14px" height="14px" viewBox="0 0 14 14" enable-background="new 0 0 14 14" xml:space="preserve">
<g>
	<defs>
		<path id="SVGID_1_" d="M2,5.5C2,3.6,3.6,2,5.5,2S9,3.6,9,5.5c0,1-0.4,1.8-1,2.5c0,0,0,0,0,0c0,0,0,0,0,0C7.3,8.6,6.5,9,5.5,9
			C3.6,9,2,7.4,2,5.5z M13.7,12.3L10,8.6c0.6-0.9,1-2,1-3.1C11,2.5,8.5,0,5.5,0C2.5,0,0,2.5,0,5.5c0,3,2.5,5.5,5.5,5.5
			c1.2,0,2.2-0.4,3.1-1l3.7,3.7c0.2,0.2,0.5,0.3,0.7,0.3s0.5-0.1,0.7-0.3C14.1,13.3,14.1,12.7,13.7,12.3z"/>
	</defs>
	<clipPath id="SVGID_2_">
		<use xlink:href="#SVGID_1_"  overflow="visible"/>
	</clipPath>
	<rect x="-0.1" y="-0.1" clip-path="url(#SVGID_2_)" fill="#F5635B" width="14.2" height="14.2"/>
</g>
</svg>
