<?xml version="1.0" encoding="utf-8"?>
<!-- Generator: Adobe Illustrator 22.0.0, SVG Export Plug-In . SVG Version: 6.00 Build 0)  -->
<svg version="1.1" id="Layer_1" xmlns="http://www.w3.org/2000/svg" xmlns:xlink="http://www.w3.org/1999/xlink" x="0px" y="0px"
	 width="22px" height="15.9px" viewBox="0 0 22 15.9" enable-background="new 0 0 22 15.9" xml:space="preserve">
<g>
	<defs>
		<path id="SVGID_1_" d="M11,5.4c0.3,0,0.5,0.2,0.5,0.5v5.5l2-1.8c0.2-0.2,0.5-0.2,0.7,0c0.2,0.2,0.2,0.5,0,0.7l-2.8,2.6
			C11.2,13,11.1,13,11,13c-0.1,0-0.3-0.1-0.3-0.1l-2.8-2.6c-0.2-0.2-0.2-0.5,0-0.7c0.2-0.2,0.5-0.2,0.7,0l2,1.8V5.9
			C10.5,5.6,10.7,5.4,11,5.4z M11,0C9.4,0,7.7,0.6,6.5,1.9C5.4,2.9,4.8,4.3,4.6,5.7C2,5.9,0,8.1,0,10.7c0,2.8,2.3,5.1,5.1,5.1h12.5
			c2.4,0,4.3-1.9,4.3-4.3s-1.9-4.3-4.3-4.3h-0.3c0.2-1.9-0.4-3.8-1.8-5.3C14.3,0.6,12.6,0,11,0z"/>
	</defs>
	<clipPath id="SVGID_2_">
		<use xlink:href="#SVGID_1_"  overflow="visible"/>
	</clipPath>
	<rect x="-1.3" y="-1.3" clip-path="url(#SVGID_2_)" fill="#B7B7B7" width="24.6" height="18.4"/>
</g>
</svg>
