<svg width="21" height="21" viewBox="0 0 21 21" fill="none" xmlns="http://www.w3.org/2000/svg">
<path d="M10.5 0.4375C4.94316 0.4375 0.4375 4.94316 0.4375 10.5C0.4375 16.0568 4.94316 20.5625 10.5 20.5625C16.0568 20.5625 20.5625 16.0568 20.5625 10.5C20.5625 4.94316 16.0568 0.4375 10.5 0.4375ZM14.8462 7.21396L10.1159 13.7726C10.0498 13.8648 9.96265 13.94 9.86168 13.9919C9.7607 14.0438 9.64882 14.0708 9.5353 14.0708C9.42179 14.0708 9.3099 14.0438 9.20893 13.9919C9.10796 13.94 9.0208 13.8648 8.95469 13.7726L6.15381 9.89131C6.06846 9.77227 6.15381 9.60606 6.2998 9.60606H7.35322C7.58232 9.60606 7.8002 9.71611 7.93496 9.90479L9.53418 12.1239L13.065 7.22744C13.1998 7.04102 13.4154 6.92871 13.6468 6.92871H14.7002C14.8462 6.92871 14.9315 7.09492 14.8462 7.21396Z" fill="#F96156"/>
</svg>
