<svg width="70" height="70" viewBox="0 0 70 70" fill="none" xmlns="http://www.w3.org/2000/svg">
<path d="M35 2.1875C20.6719 2.1875 8.53125 11.375 4.04688 24.0625H65.9531C61.4688 11.375 49.3281 2.1875 35 2.1875Z" fill="#ED4C5C"/>
<path d="M35 67.8125C49.3281 67.8125 61.4688 58.7344 65.9531 45.9375H4.04688C8.53125 58.7344 20.6719 67.8125 35 67.8125Z" fill="#F2B200"/>
<path d="M4.04688 24.0625C2.84375 27.4531 2.1875 31.1719 2.1875 35C2.1875 38.8281 2.84375 42.5469 4.04688 45.9375H65.9531C67.1562 42.5469 67.8125 38.8281 67.8125 35C67.8125 31.1719 67.1562 27.4531 65.9531 24.0625H4.04688Z" fill="#2A5F9E"/>
</svg>
