<svg width="70" height="70" viewBox="0 0 70 70" fill="none" xmlns="http://www.w3.org/2000/svg">
<path d="M35 2.1875C20.6718 2.1875 8.5312 11.375 4.04683 24.0625H65.9531C61.4687 11.375 49.3281 2.1875 35 2.1875Z" fill="#ED4C5C"/>
<path d="M35 67.8125C49.3281 67.8125 61.4687 58.7344 65.9531 45.9375H4.04683C8.5312 58.7344 20.6718 67.8125 35 67.8125Z" fill="#F9F9F9"/>
<path d="M4.04688 24.0625C2.84375 27.4531 2.1875 31.1719 2.1875 35C2.1875 38.8281 2.84375 42.5469 4.04688 45.9375H65.9531C67.1562 42.5469 67.8125 38.8281 67.8125 35C67.8125 31.1719 67.1562 27.4531 65.9531 24.0625H4.04688Z" fill="#2872A0"/>
<path d="M16.9531 23.7346V41.4534C16.9531 47.5784 22.0938 52.5002 28.4375 52.5002C34.7812 52.5002 39.9219 47.5784 39.9219 41.4534V23.7346H16.9531Z" fill="#ED4C5C"/>
<path d="M32.5938 50.6406L32.375 49.6563L31.5 48.125L31.8281 47.9062L31.6094 46.9219L30.8438 45.7188L31.0625 45.6094L30.8438 44.625L30.2969 43.5312L31.1719 41.8906L31.7188 43.6406L32.1563 42.9844L32.8125 43.9688L33.0313 43.3125L33.6875 43.6406L33.5781 42.3281L35.1094 42.7656L34.0156 41.3438H34.125L33.25 39.5938L33.4688 38.9375L34.0156 40.0312L34.2344 39.5938L35.1094 42V41.8906L35.5469 42.7656L35.7656 42.3281L36.6406 44.0781L36.9688 43.0938L38.2813 44.0781C38.2813 44.0781 38.1719 40.7969 38.1719 39.8125C38.3906 36.9688 39.375 31.1719 38.6094 28.5469C38.2813 27.2344 35.6563 24.0625 35.6563 24.0625C35.6563 24.0625 35.5469 27.8906 34.8906 29.0938C34.6719 29.5313 32.7031 30.7344 32.7031 30.7344L31.9375 30.625L32.2656 30.5156L30.8438 29.0938L31.3906 26.25L32.8125 24.1719L30.625 24.2813L28.9844 24.7188L29.4219 25.375L28.4375 28.875L27.4531 25.4844L27.8906 24.8281L26.25 24.2813L24.0625 24.1719L25.4844 26.25L26.0313 29.0938L24.6094 30.5156L24.9375 30.625L24.0625 30.8438C24.0625 30.8438 22.0938 29.6406 21.875 29.2031C21.2188 28.1094 21.1094 24.1719 21.1094 24.1719C21.1094 24.1719 18.4844 27.3438 18.1563 28.6563C17.3906 31.3906 18.4844 37.1875 18.5938 39.9219C18.7031 41.0156 18.4844 44.1875 18.4844 44.1875L19.7969 43.2031L20.125 44.1875L21 42.4375L21.2188 42.875L21.6563 42V42.1094L22.5313 39.7031L22.75 40.1406L23.2969 39.0469L23.5156 39.7031L22.6406 41.4531H22.75L21.6563 42.875L23.1875 42.4375V43.75L23.8438 43.4219L24.0625 44.0781L24.7188 43.0938L25.1563 43.75L25.7031 42L26.5781 43.6406L26.0313 44.7344L25.8125 45.7188L26.0313 45.8281L25.2656 47.0312L25.0469 48.0156L25.375 48.2344L24.6094 49.875L24.3906 50.8594L32.5938 50.6406Z" fill="white"/>
<path d="M21.875 45.6099L22.0938 45.1724L23.0781 44.7349L23.7344 44.5161H24.1719L24.2813 44.4067L23.625 44.0786L23.5156 43.9692L22.9687 44.188L22.5312 44.5161L23.4062 43.4224L24.1719 41.6724L22.9687 42.438L21.875 44.4067L21.4375 44.6255H20.3438L19.7969 44.5161L19.1406 44.8442L19.25 44.9536H19.6875L20.125 45.1724L21.1094 45.063L20.0156 45.3911L19.7969 45.8286V46.4849H19.9063L20.0156 46.1567H20.5625L21.5469 45.2817L20.7812 46.4849L20.6719 47.0317L21 47.7974L21.2187 47.688V47.1411L21.6562 46.7036L21.875 45.6099Z" fill="#FFCE31"/>
<path d="M34.8907 45.6099L34.7813 45.1724L33.7969 44.7349L33.1407 44.5161H32.7032L32.5938 44.4067L33.25 44.0786L33.3594 43.9692L33.9063 44.188L34.3438 44.5161L33.4688 43.4224L32.7032 41.6724L33.9063 42.438L35 44.4067L35.4375 44.6255H36.5313L37.0782 44.5161L37.7344 44.8442L37.625 44.9536H37.1875L36.75 45.1724L35.7657 45.063L36.8594 45.3911L37.0782 45.8286V46.4849H36.9688L36.8594 46.1567H36.3125L35.3282 45.2817L36.0938 46.4849L36.2032 47.0317L35.875 47.7974L35.6563 47.688V47.1411L35.2188 46.7036L34.8907 45.6099Z" fill="#FFCE31"/>
<path d="M23.4063 24.2817C22.3125 24.3911 22.4219 25.1567 23.4063 26.1411C23.625 26.3598 23.625 26.3598 23.7344 26.1411C23.8438 25.8129 24.1719 25.5942 24.3906 25.8129C24.5 26.0317 24.5 26.1411 24.9375 26.0317C25.0469 26.1411 25.2656 26.2504 25.375 26.3598C25.2656 26.3598 24.8281 26.4692 24.1719 26.5786C23.625 26.6879 23.2969 26.4692 22.8594 26.0317C22.9688 26.5786 24.2813 26.9067 24.1719 26.9067C24.2813 27.1254 24.2813 27.2348 24.3906 27.2348C24.8281 27.3442 25.2656 27.0161 25.7031 27.1254C26.6875 27.3442 25.0469 24.6098 25.1563 24.5004C25.2656 24.2817 23.7344 23.8442 23.4063 24.2817Z" fill="#FFCE31"/>
<path d="M32.375 27.344C32.4844 27.344 32.4844 27.344 32.5937 27.0159C32.4844 27.0159 33.7969 26.6877 33.9062 26.1409C33.5781 26.5784 33.1406 26.7971 32.5937 26.6877C31.9375 26.5784 31.5 26.3596 31.3906 26.469C31.5 26.3596 31.6094 26.2502 31.8281 26.1409C32.2656 26.2502 32.2656 26.1409 32.375 25.9221C32.5937 25.7034 32.9219 25.8127 33.0312 26.2502C33.0312 26.469 33.1406 26.469 33.3594 26.2502C34.3437 25.2659 34.4531 24.5002 33.3594 24.3909C33.1406 23.9534 31.6094 24.3909 31.7187 24.719C31.7187 24.8284 30.1875 27.5627 31.1719 27.344C31.5 27.1252 31.9375 27.344 32.375 27.344Z" fill="#FFCE31"/>
<path d="M23.6251 31.281V39.2654C23.6251 41.6716 25.8126 43.6404 28.4376 43.6404C31.0626 43.6404 33.2501 41.6716 33.2501 39.2654V31.281H23.6251Z" fill="#ED4C5C"/>
<path d="M27.125 29.8591H29.8594V46.2654H27.125V29.8591Z" fill="white"/>
<path d="M20.8907 35.3279H35.9845V38.0623H20.8907V35.3279Z" fill="white"/>
<path d="M26.25 33.25L25.1562 34.3438L25.4844 33.25L25.1562 32.2656L26.25 33.25Z" fill="white"/>
<path d="M26.25 40.1406L25.1562 41.2344L25.4844 40.1406L25.1562 39.0469L26.25 40.1406Z" fill="white"/>
<path d="M30.625 33.25L31.7188 34.3438L31.5 33.25L31.7188 32.2656L30.625 33.25Z" fill="white"/>
<path d="M30.625 40.1406L31.7188 41.2344L31.5 40.1406L31.7188 39.0469L30.625 40.1406Z" fill="white"/>
<path d="M29.5312 12.7971H27.3438V14.9846H29.5312V12.7971Z" fill="#428BC1"/>
<path d="M27.453 11.375L27.6718 11.4844L27.8905 11.375H28.2187V12.6875H27.3437V13.125H29.5312V12.6875H28.6562V11.375H28.9843L29.203 11.4844L29.4218 11.375L29.6405 11.1562L29.4218 10.9375L29.203 10.7188L28.9843 10.9375H28.6562V10.5L28.8749 10.2812L28.6562 10.0625L28.4374 9.84375L28.2187 10.0625L27.9999 10.2812L28.2187 10.5V10.9375H27.8905L27.6718 10.7188L27.453 10.9375L27.2343 11.1562L27.453 11.375Z" fill="#FFCE31"/>
<path d="M35.5468 15.75C34.1249 14.9844 33.2499 14.7657 32.9218 15.3125C32.9218 15.3125 32.9218 15.4219 32.8124 15.4219C31.0624 14.5469 29.7499 14.4375 28.4374 14.9844C27.1249 14.4375 25.9218 14.5469 24.0624 15.4219C24.0624 15.3125 24.0624 15.3125 23.9531 15.3125C23.6249 14.7657 22.7499 14.875 21.3281 15.75C19.9062 16.5157 18.5937 17.6094 18.9218 18.0469C19.0312 18.8125 19.4687 19.4688 20.2343 20.2344C21.1093 20.6719 22.8593 20.7813 24.7187 20.6719C27.1249 20.5625 29.6406 20.5625 32.0468 20.6719C33.9062 20.7813 35.6562 20.6719 36.5312 20.2344C37.2968 19.4688 37.7343 18.8125 37.8437 18.0469C38.2812 17.7188 36.8593 16.625 35.5468 15.75Z" fill="#FFCE31"/>
<path d="M29.9688 18.8122C30.8438 18.0466 31.3907 17.2809 31.8282 16.5153C31.0626 16.2966 30.297 16.1872 29.6407 16.2966C29.7501 17.1716 29.8595 18.0466 29.9688 18.8122Z" fill="#ED4C5C"/>
<path d="M26.9063 18.8124C27.0156 17.9374 27.125 17.0624 27.3438 16.1874C26.6875 16.0781 25.9219 16.1874 25.1562 16.4062C25.375 17.2812 26.0313 18.0468 26.9063 18.8124Z" fill="#ED4C5C"/>
<path d="M35.6563 17.2815C35.5469 17.1721 35.3282 16.9534 35.0001 16.844C34.6719 16.7346 34.3438 16.6252 34.1251 16.6252C34.0157 17.5002 33.6876 18.3752 32.922 19.2502C33.2501 19.2502 33.5782 19.1409 33.7969 19.0315C34.6719 18.594 35.2188 18.0471 35.6563 17.6096C35.7657 17.5002 35.7657 17.3909 35.6563 17.2815Z" fill="#ED4C5C"/>
<path d="M22.75 16.5151C22.5313 16.5151 22.2032 16.6245 21.875 16.7339C21.3282 16.9526 21 17.3901 21.2188 17.4995C21.6563 17.937 22.2032 18.3745 23.0782 18.9214C23.2969 19.0308 23.625 19.0308 23.9532 19.1401C23.1875 18.2651 22.8594 17.4995 22.75 16.5151Z" fill="#ED4C5C"/>
<path d="M20.3438 20.2344H36.5313V22.4219H20.3438V20.2344Z" fill="#FFCE31"/>
<path d="M20.3437 20.6721L19.9062 21.4377L20.4531 21.9846L21.2187 21.219L20.3437 20.6721Z" fill="#428BC1"/>
<path d="M36.5311 20.6721L35.6561 21.219L36.4218 21.9846L36.9686 21.4377L36.5311 20.6721Z" fill="#428BC1"/>
<path d="M28.4375 20.1252L27.5625 20.8909L28.4375 21.5471L29.3125 20.8909L28.4375 20.1252Z" fill="#428BC1"/>
<path d="M24.3906 21.656L25.1562 20.8904L24.2813 20.3435L23.5156 20.9998L24.3906 21.656Z" fill="#ED4C5C"/>
<path d="M32.4844 21.656L33.3594 20.9998L32.5937 20.3435L31.7188 20.8904L32.4844 21.656Z" fill="#ED4C5C"/>
</svg>
