<svg width="70" height="70" viewBox="0 0 70 70" fill="none" xmlns="http://www.w3.org/2000/svg">
<path d="M2.1875 35C2.1875 41.4531 4.04687 47.4688 7.21875 52.5H62.6719C65.8438 47.4688 67.7031 41.4531 67.7031 35C67.7031 28.5469 65.8438 22.5312 62.6719 17.5H7.21875C4.04687 22.5312 2.1875 28.5469 2.1875 35Z" fill="#FFCE31"/>
<path d="M62.7813 17.5C56.9845 8.3125 46.7032 2.1875 35.0001 2.1875C23.297 2.1875 13.0157 8.3125 7.21884 17.5H62.7813Z" fill="#ED4C5C"/>
<path d="M7.21884 52.5C13.0157 61.6875 23.297 67.8125 35.0001 67.8125C46.7032 67.8125 56.9845 61.6875 62.7813 52.5H7.21884Z" fill="#ED4C5C"/>
<path d="M10.0625 31.3909H13.5625V33.3596H10.0625V31.3909Z" fill="#C8B100"/>
<path d="M10.0625 45.8286H13.6718V47.688H10.0625V45.8286Z" fill="#C8B100"/>
<path d="M9.73428 42.7654C9.40616 42.9841 9.18741 43.2029 9.18741 43.3123C9.18741 43.4216 9.29678 43.531 9.51553 43.6404C9.73428 43.7498 9.95303 43.9685 9.84366 44.1873C10.0624 43.9685 10.1718 43.7498 10.1718 43.531C10.1718 43.2029 9.95303 42.8748 9.73428 42.7654Z" fill="#ED4C5C"/>
<path d="M10.6093 33.3594H13.125V45.8281H10.6093V33.3594Z" fill="white"/>
<path d="M15.75 37.9531C15.2031 37.7344 14.2187 37.5156 13.125 37.5156C12.7968 37.5156 12.3593 37.5156 11.9218 37.625C10.3906 37.8438 9.18747 38.5 9.29684 38.9375L8.74997 37.7344C8.64059 37.1875 9.95309 36.5312 11.5937 36.2031C12.1406 36.0937 12.6875 36.0938 13.125 36.0938C14.2187 36.0938 15.2031 36.2031 15.75 36.4219V37.9531Z" fill="#ED4C5C"/>
<path d="M10.6093 39.5938C9.953 39.5938 9.40613 39.375 9.40613 39.0469C9.40613 38.8281 9.62488 38.5 10.0624 38.2812H10.7186L10.6093 39.5938Z" fill="#ED4C5C"/>
<path d="M13.125 38.6091C13.5625 38.7185 13.8906 38.8279 14.1094 38.9373C14.2187 39.0466 13.7812 39.4841 13.125 39.8123V38.6091Z" fill="#ED4C5C"/>
<path d="M8.9687 41.9998C8.85933 41.781 9.62495 41.3435 10.6093 41.0154C11.0468 40.906 11.375 40.6873 11.9218 40.4685C13.2343 39.9216 14.3281 39.156 14.1093 38.9373L14.3281 40.2498C14.4375 40.4685 13.5625 41.1248 12.25 41.781C11.8125 41.9998 11.0468 42.3279 10.6093 42.4373C9.8437 42.656 9.18745 43.0935 9.18745 43.2029L8.9687 41.9998Z" fill="#ED4C5C"/>
<path d="M33.5783 31.3909H37.0783V33.3596H33.5783V31.3909Z" fill="#C8B100"/>
<path d="M33.4688 45.8286H37.0782V47.688H33.4688V45.8286Z" fill="#C8B100"/>
<path d="M37.4063 42.7654C37.7344 42.9841 37.9532 43.2029 37.9532 43.3123C37.9532 43.4216 37.8438 43.531 37.625 43.6404C37.4063 43.8591 37.1875 44.1873 37.2969 44.2966C37.0782 44.0779 36.9688 43.8591 36.9688 43.6404C36.9688 43.2029 37.1875 42.8748 37.4063 42.7654Z" fill="#ED4C5C"/>
<path d="M34.0157 33.3594H36.5313V45.8281H34.0157V33.3594Z" fill="white"/>
<path d="M31.3906 37.9531C31.9374 37.7344 32.9218 37.5156 34.0156 37.5156C34.3437 37.5156 34.7812 37.5156 35.2187 37.625C36.7499 37.8438 37.9531 38.5 37.8437 38.9375L38.3906 37.625C38.4999 37.0781 37.1874 36.4219 35.5468 36.0938H34.0156C32.9218 36.0938 31.9374 36.2031 31.3906 36.4219V37.9531Z" fill="#ED4C5C"/>
<path d="M36.5313 39.5938C37.1875 39.5938 37.7344 39.375 37.7344 39.0469C37.7344 38.8281 37.5157 38.5 37.0782 38.2812H36.4219L36.5313 39.5938Z" fill="#ED4C5C"/>
<path d="M34.0157 38.6091C33.5782 38.7185 33.2501 38.8279 33.0313 38.9373C32.922 39.0466 33.3595 39.4841 34.0157 39.8123V38.6091Z" fill="#ED4C5C"/>
<path d="M38.172 41.9995C38.2813 41.7808 37.5157 41.3433 36.5313 41.0151C36.0938 40.9058 35.7657 40.687 35.2188 40.4683C33.9063 39.9214 32.8126 39.1558 33.0313 38.937L32.8126 40.2495C32.7032 40.4683 33.5782 41.1245 34.8907 41.7808C35.3282 41.9995 36.0938 42.3276 36.5313 42.437C37.297 42.6558 37.9532 43.2026 37.8438 43.312L38.172 41.9995Z" fill="#ED4C5C"/>
<path d="M23.5157 24.3904C25.5938 24.3904 29.8594 24.8279 31.3907 26.3591C29.75 30.2966 27.125 28.656 23.5157 28.656C20.0157 28.656 17.2813 30.2966 15.6407 26.3591C17.1719 24.8279 21.3282 24.3904 23.5157 24.3904Z" fill="#ED4C5C"/>
<path d="M28.8751 28.7656C27.5626 28 25.5938 27.8906 23.5157 27.8906C21.4376 27.8906 19.4688 28.1094 18.1563 28.7656L18.5938 30.625C19.7969 30.9531 21.5469 31.1719 23.5157 31.1719C25.4844 31.1719 27.1251 30.9531 28.4376 30.625L28.8751 28.7656Z" fill="#C8B100"/>
<path d="M30.7344 24.0625C30.2969 23.7344 29.4219 23.4062 28.6563 23.4062C28.3282 23.4062 28 23.4062 27.6719 23.5156C27.6719 23.5156 27.0157 22.6406 25.4844 22.6406C24.9375 22.6406 24.5 22.75 24.0625 22.9687V22.8594C23.9532 22.6406 23.7344 22.4219 23.5157 22.4219C23.2969 22.4219 22.9688 22.75 22.9688 22.9687V23.0781C22.5313 22.8594 22.0938 22.75 21.5469 22.75C20.0157 22.75 19.3594 23.7344 19.3594 23.625C19.0313 23.5156 18.7032 23.5156 18.375 23.5156C13.3438 23.5156 15.8594 26.9062 15.8594 26.9062L16.4063 26.25C15.2032 24.7187 16.2969 23.8437 18.4844 23.8437C18.8125 23.8437 19.0313 23.8437 19.25 23.9531C18.4844 25.0469 19.9063 26.0312 19.9063 26.0312L20.2344 25.4844C19.4688 24.9375 19.3594 23.0781 21.5469 23.0781C22.0938 23.0781 22.5313 23.1875 22.9688 23.5156C22.9688 23.625 22.8594 25.1563 22.75 25.375L23.625 26.1406L24.5 25.375C24.3907 25.0469 24.2813 23.625 24.2813 23.5156C24.6094 23.2969 25.1563 23.0781 25.7032 23.0781C28 23.0781 28 24.9375 27.0157 25.4844L27.3438 26.0312C27.3438 26.0312 28.5469 25.0469 28 23.9531C28.2188 23.9531 28.5469 23.8437 28.7657 23.8437C31.3907 23.8437 31.5 25.8125 30.8438 26.25L31.2813 26.9062C31.0625 26.9062 32.2657 25.375 30.7344 24.0625Z" fill="#C8B100"/>
<path d="M22.8593 21.9844C22.8593 21.6563 23.1874 21.3281 23.5155 21.3281C23.953 21.3281 24.1718 21.6563 24.1718 21.9844C24.1718 22.3125 23.8437 22.6406 23.5155 22.6406C23.1874 22.6406 22.8593 22.3125 22.8593 21.9844Z" fill="#005BBF"/>
<path d="M23.2968 20.1252V20.4534H22.9687V20.7815H23.2968V21.8752H22.8593V22.2034H24.1718L24.2812 21.9846L24.1718 21.8752H23.7343V20.7815H24.0624V20.4534H23.7343V20.1252H23.2968Z" fill="#C8B100"/>
<path d="M23.5155 30.9529C21.7655 30.9529 20.2343 30.7341 19.0312 30.406C20.2343 30.0779 21.7655 29.8591 23.5155 29.8591C25.2655 29.8591 26.7968 30.0779 27.9999 30.406C26.9062 30.7341 25.2655 30.9529 23.5155 30.9529Z" fill="#ED4C5C"/>
<path d="M23.6249 49.8748C21.5468 49.8748 19.578 49.3279 17.828 48.5623C16.5155 47.906 15.7499 46.7029 15.7499 45.281V40.031H31.4999V45.281C31.4999 46.7029 30.6249 48.0154 29.4218 48.5623C27.6718 49.4373 25.703 49.8748 23.6249 49.8748Z" fill="white"/>
<path d="M23.5156 31.281H31.3906V40.031H23.5156V31.281Z" fill="white"/>
<path d="M23.6249 45.281C23.6249 47.3591 21.8749 48.9998 19.6874 48.9998C17.4999 48.9998 15.7499 47.3591 15.7499 45.281V40.031H23.6249V45.281Z" fill="#ED4C5C"/>
<path d="M17.3907 48.344C17.6095 48.4534 17.9376 48.6721 18.3751 48.7815V39.8127H17.5001L17.3907 48.344Z" fill="#C8B100"/>
<path d="M15.6407 45.1721C15.6407 46.2659 16.0782 47.1409 16.5157 47.5784V39.8127H15.6407V45.1721Z" fill="#C8B100"/>
<path d="M19.1406 49.0002H20.0156V39.8127H19.1406V49.0002Z" fill="#C7B500"/>
<path d="M20.8907 48.7815C21.2188 48.6721 21.6563 48.4534 21.8751 48.344V39.8127H21.0001L20.8907 48.7815Z" fill="#C8B100"/>
<path d="M15.6407 31.281H23.5157V40.031H15.6407V31.281Z" fill="#ED4C5C"/>
<path d="M22.75 47.5781C23.1875 47.25 23.5157 46.4844 23.625 45.6094V39.9219H22.75V47.5781Z" fill="#C8B100"/>
<path d="M31.4999 40.0308V45.2808C31.4999 47.3589 29.7499 48.9995 27.5624 48.9995C25.3749 48.9995 23.6249 47.3589 23.6249 45.2808V40.0308H31.4999Z" fill="#ED4C5C"/>
<path d="M28.6561 32.8124C28.9843 33.4686 28.9843 35.1092 27.9999 34.7811C28.2186 34.8905 28.328 35.6561 28.6561 36.0936C29.203 36.7499 29.8593 36.203 29.7499 35.4374C29.5311 34.2342 29.6405 33.4686 29.8593 32.2655C29.8593 32.3749 30.4061 32.3749 30.6249 32.1561C30.5155 32.4842 30.4061 32.9217 30.6249 32.9217C30.4061 33.2499 29.8593 33.7967 29.7499 34.1249C29.6405 34.8905 30.8436 36.3124 29.5311 36.6405C28.6561 36.8592 29.203 37.5155 29.5311 37.8436C29.5311 37.8436 29.0936 39.2655 29.3124 39.1561C28.4374 39.4842 28.6561 38.7186 28.6561 38.7186C29.0936 37.4061 27.8905 37.2967 27.9999 37.078C26.9061 36.9686 28.1093 38.0624 27.1249 38.0624C26.9061 38.0624 26.4686 38.2811 26.4686 38.2811C25.2655 38.1717 25.9218 37.078 26.3593 37.1874C26.6874 37.2967 27.0155 37.8436 27.0155 37.078C27.0155 37.078 26.4686 36.203 27.8905 36.203C27.3436 36.203 27.0155 35.7655 26.7968 35.2186C26.578 35.328 26.2499 35.8749 25.0468 35.9842C25.0468 35.9842 24.7186 34.7811 25.0468 34.9999C25.4843 35.2186 25.703 35.2186 26.1405 34.7811C25.9218 34.453 24.6093 34.0155 24.828 33.2499C24.828 33.0311 25.4843 32.703 25.4843 32.703C25.3749 33.2499 25.703 33.7967 26.3593 33.7967C27.2343 33.9061 26.9061 33.578 27.0155 33.3592C27.1249 33.1405 27.7811 33.4686 27.5624 32.9217C27.5624 32.8124 26.7968 32.703 27.0155 32.3749C27.453 31.828 28.1093 32.2655 28.6561 32.8124Z" fill="#ED4C5C"/>
<path d="M23.6249 48.7812L23.4062 48.2344L23.6249 47.5781L23.8437 48.2344L23.6249 48.7812Z" fill="#ED4C5C"/>
<path d="M18.0468 33.1406V33.6875H18.2655V34.125H17.7187V35.2188H18.0468V37.625H17.3905V38.8281H21.8749V37.625H21.328V35.2188H21.5468V34.125H20.9999V33.6875H21.328V33.1406H20.2343V33.6875H20.453V34.125H19.9062V32.8125H20.2343V32.2656H19.0312V32.8125H19.3593V34.125H18.8124V33.6875H19.0312V33.1406H18.0468Z" fill="#C8B100"/>
<path d="M30.4061 46.5935V41.1248H24.7186V46.5935L27.3436 47.7966H27.6718L30.4061 46.5935ZM27.3436 41.5623V43.4216L25.4843 41.5623H27.3436ZM25.0468 41.6716L27.2343 43.8591L25.0468 46.0466V41.6716ZM25.2655 46.4841L27.3436 44.406V47.4685L25.2655 46.4841ZM27.6718 47.3591V44.2966L29.7499 46.3748L27.6718 47.3591ZM29.9686 46.0466L27.7811 43.8591L29.9686 41.6716V46.0466ZM27.6718 41.5623H29.5311L27.6718 43.4216V41.5623Z" fill="#C8B100"/>
<path d="M21 39.9221C21 38.2815 22.0937 37.0784 23.5156 37.0784C24.9375 37.0784 26.0312 38.3909 26.0312 39.9221C26.0312 41.4534 24.9375 42.7659 23.5156 42.7659C22.0937 42.7659 21 41.5627 21 39.9221Z" fill="#ED4C5C"/>
<path d="M21.7655 39.9216C21.7655 38.7185 22.5312 37.8435 23.5155 37.8435C24.4999 37.8435 25.2655 38.8279 25.2655 39.9216C25.2655 41.1248 24.4999 41.9998 23.5155 41.9998C22.6405 42.1091 21.7655 41.1248 21.7655 39.9216Z" fill="#005BBF"/>
<path d="M22.7499 38.5002L22.3124 39.7034L22.6405 39.8127L22.4218 40.2502H23.078L22.8593 39.8127L23.1874 39.7034L22.7499 38.5002Z" fill="#C8B100"/>
<path d="M24.3905 38.5002L23.953 39.7034L24.2812 39.8127L24.0624 40.2502H24.7187L24.6093 39.8127L24.9374 39.7034L24.3905 38.5002Z" fill="#C8B100"/>
<path d="M23.6249 39.9219L23.078 41.125L23.4061 41.2344L23.2968 41.6719H23.8436L23.7343 41.2344L24.0624 41.125L23.6249 39.9219Z" fill="#C8B100"/>
</svg>
