<svg width="70" height="70" viewBox="0 0 70 70" fill="none" xmlns="http://www.w3.org/2000/svg">
<path d="M18.5938 63.4375V6.5625C8.75 12.25 2.1875 22.8594 2.1875 35C2.1875 47.1406 8.75 57.75 18.5938 63.4375Z" fill="#699635"/>
<path d="M35 2.1875C28.9844 2.1875 23.4062 3.82812 18.5938 6.5625V63.4375C23.4062 66.2812 28.9844 67.8125 35 67.8125C53.1562 67.8125 67.8125 53.1562 67.8125 35C67.8125 16.8438 53.1562 2.1875 35 2.1875Z" fill="#ED4C5C"/>
<path d="M18.5938 21.875C11.375 21.875 5.46875 27.7812 5.46875 35C5.46875 42.2188 11.375 48.125 18.5938 48.125C25.8125 48.125 31.7188 42.2188 31.7188 35C31.7188 27.7812 25.8125 21.875 18.5938 21.875ZM18.5938 46.4844C12.25 46.4844 7.10938 41.3438 7.10938 35C7.10938 28.6562 12.25 23.5156 18.5938 23.5156C24.9375 23.5156 30.0781 28.6562 30.0781 35C30.0781 41.3438 24.9375 46.4844 18.5938 46.4844Z" fill="#FFE62E"/>
<path d="M23.0781 47.7971C22.8594 48.0159 22.5312 48.0159 22.3125 47.7971L7.32811 28.0002C7.10936 27.7815 7.10936 27.4534 7.32811 27.2346L7.65623 26.9065C7.87498 26.6877 8.20311 26.6877 8.42186 26.9065L23.4062 46.7034C23.625 46.9221 23.625 47.2502 23.4062 47.469L23.0781 47.7971Z" fill="#FFE62E"/>
<path d="M18.8125 21.3281C19.1406 21.3281 19.3594 21.5469 19.3594 21.875V48.125C19.3594 48.4531 19.1406 48.6719 18.8125 48.6719H18.2656C17.9375 48.6719 17.7188 48.4531 17.7188 48.125V21.875C17.7188 21.5469 17.9375 21.3281 18.2656 21.3281H18.8125Z" fill="#FFE62E"/>
<path d="M31.6094 36.4221L18.5938 34.1252V35.7659L31.3906 38.0627C31.7188 38.0627 31.9375 37.9534 32.0469 37.6252L32.1562 37.0784C32.1562 36.8596 31.9375 36.5315 31.6094 36.4221Z" fill="#FFE62E"/>
<path d="M18.5937 34.0152L8.31249 26.7965C8.09374 26.5777 7.76562 26.6871 7.54687 26.9059L7.21874 27.3434C6.99999 27.5621 7.10936 27.8902 7.32811 28.109L18.5937 35.984V34.0152Z" fill="#FFE62E"/>
<path d="M18.1562 32.8125L7.87498 43.0938C7.65623 43.3125 7.65623 43.6406 7.87498 43.8594L8.31248 44.2969C8.53123 44.5156 8.85936 44.5156 9.07811 44.2969L18.1562 35.2188V32.8125Z" fill="#FFE62E"/>
<path d="M18.5938 27.8906L4.92188 34.3438C4.70313 34.4531 4.48438 34.7813 4.70313 35.1094L4.92188 35.6563C5.03125 35.875 5.35938 36.0938 5.6875 35.875L18.5938 29.75V27.8906Z" fill="#FFE62E"/>
<path d="M30.7344 29.7498L17.7188 27.4529V29.0935L30.5156 31.3904C30.8438 31.3904 31.0625 31.281 31.1719 30.9529L31.2813 30.406C31.1719 30.0779 30.9531 29.7498 30.7344 29.7498Z" fill="#FFE62E"/>
<path d="M18.4844 42.5466C18.2656 42.656 18.0469 42.9841 18.2656 43.3123L18.4844 43.8591C18.5938 44.0779 18.9219 44.2966 19.25 44.0779L30.1875 39.0466L30.7344 36.9685L18.4844 42.5466Z" fill="#FFE62E"/>
<path d="M18.4844 38.8284L6.23439 34.344V36.094L18.4844 40.5784V38.8284Z" fill="#FFE62E"/>
<path d="M9.95309 42.4373V44.0779L26.1406 45.1716C26.7968 44.7341 27.3437 44.1873 27.8906 43.6404L9.95309 42.4373Z" fill="#FFE62E"/>
<path d="M13.125 29.5312V37.1875C13.125 40.25 15.5312 42.6562 18.5938 42.6562C21.6562 42.6562 24.0625 40.25 24.0625 37.1875V29.5312H13.125Z" fill="white"/>
<path d="M18.5938 44.8438C14.3281 44.8438 10.9375 41.4531 10.9375 37.1875V27.3438H26.25V37.1875C26.25 41.4531 22.8594 44.8438 18.5938 44.8438ZM15.3125 31.7188V37.1875C15.3125 39.0469 16.7344 40.4688 18.5938 40.4688C20.4531 40.4688 21.875 39.0469 21.875 37.1875V31.7188H15.3125Z" fill="#ED4C5C"/>
<path d="M17.6094 32.156V33.906C17.6094 34.2341 17.8281 34.4529 18.1562 34.4529H19.0312C19.3594 34.4529 19.5781 34.2341 19.5781 33.906V32.0466H17.6094V32.156Z" fill="#0071BC"/>
<path d="M17.6094 34.8901V36.7495C17.6094 37.0776 17.8281 37.2964 18.1562 37.2964H19.0312C19.3594 37.2964 19.5781 37.0776 19.5781 36.7495V34.8901H17.6094Z" fill="#0071BC"/>
<path d="M15.4219 34.8901V36.7495C15.4219 37.0776 15.6406 37.2964 15.9687 37.2964H16.8437C17.1719 37.2964 17.3906 37.0776 17.3906 36.7495V34.8901H15.4219Z" fill="#0071BC"/>
<path d="M19.7969 34.8901V36.7495C19.7969 37.0776 20.0156 37.2964 20.3437 37.2964H21.2187C21.5469 37.2964 21.7656 37.0776 21.7656 36.7495V34.8901H19.7969Z" fill="#0071BC"/>
<path d="M17.6094 37.5154V39.3748C17.6094 39.7029 17.8281 39.9216 18.1562 39.9216H19.0312C19.3594 39.9216 19.5781 39.7029 19.5781 39.3748V37.5154H17.6094Z" fill="#0071BC"/>
<path d="M18.5938 36.2034C18.7146 36.2034 18.8125 36.1054 18.8125 35.9846C18.8125 35.8638 18.7146 35.7659 18.5938 35.7659C18.473 35.7659 18.375 35.8638 18.375 35.9846C18.375 36.1054 18.473 36.2034 18.5938 36.2034Z" fill="white"/>
<path d="M18.1563 36.7502C18.2771 36.7502 18.375 36.6523 18.375 36.5315C18.375 36.4107 18.2771 36.3127 18.1563 36.3127C18.0355 36.3127 17.9375 36.4107 17.9375 36.5315C17.9375 36.6523 18.0355 36.7502 18.1563 36.7502Z" fill="white"/>
<path d="M19.0312 36.7502C19.1521 36.7502 19.25 36.6523 19.25 36.5315C19.25 36.4107 19.1521 36.3127 19.0312 36.3127C18.9104 36.3127 18.8125 36.4107 18.8125 36.5315C18.8125 36.6523 18.9104 36.7502 19.0312 36.7502Z" fill="white"/>
<path d="M18.1563 35.6565C18.2771 35.6565 18.375 35.5586 18.375 35.4377C18.375 35.3169 18.2771 35.219 18.1563 35.219C18.0355 35.219 17.9375 35.3169 17.9375 35.4377C17.9375 35.5586 18.0355 35.6565 18.1563 35.6565Z" fill="white"/>
<path d="M19.0312 35.6565C19.1521 35.6565 19.25 35.5586 19.25 35.4377C19.25 35.3169 19.1521 35.219 19.0312 35.219C18.9104 35.219 18.8125 35.3169 18.8125 35.4377C18.8125 35.5586 18.9104 35.6565 19.0312 35.6565Z" fill="white"/>
<path d="M18.5938 33.469C18.7146 33.469 18.8125 33.3711 18.8125 33.2502C18.8125 33.1294 18.7146 33.0315 18.5938 33.0315C18.473 33.0315 18.375 33.1294 18.375 33.2502C18.375 33.3711 18.473 33.469 18.5938 33.469Z" fill="white"/>
<path d="M18.1563 34.0159C18.2771 34.0159 18.375 33.9179 18.375 33.7971C18.375 33.6763 18.2771 33.5784 18.1563 33.5784C18.0355 33.5784 17.9375 33.6763 17.9375 33.7971C17.9375 33.9179 18.0355 34.0159 18.1563 34.0159Z" fill="white"/>
<path d="M19.0312 34.0159C19.1521 34.0159 19.25 33.9179 19.25 33.7971C19.25 33.6763 19.1521 33.5784 19.0312 33.5784C18.9104 33.5784 18.8125 33.6763 18.8125 33.7971C18.8125 33.9179 18.9104 34.0159 19.0312 34.0159Z" fill="white"/>
<path d="M18.1563 32.9221C18.2771 32.9221 18.375 32.8242 18.375 32.7034C18.375 32.5826 18.2771 32.4846 18.1563 32.4846C18.0355 32.4846 17.9375 32.5826 17.9375 32.7034C17.9375 32.8242 18.0355 32.9221 18.1563 32.9221Z" fill="white"/>
<path d="M19.0312 32.9221C19.1521 32.9221 19.25 32.8242 19.25 32.7034C19.25 32.5826 19.1521 32.4846 19.0312 32.4846C18.9104 32.4846 18.8125 32.5826 18.8125 32.7034C18.8125 32.8242 18.9104 32.9221 19.0312 32.9221Z" fill="white"/>
<path d="M20.7813 36.2034C20.9021 36.2034 21 36.1054 21 35.9846C21 35.8638 20.9021 35.7659 20.7813 35.7659C20.6605 35.7659 20.5625 35.8638 20.5625 35.9846C20.5625 36.1054 20.6605 36.2034 20.7813 36.2034Z" fill="white"/>
<path d="M20.3438 36.7502C20.4646 36.7502 20.5625 36.6523 20.5625 36.5315C20.5625 36.4107 20.4646 36.3127 20.3438 36.3127C20.223 36.3127 20.125 36.4107 20.125 36.5315C20.125 36.6523 20.223 36.7502 20.3438 36.7502Z" fill="white"/>
<path d="M21.2187 36.7502C21.3396 36.7502 21.4375 36.6523 21.4375 36.5315C21.4375 36.4107 21.3396 36.3127 21.2187 36.3127C21.0979 36.3127 21 36.4107 21 36.5315C21 36.6523 21.0979 36.7502 21.2187 36.7502Z" fill="white"/>
<path d="M20.3438 35.6565C20.4646 35.6565 20.5625 35.5586 20.5625 35.4377C20.5625 35.3169 20.4646 35.219 20.3438 35.219C20.223 35.219 20.125 35.3169 20.125 35.4377C20.125 35.5586 20.223 35.6565 20.3438 35.6565Z" fill="white"/>
<path d="M21.2187 35.6565C21.3396 35.6565 21.4375 35.5586 21.4375 35.4377C21.4375 35.3169 21.3396 35.219 21.2187 35.219C21.0979 35.219 21 35.3169 21 35.4377C21 35.5586 21.0979 35.6565 21.2187 35.6565Z" fill="white"/>
<path d="M16.4063 36.2034C16.5271 36.2034 16.625 36.1054 16.625 35.9846C16.625 35.8638 16.5271 35.7659 16.4063 35.7659C16.2855 35.7659 16.1875 35.8638 16.1875 35.9846C16.1875 36.1054 16.2855 36.2034 16.4063 36.2034Z" fill="white"/>
<path d="M15.9688 36.7502C16.0896 36.7502 16.1875 36.6523 16.1875 36.5315C16.1875 36.4107 16.0896 36.3127 15.9688 36.3127C15.848 36.3127 15.75 36.4107 15.75 36.5315C15.75 36.6523 15.848 36.7502 15.9688 36.7502Z" fill="white"/>
<path d="M16.8437 36.7502C16.9646 36.7502 17.0625 36.6523 17.0625 36.5315C17.0625 36.4107 16.9646 36.3127 16.8437 36.3127C16.7229 36.3127 16.625 36.4107 16.625 36.5315C16.625 36.6523 16.7229 36.7502 16.8437 36.7502Z" fill="white"/>
<path d="M15.9688 35.6565C16.0896 35.6565 16.1875 35.5586 16.1875 35.4377C16.1875 35.3169 16.0896 35.219 15.9688 35.219C15.848 35.219 15.75 35.3169 15.75 35.4377C15.75 35.5586 15.848 35.6565 15.9688 35.6565Z" fill="white"/>
<path d="M16.8437 35.6565C16.9646 35.6565 17.0625 35.5586 17.0625 35.4377C17.0625 35.3169 16.9646 35.219 16.8437 35.219C16.7229 35.219 16.625 35.3169 16.625 35.4377C16.625 35.5586 16.7229 35.6565 16.8437 35.6565Z" fill="white"/>
<path d="M18.5938 38.9377C18.7146 38.9377 18.8125 38.8398 18.8125 38.719C18.8125 38.5982 18.7146 38.5002 18.5938 38.5002C18.473 38.5002 18.375 38.5982 18.375 38.719C18.375 38.8398 18.473 38.9377 18.5938 38.9377Z" fill="white"/>
<path d="M18.1563 39.4846C18.2771 39.4846 18.375 39.3867 18.375 39.2659C18.375 39.1451 18.2771 39.0471 18.1563 39.0471C18.0355 39.0471 17.9375 39.1451 17.9375 39.2659C17.9375 39.3867 18.0355 39.4846 18.1563 39.4846Z" fill="white"/>
<path d="M19.0312 39.4846C19.1521 39.4846 19.25 39.3867 19.25 39.2659C19.25 39.1451 19.1521 39.0471 19.0312 39.0471C18.9104 39.0471 18.8125 39.1451 18.8125 39.2659C18.8125 39.3867 18.9104 39.4846 19.0312 39.4846Z" fill="white"/>
<path d="M18.1563 38.3909C18.2771 38.3909 18.375 38.2929 18.375 38.1721C18.375 38.0513 18.2771 37.9534 18.1563 37.9534C18.0355 37.9534 17.9375 38.0513 17.9375 38.1721C17.9375 38.2929 18.0355 38.3909 18.1563 38.3909Z" fill="white"/>
<path d="M19.0312 38.3909C19.1521 38.3909 19.25 38.2929 19.25 38.1721C19.25 38.0513 19.1521 37.9534 19.0312 37.9534C18.9104 37.9534 18.8125 38.0513 18.8125 38.1721C18.8125 38.2929 18.9104 38.3909 19.0312 38.3909Z" fill="white"/>
<path d="M17.5 30.625H19.6875L19.4687 29.5312V28.4375H19.6875V27.8906H19.3594V28.2187H19.25V27.8906H18.9219V28.2187H18.7031V27.8906H18.4844V28.2187H18.2656V27.8906H17.9375V28.2187H17.7188V27.8906H17.5V28.4375H17.7188V29.5312L17.5 30.625Z" fill="#FFE62E"/>
<path d="M18.9219 30.625H18.8125V30.1875C18.8125 30.0781 18.7031 29.9688 18.5937 29.9688C18.4844 29.9688 18.375 30.0781 18.375 30.1875V30.625H18.2656V30.1875C18.2656 29.9688 18.375 29.8594 18.5937 29.8594C18.8125 29.8594 18.9219 29.9688 18.9219 30.1875V30.625Z" fill="#3E4347"/>
<path d="M18.5938 29.4216H17.9375V28.8748C17.9375 28.656 18.0469 28.5466 18.2656 28.5466C18.4844 28.5466 18.5938 28.656 18.5938 28.8748V29.4216ZM18.0469 29.3123H18.4844V28.8748C18.4844 28.7654 18.375 28.656 18.2656 28.656C18.1563 28.656 18.0469 28.7654 18.0469 28.8748V29.3123Z" fill="#3E4347"/>
<path d="M19.25 29.4216H18.5938V28.8748C18.5938 28.656 18.7031 28.5466 18.9219 28.5466C19.1406 28.5466 19.25 28.656 19.25 28.8748V29.4216ZM18.7031 29.3123H19.1406V28.8748C19.1406 28.7654 19.0312 28.656 18.9219 28.656C18.8125 28.656 18.7031 28.7654 18.7031 28.8748V29.3123Z" fill="#3E4347"/>
<path d="M12.0312 30.625H14.2188L14 29.5312V28.4375H14.2188V27.8906H13.8906V28.2187H13.7813V27.8906H13.4531V28.2187H13.2344V27.8906H13.0156V28.2187H12.7969V27.8906H12.4687V28.2187H12.25V27.8906H12.0312V28.4375H12.25V29.5312L12.0312 30.625Z" fill="#FFE62E"/>
<path d="M13.4531 30.625H13.3437V30.1875C13.3437 30.0781 13.2344 29.9688 13.125 29.9688C13.0156 29.9688 12.9063 30.0781 12.9063 30.1875V30.625H12.7969V30.1875C12.7969 29.9688 12.9063 29.8594 13.125 29.8594C13.3437 29.8594 13.4531 29.9688 13.4531 30.1875V30.625Z" fill="#3E4347"/>
<path d="M13.125 29.4216H12.4688V28.8748C12.4688 28.656 12.5781 28.5466 12.7969 28.5466C13.0156 28.5466 13.125 28.656 13.125 28.8748V29.4216ZM12.5781 29.3123H13.0156V28.8748C13.0156 28.7654 12.9063 28.656 12.7969 28.656C12.6875 28.656 12.5781 28.7654 12.5781 28.8748V29.3123Z" fill="#3E4347"/>
<path d="M13.7812 29.4216H13.125V28.8748C13.125 28.656 13.2344 28.5466 13.4531 28.5466C13.6719 28.5466 13.7812 28.656 13.7812 28.8748V29.4216ZM13.2344 29.3123H13.6719V28.8748C13.6719 28.7654 13.5625 28.656 13.4531 28.656C13.3438 28.656 13.2344 28.7654 13.2344 28.8748V29.3123Z" fill="#3E4347"/>
<path d="M12.0312 37.0784H14.2188L14 35.9846V34.8909H14.2188V34.344H14V34.6721H13.7813V34.344H13.5625V34.6721H13.2344V34.344H13.0156V34.6721H12.7969V34.344H12.5781V34.6721H12.3594V34.344H12.0312V34.8909H12.3594V35.9846L12.0312 37.0784Z" fill="#FFE62E"/>
<path d="M13.4531 37.0784H13.3437V36.6409C13.3437 36.5315 13.2344 36.4221 13.125 36.4221C13.0156 36.4221 12.9063 36.5315 12.9063 36.6409V37.0784H12.7969V36.6409C12.7969 36.4221 12.9063 36.3127 13.125 36.3127C13.3437 36.3127 13.4531 36.4221 13.4531 36.6409V37.0784Z" fill="#3E4347"/>
<path d="M13.125 35.875H12.4688V35.3281C12.4688 35.1094 12.5781 35 12.7969 35C13.0156 35 13.125 35.1094 13.125 35.3281V35.875ZM12.5781 35.7656H13.0156V35.3281C13.0156 35.2187 12.9063 35.1094 12.7969 35.1094C12.6875 35.1094 12.5781 35.2187 12.5781 35.3281V35.7656Z" fill="#3E4347"/>
<path d="M13.8907 35.875H13.2344V35.3281C13.2344 35.1094 13.3438 35 13.5625 35C13.7813 35 13.8907 35.1094 13.8907 35.3281V35.875ZM13.3438 35.7656H13.7813V35.3281C13.7813 35.2187 13.6719 35.1094 13.5625 35.1094C13.4532 35.1094 13.3438 35.2187 13.3438 35.3281V35.7656Z" fill="#3E4347"/>
<path d="M22.9688 37.1873H25.1562L24.9375 36.0935V34.9998H25.1562V34.5623H24.8281V34.781H24.7188V34.5623H24.3906V34.781H24.1719V34.5623H23.9531V34.781H23.7344V34.5623H23.4062V34.781H23.1875V34.5623H22.9688V34.9998H23.1875V36.0935L22.9688 37.1873Z" fill="#FFE62E"/>
<path d="M24.3906 37.1875H24.2812V36.75C24.2812 36.6406 24.1719 36.5313 24.0625 36.5313C23.9531 36.5313 23.8437 36.6406 23.8437 36.75V37.1875H23.7344V36.75C23.7344 36.5312 23.8437 36.4219 24.0625 36.4219C24.2812 36.4219 24.3906 36.5312 24.3906 36.75V37.1875Z" fill="#3E4347"/>
<path d="M24.0625 35.9841H23.4063V35.4373C23.4063 35.2185 23.5156 35.1091 23.7344 35.1091C23.9531 35.1091 24.0625 35.2185 24.0625 35.4373V35.9841ZM23.5156 35.8748H23.9531V35.4373C23.9531 35.3279 23.8438 35.2185 23.7344 35.2185C23.625 35.2185 23.5156 35.3279 23.5156 35.4373V35.8748Z" fill="#3E4347"/>
<path d="M24.7188 35.9841H24.0625V35.4373C24.0625 35.2185 24.1719 35.1091 24.3906 35.1091C24.6094 35.1091 24.7188 35.2185 24.7188 35.4373V35.9841ZM24.1719 35.8748H24.6094V35.4373C24.6094 35.3279 24.5 35.2185 24.3906 35.2185C24.2812 35.2185 24.1719 35.3279 24.1719 35.4373V35.8748Z" fill="#3E4347"/>
<path d="M22.9688 30.625H25.1562L24.9375 29.5312V28.4375H25.1562V27.8906H24.8281V28.2187H24.7188V27.8906H24.3906V28.2187H24.1719V27.8906H23.9531V28.2187H23.7344V27.8906H23.4062V28.2187H23.1875V27.8906H22.9688V28.4375H23.1875V29.5312L22.9688 30.625Z" fill="#FFE62E"/>
<path d="M24.3906 30.625H24.2812V30.1875C24.2812 30.0781 24.1719 29.9688 24.0625 29.9688C23.9531 29.9688 23.8437 30.0781 23.8437 30.1875V30.625H23.7344V30.1875C23.7344 29.9688 23.8437 29.8594 24.0625 29.8594C24.2812 29.8594 24.3906 29.9688 24.3906 30.1875V30.625Z" fill="#3E4347"/>
<path d="M24.0625 29.4216H23.4063V28.8748C23.4063 28.656 23.5156 28.5466 23.7344 28.5466C23.9531 28.5466 24.0625 28.656 24.0625 28.8748V29.4216ZM23.5156 29.3123H23.9531V28.8748C23.9531 28.7654 23.8438 28.656 23.7344 28.656C23.625 28.656 23.5156 28.7654 23.5156 28.8748V29.3123Z" fill="#3E4347"/>
<path d="M24.7188 29.4216H24.0625V28.8748C24.0625 28.656 24.1719 28.5466 24.3906 28.5466C24.6094 28.5466 24.7188 28.656 24.7188 28.8748V29.4216ZM24.1719 29.3123H24.6094V28.8748C24.6094 28.7654 24.5 28.656 24.3906 28.656C24.2812 28.656 24.1719 28.7654 24.1719 28.8748V29.3123Z" fill="#3E4347"/>
<path d="M15.5312 43.3127L17.0625 41.6721L16.0781 41.1252L15.3125 40.3596L15.5312 40.1409L15.2031 39.8127L14.9844 40.0315L15.2031 40.2502L15.0938 40.3596L14.875 40.1409L14.6562 40.3596L14.875 40.469L14.6562 40.6877L14.5469 40.469L14.3281 40.6877L14.5469 40.9065L14.3281 41.0159L14.2187 40.7971L14 41.0159L14.1094 41.2346L14 41.344L13.8906 41.1252L13.6719 41.344L14 41.6721H14.1094L14.2187 41.5627L14.9844 42.3284L15.5312 43.3127Z" fill="#FFE62E"/>
<path d="M16.5157 42.2183L16.0782 41.9995C15.9688 41.8901 15.8594 41.8901 15.75 41.9995C15.6407 42.1089 15.6407 42.2183 15.75 42.3276L16.0782 42.6558L15.9688 42.7651L15.6407 42.437C15.5313 42.3276 15.5313 42.1089 15.6407 41.9995C15.75 41.8901 15.9688 41.8901 16.0782 41.9995L16.5157 42.2183Z" fill="#3E4347"/>
<path d="M15.4219 41.6716L14.9844 42.1091L14.6563 41.781C14.5469 41.6716 14.5469 41.4529 14.6563 41.3435C14.7656 41.2341 14.9844 41.2341 15.0938 41.3435L15.4219 41.6716ZM14.9844 41.9998L15.3125 41.6716L14.9844 41.3435C14.875 41.2341 14.7656 41.2341 14.6563 41.3435C14.5469 41.4529 14.5469 41.5623 14.6563 41.6716L14.9844 41.9998Z" fill="#3E4347"/>
<path d="M15.9688 41.1248L15.5313 41.5623L15.2031 41.2341C15.0938 41.1248 15.0938 40.906 15.2031 40.7966C15.3125 40.6873 15.5313 40.6873 15.6406 40.7966L15.9688 41.1248ZM15.5313 41.4529L15.8594 41.1248L15.5313 40.7966C15.4219 40.6873 15.3125 40.6873 15.2031 40.7966C15.0938 40.906 15.0938 41.0154 15.2031 41.1248L15.5313 41.4529Z" fill="#3E4347"/>
<path d="M21.6563 43.3127L20.125 41.6721L21 41.1252L21.7656 40.3596L21.6563 40.1409L21.9844 39.8127L22.2031 40.0315L21.9844 40.2502L22.0938 40.3596L22.3125 40.1409L22.5313 40.3596L22.3125 40.469L22.5313 40.6877L22.6406 40.469L22.8594 40.6877L22.6406 40.9065L22.8594 41.0159L22.9688 40.7971L23.1875 41.0159L22.9688 41.2346L23.1875 41.344L23.2969 41.1252L23.5156 41.344L23.1875 41.6721H23.0781L22.9688 41.5627L22.2031 42.3284L21.6563 43.3127Z" fill="#FFE62E"/>
<path d="M20.6719 42.2183L21.1094 41.9995C21.2188 41.8901 21.3281 41.8901 21.4375 41.9995C21.5469 42.1089 21.5469 42.2183 21.4375 42.3276L21 42.6558L21.1094 42.7651L21.4375 42.437C21.5469 42.3276 21.5469 42.1089 21.4375 41.9995C21.3281 41.8901 21.1094 41.8901 21 41.9995L20.6719 42.2183Z" fill="#3E4347"/>
<path d="M22.0938 41.3435C22.2031 41.2341 22.4219 41.2341 22.5313 41.3435C22.6406 41.4529 22.6406 41.6716 22.5313 41.781L22.2031 42.1091L21.7656 41.6716L22.0938 41.3435ZM22.4219 41.6716C22.5313 41.5623 22.5313 41.4529 22.4219 41.3435C22.3125 41.2341 22.2031 41.2341 22.0938 41.3435L21.875 41.6716L22.2031 41.9998L22.4219 41.6716Z" fill="#3E4347"/>
<path d="M21.5469 40.7966C21.6563 40.6873 21.875 40.6873 21.9844 40.7966C22.0938 40.906 22.0938 41.1248 21.9844 41.2341L21.6563 41.5623L21.2188 41.1248L21.5469 40.7966ZM21.9844 41.1248C22.0938 41.0154 22.0938 40.906 21.9844 40.7966C21.875 40.6873 21.7656 40.6873 21.6563 40.7966L21.3281 41.1248L21.6563 41.4529L21.9844 41.1248Z" fill="#3E4347"/>
</svg>
