<svg width="70" height="70" viewBox="0 0 70 70" fill="none" xmlns="http://www.w3.org/2000/svg">
<path d="M3.5 29.0935V30.1873H4.15625V31.281H4.8125V30.1873H5.46875V29.0935H6.125V27.9998H6.78125V26.906H7.4375V25.8123H8.09375V24.7185H7.21875V23.6248H6.67187V22.531H4.70313V23.6248H6.01562V24.7185H5.35938V25.8123H4.70313V26.906H4.04688V25.8123H3.5C3.28125 26.6873 3.0625 27.6716 2.84375 28.5466V28.9841H3.5V29.0935Z" fill="white"/>
<path d="M11.0469 12.5781L10.7188 12.9062H11.0469V12.5781Z" fill="white"/>
<path d="M16.1874 8.64038H15.5312V9.73413H14.8749V10.8279H14.2187V11.9216H13.5624V13.0154H12.9062V11.9216H12.2499V11.3748L11.5937 12.031V13.0154H12.2499V14.1091H12.9062V15.2029H12.2499V16.2966H11.5937V17.3904H10.9374V16.2966H10.3906V15.2029H9.84369V14.1091C9.62494 14.3279 9.40619 14.656 9.18744 14.8748V15.2029H8.96869C8.74994 15.3123 8.64056 15.4216 8.53119 15.6404V16.1873H8.09369C7.98431 16.2966 7.98431 16.406 7.87494 16.5154V17.1716H7.43744C7.21869 17.4998 6.99994 17.9373 6.78119 18.2654H7.32806V19.3591H7.98431V20.4529H8.64056V21.5466H9.29681V22.6404H9.84369V21.5466H10.4999V20.4529H11.1562V19.3591H11.8124V18.2654H12.4687V17.1716H13.1249V16.0779H13.7812V17.1716H14.2187V18.2654H14.8749V19.3591H15.5312V20.4529H16.1874V21.5466H16.8437V19.3591H16.1874V18.2654H16.8437V15.0935H16.1874V16.1873H15.5312V17.281H14.8749V16.1873H14.2187V15.0935H13.5624V13.9998H14.2187V12.906H14.8749V11.8123H15.5312V12.906H16.1874V13.9998H16.8437V10.7185H16.1874V9.62476H16.8437V7.76538C16.6249 7.87476 16.4062 8.09351 16.1874 8.20288V8.64038ZM9.84369 19.3591H9.18744V17.1716H9.84369V19.3591Z" fill="white"/>
<path d="M2.84375 38.7183V37.6245H3.5V36.5308H4.15625V35.437H4.8125V34.3433H4.04688V33.2495H3.5V32.1558H2.84375V31.062H2.40625C2.29688 32.4839 2.1875 33.687 2.1875 34.9995C2.1875 36.312 2.29688 37.5151 2.40625 38.7183H2.84375Z" fill="white"/>
<path d="M16.1875 32.2654H15.5312V33.3591H14.875V34.4529H14.2188V35.5466H14.875V36.6404H15.5312V37.7341H16.1875V38.7185H16.7344V31.281H16.1875V32.2654Z" fill="white"/>
<path d="M10.3906 13.2341C10.1719 13.4529 9.95312 13.781 9.73438 13.9998H10.3906V13.2341Z" fill="white"/>
<path d="M10.7188 57.0933L11.0469 57.4214V57.0933H10.7188Z" fill="white"/>
<path d="M9.84375 55.9995C10.0625 56.2183 10.2813 56.5464 10.5 56.7651V55.9995H9.84375Z" fill="white"/>
<path d="M16.1874 60.2654V59.1716H16.8437V55.8904H16.1874V56.9841H15.5312V58.0779H14.8749V56.9841H14.2187V55.8904H13.5624V54.7966H14.2187V53.7029H14.8749V52.6091H15.5312V53.7029H16.1874V54.7966H16.8437V51.5154H16.1874V50.4216H16.8437V48.2341H16.1874V49.3279H15.5312V50.4216H14.8749V51.5154H14.2187V52.6091H13.5624V53.7029H12.9062V52.6091H12.2499V51.5154H11.5937V50.4216H10.9374V49.3279H10.3906V48.2341H9.84369V47.1404H9.18744V48.2341H8.53119V49.3279H7.87494V50.4216H7.21869V51.5154H6.78119C6.99994 51.8435 7.21869 52.281 7.43744 52.6091H7.87494V53.2654C7.98431 53.3748 7.98431 53.4841 8.09369 53.5935H8.53119V54.1404C8.64056 54.5779 8.74994 54.6873 8.96869 54.906H9.18744V55.2341C9.40619 55.4529 9.62494 55.781 9.84369 55.9998V54.906H10.4999V53.8123H11.1562V52.7185H11.8124V53.8123H12.4687V54.906H13.1249V55.9998H12.4687V57.0935H11.8124V58.0779L12.4687 58.7341V58.1873H13.1249V57.0935H13.7812V58.1873H14.2187V59.281H14.8749V60.3748H15.5312V61.4685H16.1874V61.906C16.4062 62.0154 16.6249 62.2341 16.8437 62.3435V60.3748L16.1874 60.2654ZM9.84369 52.7185H9.18744V50.531H9.84369V52.7185Z" fill="white"/>
<path d="M16.1875 40.9058H15.5312V39.812H14.875V38.7183H14.2187V39.812H13.5625V40.9058H13.0156V41.9995H12.3594V43.0933H11.7031V44.187H11.0469V45.1714H11.7031V46.2651H12.3594V47.3589H14.2187V46.2651H13.0156V45.1714H13.5625V44.187H14.2187V43.0933H14.875V44.187H15.5312V45.1714H16.1875V46.2651H16.7344V44.187H16.1875V43.0933H16.7344V41.9995H16.1875V40.9058Z" fill="white"/>
<path d="M16.1875 24.8276H15.5312V25.812H14.875V26.9058H14.2187V25.812H13.5625V24.8276H13.0156V23.7339H14.2187V22.6401H12.3594V23.7339H11.7031V24.8276H11.0469V25.812H11.7031V26.9058H12.3594V27.9995H13.0156V29.0933H13.5625V30.187H14.2187V31.2808H14.875V30.187H15.5312V29.0933H16.1875V27.9995H16.7344V26.9058H16.1875V25.812H16.7344V23.7339H16.1875V24.8276Z" fill="white"/>
<path d="M4.04688 43.0933H4.70313V44.187H5.35938V45.2808H6.01562V46.3745H4.70313V47.4683H6.5625V46.3745H7.21875V45.2808H7.875V44.187H7.21875V43.0933H6.67188V41.9995H6.01562V40.9058H5.35938V39.812H4.70313V38.7183H4.04688V39.812H3.5V40.9058H2.84375V41.3433C3.0625 42.3276 3.28125 43.2026 3.5 44.0776H4.04688V43.0933Z" fill="white"/>
<path d="M11.0469 29.0935H10.3906V27.9998H9.84375V26.906H9.1875V27.9998H8.53125V29.0935H7.875V30.1873H7.21875V31.281H6.67187V32.3748H6.01562V37.8435H6.67187V38.9373H7.32812V40.031H7.98438V41.1248H8.64062V42.2185H9.29688V43.3123H9.84375V42.2185H10.5V41.1248H11.1562V40.031H11.8125V38.9373H12.4687V37.8435H13.125V32.3748H12.4687V31.281H11.8125V30.1873H11.1562L11.0469 29.0935ZM7.21875 34.8904V35.5466H6.67187V34.4529H7.32812V34.8904H7.21875ZM11.7031 35.1091V34.4529H12.3594V35.5466H11.7031V35.1091ZM9.1875 29.0935H9.84375V30.1873H9.1875V29.0935ZM9.84375 40.906H9.1875V39.8123H9.84375V40.906ZM11.0469 33.3591H10.3906V34.4529H9.84375V35.5466H10.5V36.6404H11.1562V38.8279H10.3906V37.7341H9.84375V36.6404H9.1875V37.7341H8.53125V38.8279H7.875V36.6404H8.53125V35.5466H9.1875V34.4529H8.53125V33.3591H7.875V31.1716H8.53125V32.2654H9.1875V33.3591H9.84375V32.2654H10.5V31.1716H11.1562L11.0469 33.3591Z" fill="white"/>
<path d="M7.87494 16.5154C7.76556 16.7341 7.54681 16.9529 7.43744 17.1716H7.87494V16.5154Z" fill="#C8313E"/>
<path d="M8.53113 16.1873V15.6404C8.42175 15.8591 8.31238 15.9685 8.09363 16.1873H8.53113Z" fill="#C8313E"/>
<path d="M9.18744 15.0938V14.7656C9.07806 14.875 9.07806 14.9844 8.96869 15.0938H9.18744Z" fill="#C8313E"/>
<path d="M6.67181 34.8906V35.5469H7.21869V34.4531H6.67181V34.8906Z" fill="#C8313E"/>
<path d="M16.1874 18.3748H16.8437V19.4685H16.1874V18.3748Z" fill="#C8313E"/>
<path d="M10.3906 15.094V16.1877H11.0469V17.2815H11.7031V16.1877H12.3594V15.094H13.0156V14.0002H12.3594V12.9065H11.7031V11.9221L11.0469 12.5784V12.9065H10.7188L10.3906 13.2346V14.0002H9.84375V15.094H10.3906Z" fill="#C8313E"/>
<path d="M16.1874 9.73462H16.8437V10.8284H16.1874V9.73462Z" fill="#C8313E"/>
<path d="M16.1874 12.9065H15.5311V11.9221H14.8749V12.9065H14.2186V14.0002H13.5624V15.094H14.2186V16.1877H14.8749V17.2815H15.5311V16.1877H16.1874V15.094H16.7343V14.0002H16.1874V12.9065Z" fill="#C8313E"/>
<path d="M13.0156 11.9219V13.0156H13.6718V11.9219H14.2187V10.8281H14.8749V9.73437H15.5312V8.64063H16.1874V8.20312C14.9843 9.07813 13.7812 9.95313 12.7968 10.9375C12.6874 11.0469 12.5781 11.1563 12.3593 11.2656V11.8125H13.0156V11.9219Z" fill="#C8313E"/>
<path d="M9.40613 17.281H9.18738V19.3591H9.84363V17.281H9.5155H9.40613Z" fill="#C8313E"/>
<path d="M10.3906 32.2654H9.84369V33.3591H9.18744V32.2654H8.53119V31.281H7.87494V33.3591H8.53119V34.4529H9.18744V35.5466H8.53119V36.6404H7.87494V38.7185H8.53119V37.7341H9.18744V36.6404H9.84369V37.7341H10.3906V38.7185H11.0468V36.6404H10.3906V35.5466H9.84369V34.4529H10.3906V33.3591H11.0468V31.281H10.3906V32.2654Z" fill="#C8313E"/>
<path d="M16.1874 25.8123H16.8437V26.906H16.1874V25.8123Z" fill="#C8313E"/>
<path d="M16.1874 20.4534H15.5312V19.3596H14.8749V18.2659H14.2187V17.1721H13.5624V16.0784H12.9062V17.1721H12.2499V18.2659H11.5937V19.3596H10.9374V20.4534H10.3906V21.5471H9.84369V22.6409H9.18744V21.5471H8.53119V20.4534H7.87494V19.3596H7.21869V18.2659H6.78119C6.12494 19.3596 5.46869 20.5627 4.92181 21.7659C4.37494 23.0784 3.93744 24.3909 3.49994 25.7034H4.04681V26.7971H4.70306V25.7034H5.35931V24.6096H6.01556V23.5159H4.70306V22.4221H6.56244V23.5159H7.21869V24.6096H7.87494V25.7034H7.21869V26.7971H6.67181V27.8909H6.01556V28.9846H5.35931V30.0784H4.70306V31.1721H4.04681V30.0784H3.49994V28.9846H2.84369V28.5471C2.62494 29.4221 2.51556 30.2971 2.40619 31.1721H2.84369V32.2659H3.49994V33.3596H4.15619V34.4534H4.81244V35.5471H4.04681V36.6409H3.49994V37.7346H2.84369V38.8284H2.40619C2.51556 39.7034 2.62494 40.5784 2.84369 41.4534V41.0159H3.49994V39.9221H4.15619V38.8284H4.81244V39.9221H5.46869V41.0159H6.12494V42.1096H6.78119V43.2034H7.43744V44.2971H8.09369V45.3909H7.21869V46.4846H6.67181V47.5784H4.70306V46.4846H6.01556V45.3909H5.35931V44.2971H4.70306V43.2034H4.04681V44.2971H3.49994C3.93744 45.5002 4.37494 46.8127 4.92181 48.1252C5.46869 49.3284 6.12494 50.5315 6.78119 51.6252H7.32806V50.5315H7.98431V49.4377H8.64056V48.344H9.29681V47.2502H9.84369V48.344H10.4999V49.4377H11.1562V50.5315H11.8124V51.6252H12.4687V52.719H13.1249V53.8127H13.7812V52.719H14.2187V51.6252H14.8749V50.5315H15.5312V49.4377H16.1874V48.344H16.8437V46.1565H16.1874V45.0627H15.5312V43.969H14.8749V42.8752H14.2187V43.969H13.5624V45.0627H12.9062V46.1565H14.2187V47.2502H12.3593V46.1565H11.7031V45.0627H11.0468V43.969H11.7031V42.8752H12.3593V41.7815H13.0156V40.6877H13.6718V39.594H14.2187V38.5002H14.8749V39.594H15.5312V40.6877H16.1874V41.7815H16.8437V38.5002H16.1874V37.4065H15.5312V36.3127H14.8749V35.219H14.2187V34.1252H14.8749V33.0315H15.5312V31.9377H16.1874V30.844H16.8437V27.5627H16.1874V28.6565H15.5312V29.7502H14.8749V30.844H14.2187V29.7502H13.5624V28.6565H12.9062V27.5627H12.2499V26.469H11.5937V25.3752H10.9374V24.2815H11.5937V23.1877H12.2499V22.094H14.2187V23.1877H12.9062V24.2815H13.5624V25.3752H14.2187V26.469H14.8749V25.3752H15.5312V24.2815H16.1874V23.1877H16.8437V21.0002H16.1874V20.4534ZM11.7031 30.1877V31.2815H12.3593V32.3752H13.0156V37.844H12.3593V38.9377H11.7031V40.0315H11.0468V41.1252H10.3906V42.219H9.84369V43.3127H9.18744V42.219H8.53119V41.1252H7.87494V40.0315H7.21869V38.9377H6.67181V37.844H6.01556V32.3752H6.67181V31.2815H7.32806V30.1877H7.98431V29.094H8.64056V28.0002H9.29681V26.9065H9.84369V28.0002H10.4999V29.094H11.1562V30.1877H11.7031Z" fill="#C8313E"/>
<path d="M9.5155 30.1873H9.84363V29.0935H9.18738V30.1873H9.40613H9.5155Z" fill="#C8313E"/>
<path d="M7.87494 52.719H7.43744C7.54681 52.9377 7.76556 53.1565 7.87494 53.3752V52.719Z" fill="#C8313E"/>
<path d="M8.53113 53.8127H8.09363C8.203 54.0315 8.31238 54.1409 8.53113 54.3596V53.8127Z" fill="#C8313E"/>
<path d="M9.18744 54.9065H8.96869C9.07806 55.0159 9.07806 55.1252 9.18744 55.2346V54.9065Z" fill="#C8313E"/>
<path d="M16.1874 50.6404H16.8437V51.7341H16.1874V50.6404Z" fill="#C8313E"/>
<path d="M16.1874 53.8127H15.5311V52.719H14.8749V53.8127H14.2186V54.9065H13.5624V56.0002H14.2186V57.094H14.8749V58.0784H15.5311V57.094H16.1874V56.0002H16.7343V54.9065H16.1874V53.8127Z" fill="#C8313E"/>
<path d="M10.3906 56.0002V56.7659L10.7188 57.094H11.0469V57.4221L11.7031 58.0784V57.094H12.3594V56.0002H13.0156V54.9065H12.3594V53.8127H11.7031V52.719H11.0469V53.8127H10.3906V54.9065H9.84375V56.0002H10.3906Z" fill="#C8313E"/>
<path d="M16.1874 59.1716H16.8437V60.2654H16.1874V59.1716Z" fill="#C8313E"/>
<path d="M12.6874 59.0623C13.7812 60.0466 14.8749 61.031 16.0781 61.7966V61.3591H15.4218V60.2654H14.7656V59.1716H14.2187V58.0779H13.5624V56.9841H12.9062V58.0779H12.2499V58.6248L12.6874 59.0623Z" fill="#C8313E"/>
<path d="M9.40613 50.6404H9.18738V52.7185H9.84363V50.6404H9.5155H9.40613Z" fill="#C8313E"/>
<path d="M16.1874 43.094H16.8437V44.1877H16.1874V43.094Z" fill="#C8313E"/>
<path d="M12.3593 35.1094V34.4531H11.7031V35.5469H12.3593V35.1094Z" fill="#C8313E"/>
<path d="M9.40613 39.8127H9.18738V40.9065H9.84363V39.8127H9.5155H9.40613Z" fill="#C8313E"/>
<path d="M16.7344 48.125V62.2344C21.9844 65.7344 28.2188 67.8125 35.0001 67.8125C43.6407 67.8125 51.4063 64.5312 57.3126 59.0625C60.5938 56 63.3282 52.2812 65.0782 48.125H16.7344Z" fill="#83BF4F"/>
<path d="M65.0782 48.125C66.8282 44.0781 67.8126 39.7031 67.8126 35C67.8126 30.2969 66.8282 25.9219 65.0782 21.875C63.2188 17.7188 60.5938 14 57.3126 10.9375C51.4063 5.46875 43.6407 2.1875 35.0001 2.1875C28.2188 2.1875 21.9844 4.26562 16.7344 7.76562V48.125H65.0782Z" fill="#C94747"/>
</svg>
