<svg width="70" height="70" viewBox="0 0 70 70" fill="none" xmlns="http://www.w3.org/2000/svg">
<path d="M34.8906 2.1875C20.6718 2.1875 8.53121 11.375 4.04683 24.0625H65.9531C61.3593 11.375 49.2187 2.1875 34.8906 2.1875Z" fill="#F9F9F9"/>
<path d="M34.8906 67.8125C49.2187 67.8125 61.3593 58.625 65.8437 45.9375H4.04683C8.53121 58.7344 20.6718 67.8125 34.8906 67.8125Z" fill="#ED4C5C"/>
<path d="M4.04688 24.0625C2.84375 27.4531 2.1875 31.1719 2.1875 35C2.1875 38.8281 2.84375 42.5469 4.04688 45.9375H65.9531C67.1562 42.5469 67.8125 38.8281 67.8125 35C67.8125 31.1719 67.1562 27.4531 65.9531 24.0625H4.04688Z" fill="#428BC1"/>
</svg>
