<svg width="70" height="70" viewBox="0 0 70 70" fill="none" xmlns="http://www.w3.org/2000/svg">
<path d="M52.5 7.21875C47.3594 4.04687 41.4531 2.1875 35 2.1875V7.21875H52.5Z" fill="#ED4C5C"/>
<path d="M35 12.2498H58.625C56.7656 10.3904 54.6875 8.64038 52.5 7.21851H35V12.2498Z" fill="white"/>
<path d="M35 17.2815H62.6719C61.4688 15.4221 60.1562 13.7815 58.7344 12.2502H35V17.2815Z" fill="#ED4C5C"/>
<path d="M35 22.3123H65.2969C64.5312 20.5623 63.6562 18.8123 62.6719 17.281H35V22.3123Z" fill="white"/>
<path d="M35 27.344H66.9375C66.5 25.594 65.9531 23.9534 65.2969 22.3127H35V27.344Z" fill="#ED4C5C"/>
<path d="M35 32.4841H67.7031C67.5938 30.7341 67.2656 29.0935 66.9375 27.4529H35V32.4841Z" fill="white"/>
<path d="M67.7031 32.4846H35V35.0002H2.1875C2.1875 35.8752 2.1875 36.6409 2.29687 37.5159H67.7031C67.8125 36.6409 67.8125 35.8752 67.8125 35.0002C67.8125 34.1252 67.8125 33.2502 67.7031 32.4846Z" fill="#ED4C5C"/>
<path d="M3.06256 42.5466H66.9376C67.3751 40.906 67.5938 39.2654 67.7032 37.5154H2.29694C2.40631 39.156 2.62506 40.906 3.06256 42.5466Z" fill="white"/>
<path d="M4.70319 47.5784H65.2969C65.9532 45.9377 66.5001 44.2971 66.9376 42.5471H3.06256C3.50006 44.2971 4.04694 45.9377 4.70319 47.5784Z" fill="#ED4C5C"/>
<path d="M7.32819 52.6094H62.6719C63.6563 50.9687 64.5313 49.3281 65.2969 47.5781H4.70319C5.46881 49.3281 6.34381 50.9687 7.32819 52.6094Z" fill="white"/>
<path d="M11.2656 57.6404H58.7343C60.1562 56.1091 61.5781 54.3591 62.6718 52.6091H7.32806C8.42181 54.4685 9.84369 56.1091 11.2656 57.6404Z" fill="#ED4C5C"/>
<path d="M17.3907 62.6721H52.6094C54.9063 61.2502 56.8751 59.5002 58.7344 57.6409H11.2657C13.1251 59.6096 15.2032 61.2502 17.3907 62.6721Z" fill="white"/>
<path d="M34.9999 67.8123C41.4531 67.8123 47.4687 65.9529 52.6093 62.6716H17.3906C22.5312 65.9529 28.5468 67.8123 34.9999 67.8123Z" fill="#ED4C5C"/>
<path d="M17.5 7.21875C15.2031 8.64062 13.125 10.3906 11.2656 12.25C9.73438 13.7812 8.42188 15.5312 7.32812 17.2812C6.34375 18.9219 5.35938 20.5625 4.70313 22.3125C4.04688 23.9531 3.5 25.5938 3.0625 27.3438C2.625 28.9844 2.40625 30.625 2.29687 32.375C2.1875 33.25 2.1875 34.125 2.1875 35H35V2.1875C28.5469 2.1875 22.6406 4.04687 17.5 7.21875Z" fill="#428BC1"/>
<path d="M27.3438 3.28125L27.8906 4.92188H29.5312L28.2187 6.01562L28.6563 7.65625L27.3438 6.67188L26.0312 7.65625L26.4688 6.01562L25.1562 4.92188H26.7969L27.3438 3.28125Z" fill="white"/>
<path d="M31.7188 9.84375L32.2656 11.4844H33.9062L32.5937 12.5781L33.0313 14.2188L31.7188 13.2344L30.4062 14.2188L30.8438 12.5781L29.5312 11.4844H31.1719L31.7188 9.84375Z" fill="white"/>
<path d="M22.9688 9.84375L23.5156 11.4844H25.1562L23.8437 12.5781L24.2813 14.2188L22.9688 13.2344L21.6562 14.2188L22.0938 12.5781L20.7812 11.4844H22.4219L22.9688 9.84375Z" fill="white"/>
<path d="M27.3438 16.4062L27.8906 18.0469H29.5312L28.2187 19.1406L28.6563 20.7812L27.3438 19.7969L26.0312 20.7812L26.4688 19.1406L25.1562 18.0469H26.7969L27.3438 16.4062Z" fill="white"/>
<path d="M18.5938 16.4062L19.1406 18.0469H20.7812L19.4687 19.1406L19.9063 20.7812L18.5938 19.7969L17.2813 20.7812L17.7188 19.1406L16.4062 18.0469H18.0469L18.5938 16.4062Z" fill="white"/>
<path d="M9.84375 16.4062L10.3906 18.0469H12.0312L10.7188 19.1406L11.1562 20.7812L9.84375 19.7969L8.53125 20.7812L8.96875 19.1406L7.65625 18.0469H9.29688L9.84375 16.4062Z" fill="white"/>
<path d="M31.7188 22.9688L32.2656 24.6094H33.9062L32.5937 25.7031L33.0313 27.3438L31.7188 26.3594L30.4062 27.3438L30.8438 25.7031L29.5312 24.6094H31.1719L31.7188 22.9688Z" fill="white"/>
<path d="M22.9688 22.9688L23.5156 24.6094H25.1562L23.8437 25.7031L24.2813 27.3438L22.9688 26.3594L21.6562 27.3438L22.0938 25.7031L20.7812 24.6094H22.4219L22.9688 22.9688Z" fill="white"/>
<path d="M14.2188 22.9688L14.7656 24.6094H16.4062L15.0938 25.7031L15.5312 27.3438L14.2188 26.3594L12.9063 27.3438L13.3437 25.7031L12.0312 24.6094H13.6719L14.2188 22.9688Z" fill="white"/>
<path d="M27.3438 29.5312L27.8906 31.1719H29.5312L28.2187 32.2656L28.6563 33.9062L27.3438 32.9219L26.0312 33.9062L26.4688 32.2656L25.1562 31.1719H26.7969L27.3438 29.5312Z" fill="white"/>
<path d="M18.5938 29.5312L19.1406 31.1719H20.7812L19.4687 32.2656L19.9063 33.9062L18.5938 32.9219L17.2813 33.9062L17.7188 32.2656L16.4062 31.1719H18.0469L18.5938 29.5312Z" fill="white"/>
<path d="M9.84375 29.5312L10.3906 31.1719H12.0312L10.7188 32.2656L11.1562 33.9062L9.84375 32.9219L8.53125 33.9062L8.96875 32.2656L7.65625 31.1719H9.29688L9.84375 29.5312Z" fill="white"/>
<path d="M12.9061 14.2188L14.2186 13.2344L15.5311 14.2188L14.9843 12.5781L16.2968 11.4844H14.6561L14.2186 9.84375L13.6718 11.4844H12.1405L13.453 12.4687L12.9061 14.2188Z" fill="white"/>
<path d="M4.15619 27.3438L5.46869 26.3594L6.78119 27.3438L6.23431 25.7031L7.54681 24.6094H6.01556L5.46869 22.9688L4.92181 24.6094H3.82806C3.82806 24.7188 3.71869 24.8281 3.71869 24.9375L4.59369 25.5937L4.15619 27.3438Z" fill="white"/>
</svg>
