<svg width="70" height="70" viewBox="0 0 70 70" fill="none" xmlns="http://www.w3.org/2000/svg">
<path d="M24.0624 65.9531V50.8594L12.7968 59.1719C15.9687 62.125 19.7968 64.4219 24.0624 65.9531Z" fill="#2A5F9E"/>
<path d="M45.9375 65.9534C50.2031 64.4221 54.0312 62.1252 57.2031 59.1721L45.9375 50.7502V65.9534Z" fill="#2A5F9E"/>
<path d="M4.04681 45.9375C4.37494 47.0312 4.81244 48.0156 5.35931 49.1094L9.62494 45.9375H4.04681Z" fill="#2A5F9E"/>
<path d="M60.3749 45.9375L64.6406 49.1094C65.0781 48.125 65.5156 47.0312 65.9531 45.9375H60.3749Z" fill="#2A5F9E"/>
<path d="M25.7032 41.5625H2.84381C3.17194 43.0937 3.60944 44.5156 4.04694 45.9375H9.62506L5.35944 49.1094C6.23444 50.9688 7.21881 52.6094 8.42194 54.25L19.6876 45.9375H24.0626V48.125L11.2657 57.5312L12.7969 59.0625L24.0626 50.8594V65.9531C25.4844 66.5 26.9063 66.8281 28.4376 67.1562V41.5625H25.7032Z" fill="white"/>
<path d="M67.1562 41.5625H41.5625V67.1562C43.0937 66.8281 44.5156 66.3906 45.9375 65.9531V50.8594L57.2031 59.0625C58.7344 57.6406 60.0469 56.1094 61.3594 54.4687L49.6563 45.9375H57.0937L63.7656 50.8594C64.0937 50.3125 64.4219 49.6563 64.6406 49.1094L60.375 45.9375H65.9531C66.3906 44.5156 66.8281 43.0937 67.1562 41.5625Z" fill="white"/>
<path d="M8.42181 54.2498C9.29681 55.4529 10.1718 56.5466 11.1562 57.6404L24.0624 48.2341V46.0466H19.6874L8.42181 54.2498Z" fill="#ED4C5C"/>
<path d="M49.7656 45.9375L61.4688 54.4688C61.9063 53.9219 62.2344 53.375 62.6719 52.8281C62.7812 52.7188 62.7812 52.6094 62.8906 52.6094C63.2188 52.0625 63.6562 51.4063 63.9844 50.8594L57.0938 45.9375H49.7656Z" fill="#ED4C5C"/>
<path d="M45.9375 4.04712V19.1409L57.2031 10.8284C54.0312 7.87524 50.2031 5.57837 45.9375 4.04712Z" fill="#2A5F9E"/>
<path d="M24.0624 4.04712C19.7968 5.57837 15.9687 7.87524 12.7968 10.8284L24.0624 19.2502V4.04712Z" fill="#2A5F9E"/>
<path d="M65.9531 24.063C65.6249 22.9692 65.1874 21.9849 64.6406 20.8911L60.3749 24.063H65.9531Z" fill="#2A5F9E"/>
<path d="M9.62494 24.063L5.35931 20.8911C4.92181 21.9849 4.48431 22.9692 4.04681 24.063H9.62494Z" fill="#2A5F9E"/>
<path d="M44.2969 28.4373H67.0469C66.7188 26.906 66.2812 25.4841 65.8438 24.0623H60.2656L64.5312 20.8904C63.6562 19.031 62.6719 17.3904 61.4688 15.7498L50.3125 24.0623H45.9375V21.8748L58.7344 12.4685L57.2031 10.9373L45.9375 19.1404V4.04663C44.5156 3.49976 43.0938 3.17163 41.5625 2.84351V28.4373H44.2969Z" fill="white"/>
<path d="M2.84381 28.4373H28.4376V2.84351C26.9063 3.17163 25.4844 3.60913 24.0626 4.04663V19.1404L12.7969 10.9373C11.2657 12.3591 9.95319 13.8904 8.64069 15.531L20.3438 24.0623H12.9063L6.23444 19.1404C5.90631 19.6873 5.57819 20.3435 5.35944 20.8904L9.62506 24.0623H4.04694C3.60944 25.4841 3.17194 26.906 2.84381 28.4373Z" fill="white"/>
<path d="M61.5781 15.7498C60.7031 14.5466 59.8281 13.4529 58.8437 12.3591L45.9375 21.7654V23.9529H50.3125L61.5781 15.7498Z" fill="#ED4C5C"/>
<path d="M20.2344 24.0627L8.64069 15.5315C8.20319 16.0784 7.87506 16.6252 7.43756 17.1721C7.32819 17.2815 7.32819 17.3909 7.21881 17.3909C6.89069 17.9377 6.45319 18.594 6.12506 19.1409L12.7969 24.0627H20.2344Z" fill="#ED4C5C"/>
<path d="M67.1562 28.4375H41.5625V2.84375C39.4844 2.40625 37.2969 2.1875 35 2.1875C32.7031 2.1875 30.5156 2.40625 28.4375 2.84375V28.4375H2.84375C2.40625 30.5156 2.1875 32.7031 2.1875 35C2.1875 37.2969 2.40625 39.4844 2.84375 41.5625H28.4375V67.1562C30.5156 67.5938 32.7031 67.8125 35 67.8125C37.2969 67.8125 39.4844 67.5938 41.5625 67.1562V41.5625H67.1562C67.5938 39.4844 67.8125 37.2969 67.8125 35C67.8125 32.7031 67.5938 30.5156 67.1562 28.4375Z" fill="#ED4C5C"/>
</svg>
