<svg width="70" height="70" viewBox="0 0 70 70" fill="none" xmlns="http://www.w3.org/2000/svg">
<path d="M49.875 36.094L67.7031 37.2971C67.7031 36.5315 67.8125 35.7659 67.8125 35.0002C67.8125 29.094 66.2812 23.6252 63.5469 18.8127L47.9062 27.6721L45.0625 24.0627L57.0938 10.8284C52.5 6.56274 46.5938 3.60962 40.1406 2.62524L37.2969 20.344H32.8125L29.8594 2.62524C23.4062 3.60962 17.5 6.56274 12.7969 10.8284L24.8281 24.0627L21.9844 27.5627L6.45312 18.8127C3.71875 23.6252 2.1875 29.094 2.1875 35.0002C2.1875 35.7659 2.1875 36.5315 2.29687 37.2971L20.125 36.094L21.1094 40.469L4.59375 47.2502C7 53.2659 11.1562 58.4065 16.4062 62.0159L26.5781 47.3596L30.625 49.219L25.4844 66.3909C28.5469 67.3752 31.7188 67.8127 35 67.8127C38.2812 67.8127 41.4531 67.3752 44.5156 66.3909L39.375 49.219L43.4219 47.2502L53.5938 62.0159C58.8438 58.4065 63 53.2659 65.4062 47.2502L48.8906 40.469L49.875 36.094Z" fill="#ED4C5C"/>
<path d="M37.2969 20.3438L40.1406 2.625C38.3906 2.29688 36.75 2.1875 35 2.1875C33.25 2.1875 31.6094 2.29688 29.8594 2.625L32.7031 20.3438H37.2969Z" fill="#FFCE31"/>
<path d="M47.9062 27.5623L63.5469 18.7029C61.7969 15.7498 59.7187 13.0154 57.2031 10.7185L45.0625 24.0623L47.9062 27.5623Z" fill="#FFCE31"/>
<path d="M49.875 36.0938L48.8906 40.4688L65.5156 47.1406C66.7188 44.0781 67.5938 40.6875 67.8125 37.1875L49.875 36.0938Z" fill="#FFCE31"/>
<path d="M39.375 49.2185L44.5156 66.3904C47.7969 65.406 50.8594 63.8748 53.7031 62.0154L43.5312 47.3591L39.375 49.2185Z" fill="#FFCE31"/>
<path d="M26.5781 47.2502L16.4062 62.0159C19.1406 63.9846 22.3125 65.4065 25.5938 66.3909L30.625 49.219L26.5781 47.2502Z" fill="#FFCE31"/>
<path d="M20.125 36.0938L2.29688 37.2969C2.51562 40.7969 3.28125 44.0781 4.59375 47.25L21.1094 40.4687L20.125 36.0938Z" fill="#FFCE31"/>
<path d="M24.9375 24.0627L12.9062 10.8284C10.3906 13.1252 8.20312 15.8596 6.5625 18.8127L22.2031 27.6721L24.9375 24.0627Z" fill="#FFCE31"/>
<path d="M35 44.8438C40.4366 44.8438 44.8438 40.4366 44.8438 35C44.8438 29.5634 40.4366 25.1562 35 25.1562C29.5634 25.1562 25.1562 29.5634 25.1562 35C25.1562 40.4366 29.5634 44.8438 35 44.8438Z" fill="#FFCE31"/>
</svg>
