<svg width="19" height="16" viewBox="0 0 19 16" fill="none" xmlns="http://www.w3.org/2000/svg">
<path d="M17.86 11.9041L11.7879 1.83415C11.5424 1.45004 11.2041 1.13394 10.8043 0.914974C10.4044 0.696011 9.95587 0.581238 9.5 0.581238C9.04412 0.581238 8.59558 0.696011 8.19574 0.914974C7.79589 1.13394 7.45761 1.45004 7.21208 1.83415L1.14 11.9041C0.925499 12.2617 0.808914 12.6694 0.801966 13.0863C0.795017 13.5033 0.89795 13.9146 1.10041 14.2791C1.33449 14.6894 1.67331 15.0302 2.08224 15.2667C2.49117 15.5031 2.95555 15.6268 3.42791 15.625H15.5721C16.0413 15.63 16.5036 15.5111 16.9123 15.2804C17.3209 15.0497 17.6615 14.7152 17.8996 14.3108C18.108 13.9425 18.2142 13.5252 18.2072 13.1021C18.2003 12.679 18.0804 12.2654 17.86 11.9041ZM16.5142 13.5271C16.419 13.6906 16.2809 13.825 16.1149 13.9157C15.9488 14.0064 15.7611 14.05 15.5721 14.0416H3.42791C3.23888 14.05 3.05117 14.0064 2.88511 13.9157C2.71906 13.825 2.58098 13.6906 2.48583 13.5271C2.41635 13.4067 2.37977 13.2702 2.37977 13.1312C2.37977 12.9923 2.41635 12.8557 2.48583 12.7354L8.56583 2.65748C8.67508 2.51317 8.81629 2.39612 8.97836 2.31554C9.14044 2.23495 9.31899 2.19302 9.5 2.19302C9.681 2.19302 9.85955 2.23495 10.0216 2.31554C10.1837 2.39612 10.3249 2.51317 10.4342 2.65748L16.5062 12.7275C16.5784 12.8481 16.6172 12.9857 16.6186 13.1262C16.62 13.2667 16.5839 13.4051 16.5142 13.5271Z" fill="#FF0000"/>
<path d="M9.50004 12.4583C9.93727 12.4583 10.2917 12.1039 10.2917 11.6667C10.2917 11.2294 9.93727 10.875 9.50004 10.875C9.06282 10.875 8.70837 11.2294 8.70837 11.6667C8.70837 12.1039 9.06282 12.4583 9.50004 12.4583Z" fill="#FF0000"/>
<path d="M9.50004 5.33331C9.29008 5.33331 9.08871 5.41672 8.94025 5.56519C8.79178 5.71365 8.70837 5.91502 8.70837 6.12498V9.29165C8.70837 9.50161 8.79178 9.70297 8.94025 9.85144C9.08871 9.9999 9.29008 10.0833 9.50004 10.0833C9.71 10.0833 9.91137 9.9999 10.0598 9.85144C10.2083 9.70297 10.2917 9.50161 10.2917 9.29165V6.12498C10.2917 5.91502 10.2083 5.71365 10.0598 5.56519C9.91137 5.41672 9.71 5.33331 9.50004 5.33331Z" fill="#FF0000"/>
</svg>
