<?xml version="1.0" encoding="utf-8"?>
<!-- Generator: Adobe Illustrator 22.0.0, SVG Export Plug-In . SVG Version: 6.00 Build 0)  -->
<svg version="1.1" id="Layer_1" xmlns="http://www.w3.org/2000/svg" xmlns:xlink="http://www.w3.org/1999/xlink" x="0px" y="0px"
	 width="60.1px" height="64px" viewBox="0 0 60.1 64" enable-background="new 0 0 60.1 64" xml:space="preserve">
<g>
	<defs>
		<rect id="SVGID_1_" width="60.1" height="64"/>
	</defs>
	<clipPath id="SVGID_2_">
		<use xlink:href="#SVGID_1_"  overflow="visible"/>
	</clipPath>
	<g clip-path="url(#SVGID_2_)">
		<path fill="#F96156" d="M40.7,10.7c0-2.1-0.6-4.2-1.8-6c-1.2-1.8-2.8-3.1-4.8-4S30-0.2,28,0.2c-2.1,0.4-4,1.4-5.5,2.9
			C21,4.6,20,6.5,19.6,8.6c-0.4,2.1-0.2,4.2,0.6,6.2c0.8,2,2.2,3.6,3.9,4.8c1.8,1.2,3.8,1.8,5.9,1.8c1.4,0,2.8-0.3,4.1-0.8
			c1.3-0.5,2.5-1.3,3.5-2.3c1-1,1.8-2.2,2.3-3.5C40.5,13.5,40.7,12.1,40.7,10.7z"/>
		<path fill="#F96156" d="M6.6,27.7l19.1,33.1c2.4,4.2,6.4,4.2,8.9,0l8.4-14.6C31,49.2,13.3,39.5,6.6,27.7z"/>
		<path fill="#F96156" d="M55.9,10.7c-4.1,0-9,3.7-11,8.1c0,0-4.6,10.4-14.8,10.4c-3.5,0-6.9-1.3-9.6-3.6
			c3.3,4.1,14.8,12.9,31.7,4.4l6.7-11.6C61.3,14.2,60,10.7,55.9,10.7z"/>
		<path fill="#F96156" d="M20.5,25.7c-2.2-1.9-4-4.2-5.3-6.8c-2-4.5-7-8.1-11-8.1c-4.1,0-5.4,3.5-3,7.7l5.4,9.3
			C13.3,39.5,31,49.2,42.9,46.3l9.3-16.1C35.3,38.5,23.8,29.7,20.5,25.7z"/>
	</g>
</g>
</svg>
