<svg width="167" height="33" viewBox="0 0 167 33" fill="none" xmlns="http://www.w3.org/2000/svg">
<path d="M49.837 24V12.486C49.837 11.65 49.077 10.985 48.412 10.985H47.253V19.953C47.063 19.516 46.759 18.737 46.493 18.205L44.213 13.645C43.339 11.897 42.237 10.985 40.527 10.985H39.235V22.29C39.235 23.43 40.052 24 40.812 24H41.838V14.424C42.066 14.728 42.351 15.222 42.712 15.944L45.087 20.561C46.702 23.696 47.804 24 48.811 24H49.837ZM60.3531 20.504V18.148C60.3531 14.614 58.3011 13.55 56.0211 13.55C53.3231 13.55 52.2971 14.918 52.2971 16.058V16.875H52.3921C52.7721 16.4 53.7981 15.697 55.6411 15.697C57.1611 15.697 57.8451 16.134 57.8451 17.578V17.711H56.9521C53.1901 17.711 51.8601 19.098 51.8601 20.922C51.8601 22.803 53.5321 24.171 55.9641 24.171H56.4771C58.7571 24.171 60.3531 22.67 60.3531 20.504ZM57.8641 20.523C57.8641 21.568 57.3321 22.1 56.2301 22.1C55.1091 22.1 54.4631 21.625 54.4631 20.827C54.4631 19.991 55.0141 19.535 56.9521 19.535H57.8641V20.523ZM62.4677 14.158V20.314C62.4677 22.708 63.7217 24.114 66.3057 24.114C67.7877 24.114 68.5477 23.449 68.5477 22.404V21.492H68.4527C68.0537 21.739 67.4267 21.853 66.6097 21.853C65.5837 21.853 64.9947 21.34 64.9947 20.01V16.001H67.0277C68.0727 16.001 68.5477 15.317 68.5477 14.785V13.74H64.9947V11.422H64.4057C64.0067 11.422 63.5507 11.726 63.2087 12.125C62.6577 12.771 62.4677 13.151 62.4677 14.158ZM73.1509 11.517C73.1509 10.7 72.4669 10.035 71.6499 10.035C70.8329 10.035 70.1679 10.7 70.1679 11.517C70.1679 12.334 70.8329 13.018 71.6499 13.018C72.4669 13.018 73.1509 12.334 73.1509 11.517ZM74.9749 22.556V22.005H74.4999C73.3789 22.005 72.9419 21.682 72.9419 20.656V15.868C72.9419 14.576 72.2579 13.968 71.1179 13.968H70.3959V20.903C70.3959 22.974 71.4789 24.095 73.4549 24.095C74.5379 24.095 74.9749 23.658 74.9749 22.556ZM84.703 14.956C84.703 14.12 84.38 13.74 83.506 13.74H82.423C82.043 16.305 81.15 19.022 80.181 20.941C79.098 18.832 78.585 16.856 78.224 14.956C78.129 14.405 77.578 13.74 76.704 13.74H75.336C75.564 16.514 77.312 20.979 78.699 23.088C79.212 23.848 79.611 24.114 80.371 24.114H80.865C82.005 22.556 83.145 20.086 83.829 18.205C84.456 16.495 84.703 15.26 84.703 14.956ZM94.8605 17.483C94.8605 15.032 92.8845 13.512 90.7565 13.512C87.8305 13.512 85.7405 15.659 85.7405 19.079C85.7405 22.214 88.2295 24.228 90.7755 24.228C93.5875 24.228 94.4805 23.221 94.4805 21.91V21.112H94.3855C93.5685 21.872 92.3145 22.081 91.2505 22.081C89.7495 22.081 88.5715 21.264 88.3815 19.972H90.0535C93.4355 19.972 94.8605 19.364 94.8605 17.483ZM92.4665 17.179C92.4665 17.901 91.9155 18.167 89.5025 18.167H88.3625L88.3815 17.825C88.4385 16.647 89.2935 15.64 90.5285 15.64C91.7065 15.64 92.4665 16.153 92.4665 17.179ZM110.199 11.802V10.985H101.459C100.395 10.985 99.8821 11.783 99.8821 12.41V13.265H103.625V22.252C103.625 23.411 104.29 24 105.202 24H106.247V13.265H108.641C109.496 13.265 110.199 12.429 110.199 11.802ZM119.445 17.483C119.445 15.032 117.469 13.512 115.341 13.512C112.415 13.512 110.325 15.659 110.325 19.079C110.325 22.214 112.814 24.228 115.36 24.228C118.172 24.228 119.065 23.221 119.065 21.91V21.112H118.97C118.153 21.872 116.899 22.081 115.835 22.081C114.334 22.081 113.156 21.264 112.966 19.972H114.638C118.02 19.972 119.445 19.364 119.445 17.483ZM117.051 17.179C117.051 17.901 116.5 18.167 114.087 18.167H112.947L112.966 17.825C113.023 16.647 113.878 15.64 115.113 15.64C116.291 15.64 117.051 16.153 117.051 17.179ZM129.432 20.504V18.148C129.432 14.614 127.38 13.55 125.1 13.55C122.402 13.55 121.376 14.918 121.376 16.058V16.875H121.471C121.851 16.4 122.877 15.697 124.72 15.697C126.24 15.697 126.924 16.134 126.924 17.578V17.711H126.031C122.269 17.711 120.939 19.098 120.939 20.922C120.939 22.803 122.611 24.171 125.043 24.171H125.556C127.836 24.171 129.432 22.67 129.432 20.504ZM126.943 20.523C126.943 21.568 126.411 22.1 125.309 22.1C124.188 22.1 123.542 21.625 123.542 20.827C123.542 19.991 124.093 19.535 126.031 19.535H126.943V20.523ZM146.348 24V17.844C146.348 14.937 144.448 13.512 142.092 13.512C140.857 13.512 139.736 14.158 139.147 15.108C138.406 14.12 137.361 13.512 136.031 13.512C132.934 13.512 131.471 15.374 131.471 18.167V22.138C131.471 23.316 132.269 24 133.314 24H133.998V17.958C133.998 16.552 134.739 15.773 135.727 15.773C136.848 15.773 137.627 16.495 137.627 18.186V22.138C137.627 23.354 138.368 24 139.489 24H140.173V17.901C140.173 16.495 140.876 15.773 141.902 15.773C143.023 15.773 143.783 16.495 143.783 18.186V22.138C143.783 23.354 144.334 24 145.721 24H146.348ZM156.191 20.77C156.191 19.136 155.051 18.205 152.923 17.863C151.175 17.578 150.871 17.369 150.871 16.856C150.871 16.191 151.365 15.716 152.923 15.716C154.139 15.716 155.317 16.134 155.849 16.666H155.944V15.697C155.944 14.709 154.994 13.512 152.676 13.512C150.054 13.512 148.325 15.146 148.325 17.065C148.325 18.623 149.37 19.478 151.536 19.782C153.303 20.029 153.664 20.314 153.664 20.903C153.664 21.663 153.056 22.024 151.802 22.024C150.586 22.024 149.275 21.568 148.724 21.055H148.629V22.214C148.629 23.259 150.035 24.228 151.916 24.228C154.671 24.228 156.191 22.936 156.191 20.77Z" fill="black"/>
<g clip-path="url(#clip0)">
<path d="M21.0106 5.52717C21.0109 4.43351 20.6879 3.36433 20.0823 2.45484C19.4767 1.54536 18.6159 0.83645 17.6086 0.417771C16.6013 -0.00090786 15.4928 -0.110541 14.4234 0.102738C13.3539 0.316017 12.3716 0.842627 11.6006 1.61596C10.8296 2.38929 10.3046 3.3746 10.0919 4.44725C9.87928 5.51991 9.98859 6.63173 10.406 7.64207C10.8234 8.65241 11.5302 9.51588 12.4369 10.1233C13.3437 10.7307 14.4097 11.0547 15.5 11.0544C16.2237 11.0544 16.9402 10.9114 17.6088 10.6336C18.2774 10.3559 18.8849 9.94873 19.3966 9.43548C19.9083 8.92223 20.3142 8.31292 20.5911 7.64233C20.868 6.97174 21.0106 6.25301 21.0106 5.52717Z" fill="#F96156"/>
<path d="M3.39307 14.3065L13.2182 31.3587C14.4768 33.5472 16.5384 33.5472 17.792 31.3587L22.1099 23.8538C15.9828 25.3609 6.87252 20.3519 3.39307 14.3065Z" fill="#F96156"/>
<path d="M28.8436 5.5271C26.7447 5.5271 24.1851 7.4148 23.1552 9.72049C23.1552 9.72049 20.7615 15.0846 15.5 15.0846C13.6891 15.0766 11.941 14.4184 10.5722 13.2291C12.295 15.336 18.1867 19.8556 26.9073 15.5178L30.3682 9.51489C31.6319 7.31795 30.9407 5.5271 28.8436 5.5271Z" fill="#F96156"/>
<path d="M10.5722 13.2308C9.43322 12.2598 8.50448 11.0651 7.84316 9.72049C6.81321 7.4148 4.25359 5.5271 2.15643 5.5271C0.0592762 5.5271 -0.628483 7.31796 0.631845 9.5149L3.39305 14.3064C6.8725 20.3518 15.9828 25.3607 22.1082 23.8536L26.9073 15.528C18.1867 19.8556 12.295 15.3377 10.5722 13.2308Z" fill="#F96156"/>
</g>
<defs>
<clipPath id="clip0">
<rect width="31" height="33" fill="white"/>
</clipPath>
</defs>
</svg>
